<?xml version="1.0" encoding="utf-8"?>
<!-- Generator: Adobe Illustrator 24.1.0, SVG Export Plug-In . SVG Version: 6.00 Build 0)  -->
<svg version="1.1" id="Layer_1" xmlns="http://www.w3.org/2000/svg" xmlns:xlink="http://www.w3.org/1999/xlink" x="0px" y="0px"
	 viewBox="0 0 257 360" style="enable-background:new 0 0 257 360;" xml:space="preserve">
<style type="text/css">
	.st0{fill:#3C2531;}
	.st1{fill:#552621;}
	.st2{fill:#492836;}
	.st3{fill:#313C4E;}
	.st4{fill:#33495E;}
	.st5{fill:#205073;}
	.st6{fill:#326E97;}
	.st7{fill:#2078B4;}
	.st8{fill:#D69E77;}
	.st9{fill:#EC9C63;}
	.st10{fill:#F0A976;}
	.st11{fill:#D9AC8F;}
	.st12{fill:#EAAE89;}
	.st13{fill:#FFFFFF;}
</style>
<g id="layer101">
	<path class="st0" d="M8,357.6c0-7.2,8.3-81.8,9.5-85.3c0.2-0.7-0.9-1.3-2.8-1.5l-3.2-0.3l-0.8-8c-1.1-10.7-0.2-31.1,1.4-35.7
		c3.8-10.2,11.8-16.8,29.9-24.9c11.6-5.2,31-10.3,36.9-9.7l3.8,0.3l2.2-8.5c1.2-4.7,2.6-12.2,3-16.6c0.5-4.5,1.1-8.6,1.4-9.1
		c0.3-0.5-1.5-2.7-4-4.8c-5.9-5-8.9-11.6-10.3-23c-2.3-19.2-6.9-43.2-9-46.7c-1.1-1.9-2.5-7.1-3.1-11.5c-1.4-9.8,0.4-20.4,5.2-30.3
		c4.6-9.4,17-21.5,26.9-26.3c11-5.4,17.6-6.8,34-7.4c14.1-0.5,14.7-0.5,21.5,2.2c14.4,5.8,20.3,11.2,17.6,16.3
		c-0.8,1.4-0.8,2.9-0.1,4.7c1.6,4.2,1.2,10.8-1.2,18.1c-2,6.1-2.3,9-2.3,24.4c0,16.3-0.2,17.9-2.4,22.8c-1.4,3.2-2.9,5.1-3.6,4.8
		c-0.7-0.2-2.3,1-3.5,2.7c-2,2.6-2.5,5.2-3.6,18.1c-2.4,27.6-1.8,49.5,1.7,62.3l1.1,4.1l3.3-2.2l3.2-2.2l27.9,5.7
		c32.1,6.5,39.6,8.8,47.9,14.4c8.8,5.9,10.1,8.8,10.9,24.8c0.5,11.5,1.8,23.7,4.2,39.6l0.7,4.4l-5.3-0.7l-5.3-0.7l0.7,27.3
		c0.3,15,1.3,34.5,2.1,43.3c0.8,8.8,1.5,16.3,1.5,16.8c0,0.4-53.5,0.7-119,0.7H8V357.6z M107.6,134.3c9.4-2.5,10.1-6.3,1.1-6.3
		c-5.9,0-10.5,1.1-12.7,2.8c-1.4,1-1.9,2.3-1.4,3.6C95.4,136.5,99.4,136.5,107.6,134.3z M87.7,94.3C87.3,94,87,94.3,87,95
		c0,0.7,0.3,1,0.7,0.7C88,95.3,88,94.7,87.7,94.3z"/>
</g>
<g id="layer102">
	<path class="st1" d="M8,357.6c0-7.2,8.3-81.8,9.5-85.3c0.2-0.7-0.9-1.3-2.8-1.5l-3.2-0.3l-0.8-8c-1.1-10.7-0.2-31.1,1.4-35.7
		c3.8-10.2,11.8-16.8,29.9-24.9c11.6-5.2,31-10.3,36.9-9.7l3.8,0.3l2.2-8.5c1.2-4.7,2.6-12.2,3-16.8c0.5-4.6,1.1-8.6,1.5-8.9
		c0.3-0.3,0-1.3-0.7-2.1c-1-1.3-0.8-1.4,1.3-0.8l2.5,0.7l-2.3-1.4c-1.2-0.7-1.9-1.7-1.5-2.2c0.4-0.4,0.2-0.5-0.5-0.1
		c-1.4,0.8-3.1-2.9-2.9-6c0.1-1.3-0.5-1.9-1.8-1.9c-3.3-0.1-4.5-1.4-4-4.3c0.5-2.6,0.5-2.6-0.5-0.3c-0.8,1.7-0.7,2.8,0.2,4
		c1.2,1.4,1.1,1.4-0.4,0.3c-1.2-1-1.6-2.3-1.2-4.5c0.4-2.2,0.3-2.8-0.4-1.9c-0.7,1.1-1,0.8-1.4-1.2c-0.3-1.4-0.1-2.3,0.3-2
		c0.5,0.3,0.9-1.3,0.9-3.4c0-2.6-0.5-4.2-1.5-4.6c-0.8-0.3-1.5-1.3-1.5-2.1c0-1,0.5-1.3,1.2-0.9c0.8,0.5,0.9-0.3,0.5-2.9
		c-0.3-2.1-0.2-3.7,0.4-3.7c0.9,0,1.3,1.5,1,3.4c-0.1,0.5,0.5,0.4,1.3-0.4c2.1-1.7,2.1-1.7-1.5-3.6c-1.7-0.8-2.8-1.1-2.5-0.6
		c0.4,0.6,0.1,1.4-0.5,1.8c-0.9,0.5-1-0.1-0.5-2c0.4-1.6,0.2-2.6-0.5-2.6s-0.9-1-0.5-2.7c0.4-1.5,0.3-2.9-0.4-3.3
		c-0.5-0.3-1.1-3.2-1.3-6.3c-0.1-3.1-0.5-5.7-0.9-5.7s-0.5-1.4-0.1-3.2c0.5-2.4,0.3-2.9-0.7-2.3s-1.1,0.2-0.6-1.9
		c0.4-1.8,0.3-2.5-0.3-2.2c-1.7,1.1-4.1-5-5.3-13.2c-1.3-9.7,0.5-20.4,5.3-30.2c4.6-9.4,17-21.5,26.9-26.3c11-5.4,17.6-6.8,34-7.4
		c14.1-0.5,14.7-0.5,21.5,2.2c14.4,5.8,20.3,11.2,17.6,16.3c-0.8,1.4-0.8,2.9-0.1,4.7c1.6,4.2,1.2,10.8-1.2,18.1
		c-2,6.1-2.3,9-2.3,24.4c0,16.3-0.2,17.9-2.4,22.8c-1.4,3.2-2.9,5.1-3.6,4.8c-0.7-0.2-2.3,1-3.5,2.7c-2,2.6-2.5,5.2-3.6,18.1
		c-2.4,27.6-1.8,49.5,1.7,62.3l1.1,4.1l3.3-2.2l3.2-2.2l27.9,5.7c32.1,6.5,39.6,8.8,47.9,14.4c8.8,5.9,10.1,8.8,10.9,24.8
		c0.5,11.5,1.8,23.7,4.2,39.6l0.7,4.4l-5.3-0.7l-5.3-0.7l0.7,27.3c0.3,15,1.3,34.5,2.1,43.3c0.8,8.8,1.5,16.3,1.5,16.8
		c0,0.4-53.5,0.7-119,0.7H8V357.6z M103.7,156.4c-0.3-0.3-1.2-0.4-1.9-0.1c-0.8,0.3-0.5,0.6,0.6,0.6
		C103.5,157,104.1,156.7,103.7,156.4z M128.7,154.3c-0.4-0.3-1-0.3-1.4,0c-0.3,0.4,0,0.7,0.7,0.7S129,154.7,128.7,154.3z
		 M125.7,152.3c-0.4-0.3-1-0.3-1.4,0c-0.3,0.4,0,0.7,0.7,0.7C125.7,153,126,152.7,125.7,152.3z M131.7,152.3c-0.4-0.3-1-0.3-1.4,0
		c-0.3,0.4,0,0.7,0.7,0.7S132,152.7,131.7,152.3z M87.7,148.8c-0.3-0.8-0.6-0.5-0.6,0.6c-0.1,1.1,0.2,1.7,0.5,1.3
		C87.9,150.4,88,149.5,87.7,148.8z M138.7,150.4c-0.3-0.4-0.2-1.5,0.3-2.5c0.7-1.2,0.7-2,0-2.4c-0.6-0.4-1-0.3-0.9,0.2
		c0.4,2.2-0.2,3.4-1.3,2.7c-0.9-0.5-0.9-0.2,0.1,0.9c0.7,0.9,1.6,1.7,1.9,1.7S139,150.7,138.7,150.4z M118.4,143.4
		c0.3-0.9,0.6-2.1,0.5-2.7c0-0.7-0.5-0.1-1,1.2c-0.6,1.5-1.5,2.1-2.4,1.7c-0.8-0.3-1.5-0.1-1.5,0.4
		C114,145.6,117.7,145.1,118.4,143.4z M90.1,142c3.1-2.6,1.5-2.6-1.8,0c-1.4,1.1-2.1,2-1.5,2C87.3,144,88.8,143.1,90.1,142z
		 M93.5,142.2c-0.3-0.3-1.1,0-1.8,0.7c-0.9,1-0.8,1.1,0.6,0.5C93.3,143.1,93.8,142.5,93.5,142.2z M103.7,142.6c2.3,0,4.5-0.5,5-1
		c0.4-0.4-1.7-0.5-4.7-0.2c-3,0.3-6.3,0.6-7.2,0.6c-1,0.1-1.8,0.5-1.8,1s1,0.6,2.3,0.3C98.5,143,101.4,142.7,103.7,142.6z
		 M95.4,139.4c0.3-0.8,0.2-1.2-0.4-0.9s-1,1-1,1.6C94,141.5,94.7,141.2,95.4,139.4z M89.4,137c-0.6-0.6-1-0.3-1,1s0.4,1.6,1,1
		C90.1,138.3,90.1,137.7,89.4,137z M119.7,137.3c-0.4-0.3-0.7,0-0.7,0.7s0.3,1,0.7,0.7C120,138.3,120,137.7,119.7,137.3z
		 M79.2,134.3c-0.5-2.4-0.6-2.5-1.2-0.8c-0.6,1.6,0.2,3.3,1.6,3.5C79.7,137,79.5,135.8,79.2,134.3z M107.2,134.3
		c7-1.7,8-2.7,7.1-6.2c-0.5-2.1-2.3-3-2.3-1.1c0,0.6-1.6,1-3.5,1c-2.6,0-3.3-0.3-2.9-1.5c0.4-0.8,0.1-1.5-0.5-1.5
		c-0.6,0-1.1,0.5-1.1,1c0,0.6-1.2,1-2.6,1s-2.3,0.4-2,0.9c0.6,1-1.4,2-5.4,2.8c-3.1,0.5-3.9,1.3-1.4,1.3c1.6,0,1.6,0.2,0.4,1
		c-0.9,0.5-1.9,0.5-2.5,0c-0.8-0.6-1.2-0.5-1.2,0.4c0,0.9,0.8,1.3,2.3,1c1.8-0.3,2.2-0.1,1.8,1C92.7,137.2,96.5,136.9,107.2,134.3z
		 M118.8,131.6c-1-0.7-1.8-1.8-1.8-2.5c0-0.6-0.5-1.1-1-1.1c-1.4,0,0.5,3.6,2.2,4.3C120.4,133.2,120.6,133,118.8,131.6z M93.8,129.6
		c1.2,0,2.2-0.2,2.2-0.6c0-0.4-1.5-0.6-3.3-0.6c-2,0.1-3.4,0.6-3.4,1.3c0,0.7,0.5,0.9,1.1,0.5C91,129.7,92.5,129.5,93.8,129.6z
		 M145.7,128.3c-0.4-0.3-0.7,0-0.7,0.7s0.3,1,0.7,0.7C146,129.3,146,128.7,145.7,128.3z M79.7,127.3c-0.4-0.3-0.7,0-0.7,0.7
		s0.3,1,0.7,0.7C80,128.3,80,127.7,79.7,127.3z M145.7,119.3c-0.4-0.3-0.7,0-0.7,0.7c0,0.7,0.3,1,0.7,0.7
		C146,120.3,146,119.7,145.7,119.3z M144.1,116.1c0.6,1,0.8,0.7,0.7-1.1c-0.2-1.6,0.2-2.4,1-2.2c0.6,0.1,1.2-0.2,1.2-0.8
		c0-0.5-1-0.8-2.1-0.7c-1.6,0.3-2.3,1.2-2.4,3.3c-0.2,1.6-0.1,2.3,0.2,1.5C143.2,115,143.4,115,144.1,116.1z M146.7,102.3
		c-0.4-0.3-0.7,0-0.7,0.7c0,0.7,0.3,1,0.7,0.7C147,103.3,147,102.7,146.7,102.3z M148.7,99.3c-0.4-0.3-0.7,0-0.7,0.7
		c0,0.7,0.3,1,0.7,0.7C149,100.3,149,99.7,148.7,99.3z M147.7,96.3c-0.4-0.3-0.7,0-0.7,0.7c0,0.7,0.3,1,0.7,0.7
		C148,97.3,148,96.7,147.7,96.3z M87.7,94.3C87.3,94,87,94.3,87,95c0,0.7,0.3,1,0.7,0.7C88,95.3,88,94.7,87.7,94.3z M151,93.5
		c0-0.7-3.9-4.5-4.5-4.5c-0.3,0,0.2,1.1,1.1,2.5C149,93.7,151,94.9,151,93.5z M86.7,90.3c-0.4-0.3-1-0.3-1.4,0
		C85,90.7,85.3,91,86,91C86.7,91,87,90.7,86.7,90.3z M120.5,87.2c-0.3-0.3-1.1,0-1.8,0.7c-0.9,1-0.8,1.1,0.6,0.5
		C120.3,88.1,120.8,87.5,120.5,87.2z M72.4,82.8c-0.6-0.9,5.7-3.9,6.8-3.2c1.2,0.7,0.2-2.6-1.2-3.9c-0.7-0.6-1-0.7-0.7-0.2
		c0.3,0.6-0.7,1.9-2.2,3c-3.6,2.3-5.5,5.2-3.5,5.2C72.3,83.7,72.7,83.3,72.4,82.8z M89.7,76.3C89.3,76,89,76.3,89,77
		c0,0.7,0.3,1,0.7,0.7C90,77.3,90,76.7,89.7,76.3z M86,76c0-0.5-0.4-1-1-1c-0.5,0-1,0.5-1,1c0,0.6,0.5,1,1,1C85.6,77,86,76.6,86,76z
		 M89.7,74.4c-0.3-0.3-1.2-0.4-1.9-0.1c-0.8,0.3-0.5,0.6,0.6,0.6C89.5,75,90.1,74.7,89.7,74.4z M122.9,70.4
		c-1.3-1.6-3.9-1.9-3.9-0.4c0,0.6,1,1,2.2,1c2.1,0,2.1,0,0.2,1.6c-1.8,1.4-1.8,1.5,0.4,0.4C123.7,72.1,123.9,71.6,122.9,70.4z
		 M113.7,71.3c-0.4-0.3-1-0.3-1.4,0c-0.3,0.4,0,0.7,0.7,0.7C113.7,72,114,71.7,113.7,71.3z"/>
	<path class="st1" d="M77.5,78c0.3-0.5,0.8-1,1.1-1c0.3,0,0.2,0.5-0.1,1c-0.3,0.6-0.8,1-1.1,1S77.2,78.6,77.5,78z"/>
</g>
<g id="layer103">
	<path class="st2" d="M8,357.6c0-7.2,8.3-81.8,9.5-85.3c0.2-0.7-0.9-1.3-2.8-1.5l-3.2-0.3l-0.8-8c-1.1-10.7-0.2-31.1,1.4-35.7
		c3.8-10.2,11.8-16.8,29.9-24.9c11.6-5.2,31-10.3,36.9-9.7l3.8,0.3l2.2-8.5c1.2-4.7,2.6-12.3,3-16.9c0.5-4.6,1.4-8.7,2.1-9.1
		c0.6-0.4,3-0.1,5.3,0.7c3.1,1.1,7.6,1.4,17.3,1.1c12.6-0.3,13.3-0.5,20-3.8c11.7-5.9,14.1-11.6,16.4-39.5
		c2.1-25.5,2.1-24.2,0.4-24.9c-1.2-0.5-1.5-0.2-1,0.9c0.3,1,0.2,1.3-0.5,1c-0.5-0.4-0.7-1.5-0.4-2.6c0.4-1.3,0.2-1.9-0.8-1.9
		c-1.1,0-1.7,1.7-2.2,6.3c-1.3,12.2-3.7,17.2-9.5,20.2c-3.4,1.8-35.8,4-44.7,3c-11.9-1.3-16.6-7.2-18.2-23.4
		c-0.9-8.6-2.1-13.3-2.1-8.3c0,1.1-0.5,2.4-1.1,2.8c-0.9,0.5-1-0.1-0.5-2c0.4-1.8,0.3-2.5-0.3-2.2c-1.7,1.1-4.1-5-5.3-13.2
		c-1.3-9.7,0.5-20.4,5.3-30.2c4.6-9.4,17-21.5,26.9-26.3c11-5.4,17.6-6.8,34-7.4c14.1-0.5,14.7-0.5,21.5,2.2
		c14.4,5.8,20.3,11.2,17.6,16.3c-0.8,1.4-0.8,2.9-0.1,4.7c1.6,4.2,1.2,10.8-1.2,18.1c-2,6.1-2.3,9-2.3,24.4
		c0,16.3-0.2,17.9-2.4,22.8c-1.4,3.2-2.9,5.1-3.6,4.8c-0.7-0.2-2.3,1-3.5,2.7c-2,2.6-2.5,5.2-3.6,18.1c-2.4,27.6-1.8,49.5,1.7,62.3
		l1.1,4.1l3.3-2.2l3.2-2.2l27.9,5.7c32.1,6.5,39.6,8.8,47.9,14.4c8.8,5.9,10.1,8.8,10.9,24.8c0.5,11.5,1.8,23.7,4.2,39.6l0.7,4.4
		l-5.3-0.7l-5.3-0.7l0.7,27.3c0.3,15,1.3,34.5,2.1,43.3c0.8,8.8,1.5,16.3,1.5,16.8c0,0.4-53.5,0.7-119,0.7H8V357.6z M157,98.6
		c0-0.2-0.8-1-1.7-1.7c-1.6-1.3-1.7-1.2-0.4,0.4C156.2,98.9,157,99.4,157,98.6z M88.7,94.9c1.8-3.4,1.6-7.4-0.3-9
		c-1.4-1.1-1.9-1-3.5,1c-2.1,2.6-2.5,8.1-0.7,9.9C85.8,98.4,87.2,97.8,88.7,94.9z M121.5,94c0.3-0.5,0-1-0.8-1c-0.8,0-2-0.6-2.6-1.4
		c-1-1.1-0.7-1.8,1.1-3.1l2.3-1.7l-2.2,0.7c-2.6,0.7-3.2-1.5-1-3.4c2-1.6,3.7,0.6,3.8,4.8l0.1,3.6l0.9-3.2c1.9-6.5-3.3-11.6-5.9-5.8
		c-1.3,2.8-1.6,7.4-0.6,9.9C117.3,95.2,120.5,95.6,121.5,94z M84.8,80.9c6.1-1.6,8.2-2.6,8.2-3.9c0-2.5-4.3-4.4-7.7-3.5
		c-1.5,0.5-3.4,0.7-4.2,0.6c-0.7-0.1-1,0.2-0.6,0.9c0.4,0.6,1.3,0.9,2.1,0.6c0.8-0.3,1.4-0.1,1.4,0.4c0,0.6,0.5,1,1.1,1
		c0.6,0,0.8-0.7,0.5-1.6c-0.5-1.2-0.2-1.5,1-1c0.8,0.3,2.2,0.6,3,0.6c0.8,0,1.4,0.8,1.4,1.8c0,1.4-0.2,1.5-1,0.2
		c-0.8-1.2-1-1.2-1-0.1c0,0.8-0.3,1.2-0.6,0.8c-0.4-0.3-2.2,0-4.1,0.8c-3.4,1.4-5.8,1.2-4.8-0.5c0.3-0.4-0.3-1.4-1.2-2.1
		c-0.9-0.8-1.4-0.9-1.1-0.4c0.4,0.6-0.6,1.9-2.1,3c-1.6,1-3.3,2.6-3.9,3.6c-1,1.5-0.7,1.7,2.1,1.4C75.1,83.3,80.2,82.2,84.8,80.9z
		 M120.7,75.9c3.4-0.6,6.1-1.4,5.8-1.9c-0.2-0.4-1.7-0.5-3.2-0.3c-2.4,0.4-2.6,0.3-1-0.7c1.4-0.9,1.6-1.5,0.6-2.6
		c-1.3-1.6-3.9-1.9-3.9-0.4c0,0.6,0.9,1,2,1h2l-2,2c-2.7,2.7-8.1,2.7-9.8-0.1c-1.2-1.8-1.1-2,0.5-1.5c1,0.3,2.9-0.1,4.3-0.9l2.5-1.4
		l-3.3-0.1c-6.1,0-9.2,3.6-6,6.8C110.7,77.3,112.6,77.3,120.7,75.9z"/>
	<path class="st2" d="M85.2,94.8C83.4,93,83.7,91,85.8,91c1.4,0,1.5-0.2,0.2-1c-1.3-0.8-1.2-1,0.3-1s1.7,0.6,1.3,3.1
		C87,95.9,86.7,96.3,85.2,94.8z"/>
	<path class="st2" d="M73.4,81.6c1.1-0.9,2.6-1.6,3.4-1.6c0.7,0,1.1-0.4,0.7-0.9c-0.3-0.5-0.2-1.2,0.3-1.5c0.4-0.2,0.8,0.4,0.9,1.4
		c0.1,1-0.6,2-1.5,2.3c-0.9,0.3-2.6,0.8-3.7,1.2C71.5,83.2,71.5,83.1,73.4,81.6z"/>
	<path class="st2" d="M98.5,157.4c-8-2.4-10.5-3.6-9.8-4.7c0.3-0.6,0.1-0.7-0.5-0.3c-1.4,0.8-3.1-3-2.9-6c0.1-1.3-0.5-1.9-1.8-1.9
		c-3.3-0.1-4.5-1.4-4-4.3c0.5-2.6,0.5-2.6-0.5-0.3c-0.8,1.7-0.7,2.8,0.2,4c1.2,1.4,1.1,1.4-0.4,0.3c-1.2-1-1.6-2.3-1.2-4.5
		c0.4-2.2,0.3-2.8-0.4-1.9c-0.7,1.1-1,0.8-1.4-1.2c-0.3-1.4-0.1-2.3,0.3-2c0.5,0.3,0.9-1.3,0.9-3.4c0-2.6-0.5-4.2-1.5-4.6
		c-0.8-0.3-1.5-1.3-1.5-2.1c0-1,0.5-1.3,1.2-0.9c0.8,0.5,0.9-0.3,0.5-2.9c-0.3-2.1-0.2-3.7,0.4-3.7c0.8,0,1.3,1.5,1,3.3
		c-0.2,1.1,0.5,0.8,1.8-0.7c1-1.2,0.7-1.8-1.9-3.1c-1.8-0.9-2.9-1.2-2.6-0.7c0.4,0.6,0.1,1.4-0.5,1.8c-0.9,0.5-1-0.1-0.5-2
		c0.4-1.5,0.2-2.6-0.4-2.6c-1.4,0-1.3-2.7,0.1-3.6c0.7-0.4,1-0.1,0.7,0.7c-0.7,2,6,7.8,10.2,8.9c8.7,2.3,41,1.3,49.9-1.6
		c2.4-0.7,4.9-1.1,5.5-0.7c0.6,0.3,0.8,0.3,0.4-0.2c-0.4-0.4,0.2-1.6,1.4-2.6c2.7-2.4,3.1-2.4,1.8,0.2c-0.7,1.1-0.9,2.3-0.6,2.7
		c0.3,0.3,0.6-0.1,0.6-0.9c0-1.2,0.2-1.1,1,0.1c0.8,1.2,1,1.1,0.8-0.5c-0.2-1.1,0.2-2.2,0.7-2.5c1.3-0.7,1.9,13,0.7,14.2
		c-0.6,0.6-0.7,2.7-0.5,4.9c0.3,2.1,0.2,3.9-0.3,3.9s-1,1.6-1.2,3.6c-0.3,4.4-1,5.7-2.8,5c-0.8-0.3-1.1,0-0.8,0.9
		c0.7,1.6-3,6.8-4,5.8c-0.3-0.3-0.6-0.1-0.6,0.5c0,0.7-0.7,1.2-1.5,1.2s-1.5,0.5-1.5,1.1c0,0.8-1.1,0.9-3.2,0.5
		c-2.1-0.4-2.8-0.3-1.9,0.3c2.3,1.5-8.8,4.1-17.1,4C106.8,158.9,101.3,158.2,98.5,157.4z M103.7,156.4c-0.3-0.3-1.2-0.4-1.9-0.1
		c-0.8,0.3-0.5,0.6,0.6,0.6C103.5,157,104.1,156.7,103.7,156.4z M125.7,152.3c-0.4-0.3-1-0.3-1.4,0c-0.3,0.4,0,0.7,0.7,0.7
		C125.7,153,126,152.7,125.7,152.3z M131.7,152.3c-0.4-0.3-1-0.3-1.4,0c-0.3,0.4,0,0.7,0.7,0.7S132,152.7,131.7,152.3z M87.7,148.8
		c-0.3-0.8-0.6-0.5-0.6,0.6c-0.1,1.1,0.2,1.7,0.5,1.3C87.9,150.4,88,149.5,87.7,148.8z M139,148.1c0.7-1.4,0.7-2.2,0-2.6
		c-0.6-0.4-1-0.3-0.9,0.2c0.4,2.1-0.2,3.4-1.3,2.7c-0.7-0.4-0.8-0.3-0.4,0.4C137.4,150.4,137.8,150.3,139,148.1z M118.4,143.4
		c0.3-0.9,0.6-2.1,0.5-2.7c0-0.7-0.5-0.1-1,1.2c-0.6,1.5-1.5,2.1-2.4,1.7c-0.8-0.3-1.5-0.1-1.5,0.4
		C114,145.6,117.7,145.1,118.4,143.4z M90.1,142c3.1-2.6,1.5-2.6-1.8,0c-1.4,1.1-2.1,2-1.5,2C87.3,144,88.8,143.1,90.1,142z
		 M93.5,142.2c-0.3-0.3-1.1,0-1.8,0.7c-0.9,1-0.8,1.1,0.6,0.5C93.3,143.1,93.8,142.5,93.5,142.2z M100.4,142.4
		c1.3-0.5,1.7-0.4,1.3,0.3c-0.5,0.8,0.4,0.8,2.9,0.3c5.2-1.2,5.4-2,0.4-2c-2.6,0-5.1-0.7-6.1-1.6c-2-1.8-4.9-1.3-4.8,0.8
		c0,1,0.2,1,0.6,0.1c0.3-1,0.8-1,1.9,0.1c1.8,1.9,1.8,2.7-0.1,2c-0.8-0.4-1.5-0.1-1.5,0.4C95,143.9,97,143.8,100.4,142.4z
		 M115.8,134.9l-0.3-3.4l-1.8,3.9c-0.9,2.1-1.4,4.2-1.1,4.7c0.3,0.5-0.2,0.6-1.1,0.3c-1.1-0.5-1.4-0.2-0.9,1.1
		c0.6,1.5,1,1.4,3.1-0.8C115.6,138.9,116.1,137.5,115.8,134.9z M89.4,137c-0.6-0.6-1-0.3-1,1s0.4,1.6,1,1
		C90.1,138.3,90.1,137.7,89.4,137z M119.7,137.3c-0.4-0.3-0.7,0-0.7,0.7s0.3,1,0.7,0.7C120,138.3,120,137.7,119.7,137.3z
		 M79.2,134.3c-0.5-2.4-0.6-2.5-1.2-0.8c-0.6,1.6,0.2,3.3,1.6,3.5C79.7,137,79.5,135.8,79.2,134.3z M107.2,134.3
		c7-1.7,8-2.7,7.1-6.2c-0.5-2.1-2.3-3-2.3-1.1c0,0.6-1.6,1-3.5,1c-2.6,0-3.3-0.3-2.9-1.5c0.4-0.8,0.1-1.5-0.5-1.5
		c-0.6,0-1.1,0.5-1.1,1c0,0.6-1.2,1-2.6,1s-2.3,0.4-2,0.9c0.6,1-1.4,2-5.4,2.8c-3.1,0.5-3.9,1.3-1.4,1.3c1.6,0,1.6,0.2,0.4,1
		c-0.9,0.5-1.9,0.5-2.5,0c-0.8-0.6-1.2-0.5-1.2,0.4c0,0.9,0.8,1.3,2.3,1c1.8-0.3,2.2-0.1,1.8,1C92.7,137.2,96.5,136.9,107.2,134.3z
		 M118.8,131.6c-1-0.7-1.8-1.8-1.8-2.5c0-0.6-0.5-1.1-1-1.1c-1.4,0,0.5,3.6,2.2,4.3C120.4,133.2,120.6,133,118.8,131.6z M93.8,129.6
		c1.2,0,2.2-0.2,2.2-0.6c0-0.4-1.5-0.6-3.3-0.6c-2,0.1-3.4,0.6-3.4,1.3c0,0.7,0.5,0.9,1.1,0.5C91,129.7,92.5,129.5,93.8,129.6z
		 M79.7,127.3c-0.4-0.3-0.7,0-0.7,0.7s0.3,1,0.7,0.7C80,128.3,80,127.7,79.7,127.3z M145.7,119.3c-0.4-0.3-0.7,0-0.7,0.7
		c0,0.7,0.3,1,0.7,0.7C146,120.3,146,119.7,145.7,119.3z"/>
	<path class="st2" d="M88.5,156c-0.3-0.5-0.2-1,0.4-1c0.5,0,1.3,0.5,1.6,1c0.3,0.6,0.2,1-0.4,1C89.6,157,88.8,156.6,88.5,156z"/>
	<path class="st2" d="M84.1,152.6c-1.9-2.1-2-2.4-0.6-3c1.1-0.4,1.5-0.2,1.2,0.6c-0.2,0.7,0.3,1.8,1.2,2.5c0.9,0.6,1.3,1.4,1,1.7
		C86.6,154.7,85.3,153.9,84.1,152.6z"/>
	<path class="st2" d="M79.6,147.3c-0.3-0.8-0.2-1.1,0.3-0.8s1.2,0.1,1.6-0.5c0.8-1.4,3.5-1.3,3.5,0.1c0,0.6-0.7,0.9-1.4,0.6
		c-1-0.4-1.3-0.1-1,0.7c0.3,0.7-0.2,1.3-1,1.3C80.8,148.7,79.8,148,79.6,147.3z"/>
	<path class="st2" d="M75.1,129.4c0-1.1,0.3-1.4,0.6-0.6c0.3,0.7,0.2,1.6-0.1,1.9C75.3,131.1,75,130.5,75.1,129.4z"/>
	<path class="st2" d="M143.7,111.4c-0.3-0.3,0.1-2.9,0.9-5.7c0.8-2.9,1.4-6.3,1.4-7.7c0-1.8,0.3-2.1,0.9-1.1c0.7,1.1,0.9,1.1,1.4,0
		c0.6-1.5-0.1,8.1-0.9,11.7C147,110.7,144.7,112.4,143.7,111.4z M146.7,102.3c-0.4-0.3-0.7,0-0.7,0.7c0,0.7,0.3,1,0.7,0.7
		C147,103.3,147,102.7,146.7,102.3z"/>
	<path class="st2" d="M71,104c0-0.7,0.3-1,0.7-0.7c0.3,0.4,0.3,1,0,1.4C71.3,105,71,104.7,71,104z"/>
	<path class="st2" d="M70,97c0-0.7,0.3-1,0.7-0.7c0.3,0.4,0.3,1,0,1.4C70.3,98,70,97.7,70,97z"/>
</g>
<g id="layer104">
	<path class="st3" d="M8.4,358.6c-0.9-2.4,7.4-81.4,9.1-86.3c0.2-0.7-0.9-1.3-2.8-1.5l-3.2-0.3l-0.8-8c-1.1-10.7-0.2-31.1,1.4-35.7
		c3.8-10.2,11.8-16.8,29.9-24.9c11.6-5.2,31-10.3,36.9-9.7l3.8,0.3l2.2-8.5c1.2-4.7,2.6-12.3,3-16.9c0.5-4.6,1.4-8.7,2.1-9.1
		c0.6-0.4,3-0.1,5.3,0.7c3.1,1.1,7.6,1.4,17.3,1.1c12.6-0.3,13.3-0.5,20-3.8c11.8-6,14.2-11.7,16.4-40c0.6-8,1.5-16.2,2-18.2
		c0.6-3,0.4-4.2-1.1-5.9c-1.1-1.2-1.9-2.6-1.9-3.1c0-0.4-0.6-0.8-1.3-0.8c-1,0-1.7,2.7-2.5,9.1c-1.9,15.6-5.7,19.3-21,20.5
		c-5.3,0.4-16,0.8-23.7,0.8c-12.4,0.1-14.4-0.1-17.5-2c-6.7-3.9-9.5-10.9-10.2-25.3l-0.3-6.3l6-2c3.3-1,8.1-2.4,10.8-2.9
		c3.6-0.8,4.7-1.5,4.7-3c0-3.1-3.9-4.3-9.8-3c-4.2,0.9-6,2-10.5,6.7l-5.5,5.7l-1.6-3.1c-0.9-1.8-2.1-6.7-2.8-11
		c-1.3-9.7,0.5-20.4,5.3-30.2c4.6-9.4,17-21.5,26.9-26.3c11-5.4,17.6-6.8,34-7.4c14.1-0.5,14.7-0.5,21.5,2.2
		c14.4,5.8,20.3,11.2,17.6,16.3c-0.8,1.4-0.8,2.9-0.1,4.7c1.6,4.2,1.2,10.8-1.2,18.1c-2,6.1-2.3,9-2.3,24.4
		c0,16.3-0.2,17.9-2.4,22.8c-1.4,3.2-2.9,5.1-3.6,4.8c-0.7-0.2-2.3,1-3.5,2.7c-2,2.6-2.5,5.2-3.6,18.1c-2.4,27.6-1.8,49.5,1.7,62.3
		l1.1,4.1l3.3-2.2l3.2-2.2l27.9,5.7c32.1,6.5,39.6,8.8,47.9,14.4c8.8,5.9,10.1,8.8,10.9,24.8c0.5,11.5,1.8,23.7,4.2,39.6l0.7,4.4
		l-5.3-0.7l-5.3-0.7l0.7,27.3c0.3,15,1.3,34.5,2.1,43.2c0.8,8.8,1.2,16.3,0.9,16.8c-0.3,0.4-53.6,0.8-118.5,0.8
		C26.6,360,8.8,359.8,8.4,358.6z M157,98.6c0-0.2-0.8-1-1.7-1.7c-1.6-1.3-1.7-1.2-0.4,0.4C156.2,98.9,157,99.4,157,98.6z M88.7,94.9
		c1.8-3.4,1.6-7.4-0.3-9c-1.4-1.1-1.9-1-3.5,1c-2.1,2.6-2.5,8.1-0.7,9.9C85.8,98.4,87.2,97.8,88.7,94.9z M121.3,93.2
		c-0.2-0.6,0.1-1.2,0.6-1.2c1.4,0,2.1-5.8,1.1-8.5c-2-5.3-7-1.4-7,5.5c0,4.4,1,6.1,3.4,5.8C120.5,94.6,121.4,93.9,121.3,93.2z
		 M144,84.6c0-0.2-0.8-1-1.7-1.7c-1.6-1.3-1.7-1.2-0.4,0.4C143.2,84.9,144,85.4,144,84.6z M140,80.6c0-0.3-0.4-0.8-1-1.1
		c-0.5-0.3-1-0.1-1,0.4c0,0.6,0.5,1.1,1,1.1C139.6,81,140,80.8,140,80.6z M136,77c-0.8-0.5-1.7-0.7-1.9-0.4
		c-0.3,0.3,0.1,0.9,0.9,1.4s1.7,0.7,1.9,0.4C137.2,78.1,136.8,77.5,136,77z M122.3,75.6c7.4-1.4,9-2.2,6.1-3.2
		c-1-0.3-3.7-1.4-5.9-2.4c-5.8-2.7-14.5-1-14.5,2.9C108,77.2,111.2,77.8,122.3,75.6z"/>
</g>
<g id="layer105">
	<path class="st4" d="M8.4,358.6c-0.9-2.4,7.4-81.4,9.1-86.3c0.2-0.7-0.9-1.3-2.8-1.5c-3.2-0.3-3.2-0.4-3.8-6.8
		c-1-10.4-1-26.3,0.1-31.9c2.4-12.6,8.6-19.3,25.5-27.6c6.4-3.2,12.6-5.8,13.9-5.9c1.3,0,2.2-0.5,1.8-1c-0.3-0.5,0.5-0.7,1.6-0.4
		c1.4,0.4,2,0.2,1.6-0.4c-0.5-0.7,0.4-0.9,2.4-0.6c1.7,0.2,2.9,0.1,2.6-0.4c-0.7-1.1,0.3-1,2.6,0.2c1.6,0.9,1.8,0.8,1.3-0.6
		c-0.5-1.4-0.2-1.6,2.1-1c1.7,0.4,2.5,0.3,2.2-0.3c-0.8-1.2,7.2-2.5,11.2-1.9c2.8,0.4,2.9,0.3,5.1-8.1c1.2-4.8,2.6-12.4,3-17
		c0.5-4.6,1.4-8.7,2.1-9.1c0.6-0.4,3-0.1,5.3,0.7c3.1,1.1,7.6,1.4,17.2,1.1c12-0.3,13.5-0.6,19.6-3.5c11.1-5.1,14-10.9,15.9-30.6
		c1.9-20.3,3.1-30.1,3.5-30.6c0.3-0.2,1.9,0.8,3.5,2.4l3,2.8l-2.7,3.5c-2.4,3.2-2.7,4.8-3.9,18.6c-2.4,27.6-1.8,49.5,1.7,62.3
		l1.1,4.1l3.3-2.2c3-2.1,3.8-2.2,8.4-1.3c2.7,0.6,4.8,1.5,4.5,1.9c-0.3,0.5-1.5,0.6-2.7,0.3c-1.2-0.2-1.6-0.2-0.9,0.1
		c0.6,0.3,1,0.9,0.7,1.4s1.4,0.1,3.7-0.8c3.1-1.2,4.3-1.3,4.6-0.4c0.2,0.7,0.8,1,1.3,0.6c0.9-0.5,10.9,1.1,13.9,2.3
		c0.8,0.3,1.8,0.6,2.2,0.5c1.6-0.4,20.9,4,28.7,6.5c10.2,3.2,19.8,9.4,22.7,14.6c1.7,3.1,2.2,6.3,2.8,17c0.5,11.5,1.8,23.7,4.2,39.6
		l0.7,4.4l-5.3-0.7l-5.3-0.7l0.7,27.3c0.3,15,1.3,34.5,2.1,43.3c0.8,8.8,1.1,16.3,0.6,16.8c-0.4,0.4-9,0.6-19.2,0.5l-18.4-0.3
		l0.3-2.8c0.3-3-1.4-6.1-2.9-5.1c-0.5,0.3-0.6,2.3-0.3,4.4l0.7,4h-98.2C23.8,360,8.8,359.8,8.4,358.6z M44.7,350.3
		c-0.4-0.3-0.7,0-0.7,0.7c0,0.7,0.3,1,0.7,0.7C45,351.3,45,350.7,44.7,350.3z M208.3,334.3c0.3-6.9,0.1-12.5-0.4-12.9
		c-0.5-0.3-0.9,1.5-0.9,3.9c0,2.4-0.3,8.6-0.6,13.8c-0.4,6.3-0.3,9.1,0.3,8.4C207.3,347,208,341,208.3,334.3z M45,328.9
		c0-11.1-0.3-16.8-1-16.4c-0.6,0.4-1,7-1,16.4c0,13.9,0.3,17.1,1.7,17.1C44.9,346,45,338.3,45,328.9z M45,287.9c0-3.1-0.4-4.8-1-4.4
		c-1.7,1.1-1.2,9.5,0.7,9.5C44.9,293,45,290.7,45,287.9z M210,280.9c0-6.6-0.4-11.8-0.9-11.5c-1.2,0.8-1.4,23.6-0.1,23.6
		C209.6,293,210,288.6,210,280.9z M45,278.4c0-2.1-0.4-3.3-1-2.9c-1.7,1-1.1,6.5,0.7,6.5C44.9,282,45,280.4,45,278.4z M44.7,270.3
		c-0.4-0.3-0.7,0-0.7,0.7c0,0.7,0.3,1,0.7,0.7C45,271.3,45,270.7,44.7,270.3z M48,265.6c0-0.3-0.4-0.8-1-1.1c-0.5-0.3-1-0.1-1,0.4
		c0,0.6,0.5,1.1,1,1.1C47.6,266,48,265.8,48,265.6z M204.7,196.3c-0.4-0.3-1-0.3-1.4,0c-0.3,0.4,0,0.7,0.7,0.7
		S205,196.7,204.7,196.3z M211.7,196.3c-0.4-0.3-1-0.3-1.4,0c-0.3,0.4,0,0.7,0.7,0.7S212,196.7,211.7,196.3z M208.7,195.3
		c-0.4-0.3-1-0.3-1.4,0c-0.3,0.4,0,0.7,0.7,0.7S209,195.7,208.7,195.3z M199.7,194.3c-0.4-0.3-1-0.3-1.4,0c-0.3,0.4,0,0.7,0.7,0.7
		S200,194.7,199.7,194.3z M180.7,189.4c-0.3-0.3-1.2-0.4-1.9-0.1c-0.8,0.3-0.5,0.6,0.6,0.6C180.5,190,181.1,189.7,180.7,189.4z"/>
	<path class="st4" d="M86.8,118.1c-10-2.1-14.2-9.6-15-27l-0.3-6.3l6-2c3.3-1,8.1-2.4,10.8-2.9c3.6-0.8,4.7-1.5,4.7-3
		c0-3-3.9-4.3-9.6-3.1c-4.9,1.1-6.9,0.8-5.9-0.9c0.8-1.2-0.6-1.1-2.5,0.1c-1.3,0.8-1.2,1.1,0.4,2.3c1.3,1,1.5,1.6,0.8,2.1
		C75.5,77.8,75,77.6,75,77c0-1.5-2.5-0.7-2.6,0.8c-0.1,0.7-0.2,1.6-0.3,2.2c0,0.5-0.4,0.9-0.8,0.8c-1.7-0.4-5.3,1.4-4.7,2.4
		c0.4,0.6,1,0.5,1.5-0.3S69,82,69,82.5c0,0.6-0.4,1.6-0.9,2.4c-0.7,1.1-1.3,0.6-2.6-1.9c-0.9-1.8-1.5-4.1-1.2-5.1
		c0.3-1.2,0.1-1.7-0.5-1.3c-0.7,0.5-0.8-1.2-0.4-5.2c0.5-4.2,0.4-5.5-0.3-4.4c-0.8,1.1-1.1,0.6-1.1-2.3c0-2.4,0.4-3.6,1.1-3.2
		c0.7,0.5,0.8-0.4,0.4-2.8c-0.4-2-0.3-3.7,0.4-4.1c0.5-0.4,0.7-1.4,0.4-2.3c-0.5-1.2-0.3-1.4,0.7-0.8c1,0.6,1.2,0.4,0.7-0.8
		c-0.8-2.2,1.2-7.9,2.6-7c0.6,0.4,0.8,0,0.4-0.9c-0.3-0.9,0.1-2.4,0.8-3.5c1.3-1.7,1.4-1.6,1,0.6c-0.2,1.3,0,3.1,0.5,4
		c0.7,1.2,0.8,0.7,0.5-1.6c-0.2-1.9,0.1-3.3,0.7-3.3c0.7,0,0.7-0.4-0.1-1.3c-0.8-1-0.3-2.2,2-4.8c1.7-1.9,2.8-2.9,2.5-2.3
		c-0.3,0.6,0.1,1.1,0.7,1.1c0.7,0,1.4-0.9,1.4-2c0.3-2.9,6.3-8.9,7.8-7.7c1.3,1.1,2.5,0.3,2.5-1.4c0-0.6-0.5-0.4-1,0.4
		c-0.5,0.8-1,1-1,0.4c0-2,4.5-4.4,6.1-3.2c1.1,0.8,1,0.9-0.4,0.4c-1-0.3-1.6-0.2-1.2,0.3c0.3,0.5-0.1,1.1-0.7,1.4
		c-0.7,0.2-0.1,0.4,1.4,0.3c1.4,0,2.4-0.3,2.2-0.5s0.2-1.1,0.9-1.9c0.8-1.1,0.8-1.4,0-0.9c-0.6,0.4-1.4,0.3-1.7-0.1
		c-0.9-1.5,4-3.2,5.3-1.9c0.9,0.9,1.1,0.8,0.6-0.4c-0.4-1.2,0.1-1.8,1.8-2.3c1.4-0.3,3.3-0.9,4.4-1.2c1.5-0.5,1.5-0.4,0.3,0.5
		c-1.1,0.8-1.1,1.1-0.2,1.1c0.7,0,1.5-0.6,1.8-1.4c0.4-1,1.6-1.3,4.2-0.9c2.9,0.4,3.4,0.2,2.2-0.7c-1.2-0.9-0.7-1,2.3-0.5
		c2.5,0.4,3.7,0.2,3.7-0.6c0-1.2,12.4-0.8,16.5,0.6c1.6,0.6,1.7,0.5,0.5-0.4c-2-1.5,3.7-1.4,9.9,0.2c4,0.9,4.2,1.2,2.5,2.4
		c-2.1,1.5-1.1,1.7,1.7,0.3c1.3-0.7,1.9-0.7,1.9,0c0,0.5-0.5,1-1.2,1c-0.6,0-0.8,0.3-0.5,0.6c0.4,0.4,1.3,0.1,2.2-0.6
		c1.6-1.3,2.1,0,0.6,1.5c-0.6,0.6-0.1,1.1,1.5,1.1c1.3,0.1,2.4-0.2,2.4-0.8c0-0.5-0.4-0.6-1-0.3c-0.5,0.3-1,0.1-1-0.5
		c0-0.7,0.3-1,0.8-0.8c5,2.5,6.2,3.3,5.9,4.2c-0.3,0.6-1,1-1.6,0.9c-1.6-0.4-1.4,0.2,0.6,1.8c1.4,1.2,1.6,1.2,0.9,0
		c-0.6-0.9-0.5-1.2,0.5-0.9c0.8,0.3,1.3,1.4,1.1,2.4c-0.2,1.5-0.1,1.6,0.7,0.4c0.7-0.9,0.6-1.9-0.1-2.7c-0.7-0.8-0.7-1.3,0-1.3
		c0.5,0,1.5,0.7,2.2,1.5c1.5,1.8,2.3,6.8,1,6c-0.5-0.3-0.7-1.2-0.3-2c0.3-0.8,0-1.5-0.5-1.5c-0.6,0-0.9,1-0.6,2.2
		c2,8.9,2.4,17.6,1.2,22.6c-0.6,2.3-1.4,4.2-1.9,4.2s-0.6,0.7-0.3,1.5c0.4,0.9,0,1.5-1,1.5c-0.9,0-1.6,0.5-1.6,1.1
		c0,0.5,0.5,0.7,1,0.4c0.6-0.3,1,0.3,1,1.4c0,1.2-0.3,2.1-0.7,2.1c-0.5,0-0.8,4-0.8,8.9s0.3,8.4,0.7,7.8c1.2-1.9,0.9,11-0.3,15.9
		c-0.9,3.3-1.4,4.2-2.1,3.2c-0.7-0.9-0.8-0.7-0.5,1c0.3,1.2,0.1,2.2-0.4,2.2s-0.8,0.3-0.8,0.8c0.3,1.9-0.2,3.2-1.3,3.2
		c-0.6,0-0.8-0.3-0.5-0.7c0.4-0.3-0.1-1.6-1-2.7c-1.7-2-1.7-2,0.1-0.6c1.8,1.3,1.9,1.3,1.1,0c-1.3-2.4-4.8-6-5.7-6
		c-0.5,0-0.6,0.5-0.3,1c0.3,0.6,0.2,1-0.3,1c-1.3,0-2.2-4-1.6-7l0.5-2.5L150,87c-0.9,2-1.3,2.2-2,1c-1.6-2.6-2.7,0.1-3.9,9.4
		c-1.8,14.5-5.8,18.9-18.3,19.9C112.2,118.5,90.5,118.9,86.8,118.1z M88.7,94.9c1.8-3.4,1.6-7.4-0.3-9c-1.4-1.1-1.9-1-3.5,1
		c-2.1,2.6-2.5,8.1-0.7,9.9C85.8,98.4,87.2,97.8,88.7,94.9z M121.3,93.2c-0.2-0.6,0.1-1.2,0.6-1.2c1.4,0,2.1-5.8,1.1-8.5
		c-2-5.3-7-1.4-7,5.5c0,4.4,1,6.1,3.4,5.8C120.5,94.6,121.4,93.9,121.3,93.2z M162.7,91.3c-0.4-0.3-0.7,0-0.7,0.7
		c0,0.7,0.3,1,0.7,0.7C163,92.3,163,91.7,162.7,91.3z M158.1,88.7c-1-0.9-1.1-0.8-0.5,0.6c0.3,1,0.9,1.5,1.2,1.2
		C159.1,90.2,158.8,89.4,158.1,88.7z M144.8,83.6c-1-0.7-1.4-1.7-1-2.1c0.4-0.5,0.1-0.5-0.5-0.1c-0.8,0.4-1.3,0.2-1.3-0.5
		s-0.3-1-0.6-0.7c-0.7,0.8-5.1-3.5-4.7-4.4c0.2-0.4-0.4-0.5-1.3-0.1c-1.3,0.5-1.5,0.3-0.9-0.7c0.5-0.8,0.4-1.1-0.3-0.6
		c-0.6,0.4-0.9,1.2-0.6,1.9c0.8,1.8,9.7,8.6,11.4,8.6C146.2,84.9,146.2,84.7,144.8,83.6z M163.7,80.3c-0.4-0.3-0.7,0-0.7,0.7
		c0,0.7,0.3,1,0.7,0.7C164,81.3,164,80.7,163.7,80.3z M120.6,75.9c3.2-0.6,7-1.2,8.4-1.3c3.5-0.2,3.7-2,0.3-2.7
		c-1.6-0.3-4.8-2-7.2-3.7c-4.5-3.3-7.1-4-7.1-2.1c0,0.6,0.7,0.8,1.6,0.5c1-0.4,1.4-0.1,1.2,0.6c-0.3,0.7-2,1.5-3.9,1.9
		c-4.5,0.7-5.9,1.6-5.9,3.8C108,77,110.9,77.7,120.6,75.9z M82,71c0-0.5-0.4-1-1-1c-0.5,0-1,0.5-1,1c0,0.6,0.5,1,1,1
		C81.6,72,82,71.6,82,71z M83.5,69c-0.4-0.7,0.3-0.9,1.9-0.6c1.4,0.3,2.6,0.1,2.6-0.3c0-0.3,0.9-0.7,2-0.8s2.7-0.9,3.6-1.7
		c1.4-1.5,1.4-1.6-0.3-1.3c-1,0.2-3.2,1.1-4.9,2s-3.4,1.4-3.7,1.1c-0.9-0.9-2.8,0.6-2.2,1.7c0.4,0.5,0.8,0.9,1.1,0.9
		C83.9,70,83.8,69.5,83.5,69z M81.7,65.5c0-0.8-0.4-1.2-0.9-0.9c-0.5,0.3-0.6,1-0.3,1.5C81.4,67.4,81.7,67.2,81.7,65.5z M110.4,63.8
		c-0.3-0.4-2.2-0.8-4.2-0.8c-2.8,0-3.3,0.3-2.2,1C105.8,65.1,111.1,65,110.4,63.8z M67.7,47.3C67.3,47,67,47.3,67,48s0.3,1,0.7,0.7
		C68,48.3,68,47.7,67.7,47.3z M71.7,47.3C71.3,47,71,47.3,71,48s0.3,1,0.7,0.7C72,48.3,72,47.7,71.7,47.3z M165.1,29.7
		c-1-0.9-1.1-0.8-0.5,0.6c0.3,1,0.9,1.5,1.2,1.2C166.1,31.2,165.8,30.4,165.1,29.7z M85.7,30.3c-0.4-0.3-1-0.3-1.4,0
		C84,30.7,84.3,31,85,31C85.7,31,86,30.7,85.7,30.3z M83.9,26.4c0.5,0.4,0.9-0.3,0.8-1.4c-0.1-1.1-0.2-2-0.2-2
		c-0.1,0-1.2,1.2-2.6,2.7c-1.3,1.5-1.6,2.2-0.7,1.4C82.1,26.4,83.4,26.1,83.9,26.4z M165.7,26.3c-0.4-0.3-0.7,0-0.7,0.7
		c0,0.7,0.3,1,0.7,0.7C166,27.3,166,26.7,165.7,26.3z M88,25.6c0-0.3-0.5-0.8-1.2-1.2c-0.7-0.4-0.8-0.3-0.4,0.4
		C87.1,26,88,26.4,88,25.6z M104.7,14.3c-0.4-0.3-1-0.3-1.4,0c-0.3,0.4,0,0.7,0.7,0.7C104.7,15,105,14.7,104.7,14.3z M127.7,13.3
		c-0.4-0.3-1-0.3-1.4,0c-0.3,0.4,0,0.7,0.7,0.7C127.7,14,128,13.7,127.7,13.3z M111.7,12.4c-0.3-0.3-1.2-0.4-1.9-0.1
		c-0.8,0.3-0.5,0.6,0.6,0.6C111.5,13,112.1,12.7,111.7,12.4z M124.3,9.3c-0.7-0.2-1.9-0.2-2.5,0c-0.7,0.3-0.2,0.5,1.2,0.5
		S124.9,9.6,124.3,9.3z"/>
</g>
<g id="layer106">
	<path class="st5" d="M8.4,358.6c-0.9-2.4,7.4-81.3,9.1-86.3c0.2-0.7-0.9-1.3-2.8-1.5c-3.2-0.3-3.2-0.4-3.8-6.8
		c-1-10.4-1-26.3,0.1-31.9c2.5-13.5,10-20.9,30.4-30l6.8-3.1l-0.6,2.7c-1.8,7.8-3.7,63.2-2.2,65.2c0.7,0.9,0.5,1.7-0.7,2.6
		c-1.5,1.1-1.7,5.1-1.9,45.6l-0.3,44.4l-16.8,0.3C11.9,360,8.9,359.8,8.4,358.6z"/>
	<path class="st5" d="M207.8,359.3c-0.4-0.9,0.7-39.2,2-71.3c0.7-15.7,0.6-19.7-0.5-20.3c-0.9-0.5-1-1.4-0.4-2.5
		c0.7-1.4,2.3-41,2.5-61.7c0.1-2.7,0.6-5.8,1.1-6.8c1-1.6,1.6-1.6,9.5,1c10.2,3.3,19.7,9.4,22.6,14.6c1.7,3.1,2.2,6.3,2.8,17
		c0.5,11.5,1.8,23.7,4.2,39.6l0.7,4.4l-5.3-0.7l-5.3-0.7l0.7,27.3c0.3,15,1.3,34.5,2.1,43.2c0.8,8.8,1.2,16.3,0.9,16.8
		C244.8,360.2,208.3,360.3,207.8,359.3z M223.7,269.4c-0.3-0.3-1.2-0.4-1.9-0.1c-0.8,0.3-0.5,0.6,0.6,0.6
		C223.5,270,224.1,269.7,223.7,269.4z"/>
	<path class="st5" d="M101,212.4c-2.5-0.9-4.9-2-5.4-2.5c-0.6-0.5-2-0.9-3.2-0.9s-3.3-0.9-4.7-2c-1.4-1.1-3.2-2-4.1-2
		c-0.9,0-1.9-0.6-2.2-1.3c-0.2-0.7-2.3-2.4-4.5-3.7c-3.2-2-3.9-2.9-3.4-4.7c0.3-1.2,0-2.4-0.8-2.7c-0.6-0.3,1.3-0.5,4.4-0.3l5.6,0.2
		l2.2-8.5c1.2-4.7,2.6-12.3,3-16.9c0.5-4.6,1.4-8.7,2.1-9.1c0.6-0.4,3-0.1,5.3,0.7c3.1,1.1,7.6,1.4,17.3,1.1
		c12.6-0.3,13.3-0.5,20-3.8c11.7-5.9,14.1-11.7,16.4-39.5c1.8-23,2.1-23.9,6.4-18.2l2,2.7l-2.4,3.2c-2,2.8-2.5,5.1-3.6,18.2
		c-2.4,27.6-1.8,49.5,1.7,62.3l1.1,4.1l3.4-2.3c4.5-3.1,8.1-2.4,7.9,1.5c-0.2,3-5.8,10.3-8.3,10.6c-0.8,0.2-2.1,1.2-2.9,2.3
		c-0.8,1.2-2.2,2.1-3.1,2.1c-0.9,0-2.8,1.2-4.1,2.5c-1.3,1.4-3.1,2.5-4,2.5c-0.9,0-2.7,0.8-4.1,1.7c-3.3,2.3-9.6,3.4-22.5,3.9
		C108.2,213.9,104.4,213.6,101,212.4z"/>
</g>
<g id="layer107">
	<path class="st6" d="M8.4,358.6c-0.9-2.4,7.4-81.3,9.1-86.3c0.2-0.7-0.9-1.3-2.8-1.5c-3.2-0.3-3.2-0.4-3.8-6.8
		c-1-10.4-1-26.3,0.1-31.9c2.3-12.5,8.6-19.3,25.2-27.5c6.2-3,11.4-5.3,11.6-5.1c0.2,0.2,0,1-0.4,1.7c-2.6,4.1-3.2,17.9-3.9,88.8
		c-0.4,37.1-0.8,68.1-1.1,68.8C41.9,360.7,9.1,360.5,8.4,358.6z"/>
	<path class="st6" d="M207.8,359.3c-0.4-0.9,0.4-30,2.1-74.3c0.6-15.1,1.6-41.4,2.2-58.5c0.6-17,1.2-31.1,1.3-31.2
		c1-1,18.1,5.8,23,9.1c8.9,6,10.2,8.8,11,24.9c0.5,11.5,1.8,23.7,4.2,39.6l0.7,4.4l-5.3-0.7l-5.3-0.7l0.7,27.3
		c0.3,15,1.3,34.5,2.1,43.2c0.8,8.8,1.2,16.3,0.9,16.8C244.8,360.2,208.3,360.3,207.8,359.3z M223.7,269.4c-0.3-0.3-1.2-0.4-1.9-0.1
		c-0.8,0.3-0.5,0.6,0.6,0.6C223.5,270,224.1,269.7,223.7,269.4z"/>
	<path class="st6" d="M99.5,210.6c-3.8-1.3-8.8-3.4-11-4.7c-12.2-7.4-13.5-8.4-13.5-10.6c0-1.2-0.8-2.4-1.7-2.7
		c-1-0.2,0.7-0.4,3.8-0.3l5.6,0.2l2.2-8.5c1.2-4.7,2.6-12.3,3-16.9c0.5-4.6,1.4-8.7,2.1-9.1c0.6-0.4,3-0.1,5.3,0.7
		c3.1,1.1,7.6,1.4,17.3,1.1c12.6-0.3,13.3-0.5,20-3.8c11.7-5.9,14.1-11.7,16.4-39.5c1.8-23,2.1-23.9,6.4-18.2l2,2.7l-2.4,3.2
		c-2,2.8-2.5,5.1-3.6,18.2c-2.4,27.7-1.8,49.5,1.7,62.4c1.1,4.1,1.3,4.2,3,2.6c1.1-1,1.9-1.4,1.9-1c0,0.4,0.6,0.1,1.4-0.7
		c0.9-0.9,2.6-1.2,4.1-0.9c1.5,0.2,2.3,0.7,1.8,1.1c-0.4,0.3-1,1.5-1.1,2.6c-1.3,6.9-19.4,19-34.7,23.1
		C121.5,213.8,107.7,213.3,99.5,210.6z M151.5,194c0.3-0.5,0.4-1,0.1-1s-0.8,0.5-1.1,1c-0.3,0.6-0.4,1-0.1,1
		C150.7,195,151.2,194.6,151.5,194z"/>
	<path class="st6" d="M209.3,194.3c0.4-0.3,1-0.3,1.4,0c0.3,0.4,0,0.7-0.7,0.7S209,194.7,209.3,194.3z"/>
	<path class="st6" d="M203.8,193.3c0.7-0.3,1.6-0.2,1.9,0.1c0.4,0.3-0.2,0.6-1.3,0.5C203.3,193.9,203,193.6,203.8,193.3z"/>
	<path class="st6" d="M199.3,192.3c0.4-0.3,1-0.3,1.4,0c0.3,0.4,0,0.7-0.7,0.7S199,192.7,199.3,192.3z"/>
	<path class="st6" d="M194.3,191.3c0.4-0.3,1-0.3,1.4,0c0.3,0.4,0,0.7-0.7,0.7S194,191.7,194.3,191.3z"/>
	<path class="st6" d="M189.3,190.3c0.4-0.3,1-0.3,1.4,0c0.3,0.4,0,0.7-0.7,0.7S189,190.7,189.3,190.3z"/>
	<path class="st6" d="M184.3,189.3c0.4-0.3,1-0.3,1.4,0c0.3,0.4,0,0.7-0.7,0.7S184,189.7,184.3,189.3z"/>
	<path class="st6" d="M179.3,188.3c0.4-0.3,1-0.3,1.4,0c0.3,0.4,0,0.7-0.7,0.7S179,188.7,179.3,188.3z"/>
	<path class="st6" d="M174.3,187.3c0.4-0.3,1-0.3,1.4,0c0.3,0.4,0,0.7-0.7,0.7S174,187.7,174.3,187.3z"/>
	<path class="st6" d="M169.3,186.3c0.4-0.3,1-0.3,1.4,0c0.3,0.4,0,0.7-0.7,0.7S169,186.7,169.3,186.3z"/>
	<path class="st6" d="M158.3,101.3c0.4-0.3,1-0.3,1.4,0c0.3,0.4,0,0.7-0.7,0.7S158,101.7,158.3,101.3z"/>
	<path class="st6" d="M164.2,87c0-1.4,0.2-1.9,0.5-1.2c0.2,0.6,0.2,1.8,0,2.5C164.4,88.9,164.2,88.4,164.2,87z"/>
	<path class="st6" d="M164.1,76.4c0-1.1,0.3-1.4,0.6-0.6c0.3,0.7,0.2,1.6-0.1,1.9C164.3,78.1,164,77.5,164.1,76.4z"/>
	<path class="st6" d="M63,76c0-0.7,0.3-1,0.7-0.7c0.3,0.4,0.3,1,0,1.4C63.3,77,63,76.7,63,76z"/>
	<path class="st6" d="M163.2,66.5c0-1.6,0.2-2.2,0.5-1.2c0.2,0.9,0.2,2.3,0,3C163.4,68.9,163.2,68.2,163.2,66.5z"/>
	<path class="st6" d="M62.2,65c0-1.9,0.2-2.7,0.5-1.7c0.2,0.9,0.2,2.5,0,3.5C62.4,67.7,62.2,66.9,62.2,65z"/>
	<path class="st6" d="M164,58c0-0.7,0.3-1,0.7-0.7c0.3,0.4,0.3,1,0,1.4C164.3,59,164,58.7,164,58z"/>
	<path class="st6" d="M167,47c0-0.7,0.3-1,0.7-0.7c0.3,0.4,0.3,1,0,1.4C167.3,48,167,47.7,167,47z"/>
	<path class="st6" d="M168,43c0-0.7,0.3-1,0.7-0.7c0.3,0.4,0.3,1,0,1.4C168.3,44,168,43.7,168,43z"/>
	<path class="st6" d="M69.5,39c0.3-0.5,0.8-1,1.1-1c0.3,0,0.2,0.5-0.1,1c-0.3,0.6-0.8,1-1.1,1S69.2,39.6,69.5,39z"/>
	<path class="st6" d="M73.5,33c0.3-0.5,0.8-1,1.1-1c0.3,0,0.2,0.5-0.1,1c-0.3,0.6-0.8,1-1.1,1S73.2,33.6,73.5,33z"/>
	<path class="st6" d="M166.5,28c0.3-0.5,0.8-1,1.1-1s0.2,0.5-0.1,1c-0.3,0.6-0.8,1-1.1,1C166.1,29,166.2,28.6,166.5,28z"/>
	<path class="st6" d="M84.5,22c0.3-0.5,0.8-1,1.1-1c0.3,0,0.2,0.5-0.1,1c-0.3,0.6-0.8,1-1.1,1S84.2,22.6,84.5,22z"/>
	<path class="st6" d="M165.9,19.3c-1.3-1.6-1.2-1.7,0.4-0.4c1.6,1.3,2.1,2.1,1.3,2.1C167.4,21,166.6,20.2,165.9,19.3z"/>
	<path class="st6" d="M113.3,9.3c0.4-0.3,1-0.3,1.4,0c0.3,0.4,0,0.7-0.7,0.7C113.3,10,113,9.7,113.3,9.3z"/>
	<path class="st6" d="M120.8,8.3c0.7-0.3,1.6-0.2,1.9,0.1c0.4,0.3-0.2,0.6-1.3,0.5C120.3,8.9,120,8.6,120.8,8.3z"/>
	<path class="st6" d="M143.3,8.3c0.4-0.3,1-0.3,1.4,0c0.3,0.4,0,0.7-0.7,0.7S143,8.7,143.3,8.3z"/>
</g>
<g id="layer108">
	<path class="st7" d="M245.8,271.9c-0.2-0.5-3.9-1.4-8.3-2c-19.4-2.3-24-3-24.8-3.8c-0.6-0.6-0.5-11.9,0.3-29.3
		c0.6-15.6,1.1-30.6,1-33.4c0-3.6,0.3-5.1,1.2-5.1c0.7,0,2.7-0.3,4.3-0.7c1.9-0.4,2.5-0.3,1.6,0.2c-1.8,1.3-0.2,2.1,4.7,2.4
		c2.2,0.2,3.8,0.6,3.5,1.1c-0.2,0.4,1.1,1.4,3.1,2.2c1.9,0.8,3.8,2,4.1,2.6c0.4,0.5,1.3,0.8,2.1,0.5s1.3-0.2,1.2,0.2s1,2.8,2.6,5.4
		c2.6,4.5,2.8,5.7,3.3,18.5c0.2,7.6,0.9,15.1,1.4,16.7c0.5,1.6,0.9,4,0.9,5.3c0,1.3,0.3,2.2,0.8,2c0.4-0.3,0.7,3.3,0.7,8
		c0,6.8-0.3,8.6-1.7,9.4C246.7,272.7,246,272.6,245.8,271.9z"/>
	<path class="st7" d="M13.7,268.3c-1.7-0.4-1.8-1.8-1.5-19.6c0.4-17.5,0.6-19.6,2.7-24.1c1.3-2.6,3.1-5.1,4.1-5.3
		c1-0.3,2-1.3,2.3-2.3c0.3-1,2.8-3.3,5.6-5.2c2.8-1.8,5.1-3.8,5.1-4.4c0-0.7,0.7-1.5,1.6-1.8c0.8-0.3,1.2-0.2,0.9,0.4
		c-0.3,0.6,0,1,0.8,1c1.8,0,3.9-2.4,3-3.3c-0.3-0.4-0.2-0.8,0.3-0.8c6.3-0.8,6.3-0.8,5.9,1.4c-0.9,5.9-1.5,19.3-1.7,41L42.6,269
		l-13.5-0.1C21.6,268.8,14.7,268.6,13.7,268.3z"/>
	<path class="st7" d="M248,246c0-0.7,0.3-1,0.7-0.7c0.3,0.4,0.3,1,0,1.4C248.3,247,248,246.7,248,246z"/>
	<path class="st7" d="M10.1,236.4c0-1.1,0.3-1.4,0.6-0.6c0.3,0.7,0.2,1.6-0.1,1.9C10.3,238.1,10,237.5,10.1,236.4z"/>
	<path class="st7" d="M247.1,235.4c0-1.1,0.3-1.4,0.6-0.6c0.3,0.7,0.2,1.6-0.1,1.9C247.3,237.1,247,236.5,247.1,235.4z"/>
	<path class="st7" d="M246,217c0-0.7,0.3-1,0.7-0.7c0.3,0.4,0.3,1,0,1.4C246.3,218,246,217.7,246,217z"/>
	<path class="st7" d="M20.5,214c0.3-0.5,0.8-1,1.1-1s0.2,0.5-0.1,1c-0.3,0.6-0.8,1-1.1,1C20.1,215,20.2,214.6,20.5,214z"/>
	<path class="st7" d="M106.5,211.3c-10.3-2.4-21-7.1-22.8-10c-0.4-0.7-1.5-1.3-2.2-1.3c-0.8,0-1.5-0.4-1.5-1c0-0.5-0.7-1-1.5-1
		c-0.9,0-1.5-0.9-1.5-2.5c0-2.3,2.3-3.6,3.2-1.7c0.2,0.4,1.7,1.4,3.3,2.3c7,3.6,12,6.4,12.5,7.1c1.2,1.6,21.1,3.9,27.8,3.2
		c6.6-0.6,16-3.2,18.3-5.1c0.8-0.7,2.1-1.3,2.7-1.3c0.7,0,1.2-0.5,1.2-1c0-0.6,1.5-1.7,3.3-2.5c1.7-0.8,2.8-1.4,2.3-1.5
		c-0.5,0,0.7-1.6,2.8-3.6c2-1.9,3.4-3.9,3.1-4.4c-0.5-0.8,4.5-0.3,5.3,0.5c0.9,0.8-1,4.5-2.3,4.5c-0.8,0-1.7,0.9-2,2
		c-0.3,1.1-1.3,2-2,2c-0.8,0-1.9,0.9-2.5,2.1c-0.6,1.1-3.2,2.9-5.8,4c-2.6,1.1-5.1,2.6-5.7,3.2c-0.5,0.7-4.7,2.5-9.2,4
		c-6.5,2.1-10,2.7-16.5,2.6C112.2,211.8,107.6,211.6,106.5,211.3z"/>
	<path class="st7" d="M242.4,209.8c-0.4-0.7-0.3-0.8,0.4-0.4c1.2,0.7,1.6,1.6,0.8,1.6C243.3,211,242.8,210.5,242.4,209.8z"/>
</g>
<g id="layer109">
	<path class="st8" d="M8.4,358.6c-0.9-2.4,7.4-81.4,9.1-86.4c0.4-0.9,3.5-1.2,12.7-1l12.3,0.3v44v44l-16.8,0.3
		C11.9,360,8.9,359.8,8.4,358.6z"/>
	<path class="st8" d="M207.8,359.3c-0.2-0.5-0.1-10.2,0.3-21.8c0.4-11.5,1.1-31.2,1.4-43.8c0.6-19.6,0.9-22.9,2.4-23.6
		c0.9-0.4,7.2-0.2,14.1,0.5c6.9,0.7,13.2,1.3,14.1,1.3c1.4,0.1,1.7,3.4,2.3,27.4c0.3,14.9,1.3,34.4,2.1,43.1
		c0.8,8.8,1.2,16.3,0.9,16.8C244.8,360.2,208.3,360.3,207.8,359.3z"/>
	<path class="st8" d="M108.5,203.6c-12.3-2.7-25.5-8.8-25.5-11.8c0-0.6,0.9-4.4,2-8.3c1.1-3.9,2.4-11.1,2.9-15.9
		c0.5-4.9,1.4-9.2,2.1-9.6c0.6-0.4,3-0.1,5.3,0.7c3.1,1.1,7.6,1.4,17.3,1.1c12.6-0.3,13.3-0.5,20-3.8c11.7-5.9,14.1-11.7,16.4-39.5
		c1.8-23,2.1-23.9,6.4-18.2l2,2.7l-2.4,3.2c-2,2.8-2.5,5.2-3.7,19.7c-1.8,21.4-1.3,50,1.2,58.9l1.7,6.3l-2.3,2.5
		c-2.8,2.9-11.6,8.2-17.7,10.6C128.1,204.5,115.8,205.2,108.5,203.6z"/>
	<path class="st8" d="M98.7,139.2c-2.3-2.5-2.1-3.2,0.5-3.2c1.2,0,4.8-0.7,8-1.6c3.2-0.9,6.1-1.4,6.4-1.1c0.8,0.8-0.5,4.4-2.2,6.2
		C109.1,141.7,100.8,141.5,98.7,139.2z"/>
	<path class="st8" d="M86.8,118.1c-10-2.1-14.2-9.6-15-27l-0.3-6.3l6-2c3.3-1,8.1-2.4,10.8-2.9c3.6-0.8,4.7-1.5,4.7-2.9
		c0-3.8-5.1-4.7-13.5-2.3c-4.2,1.1,6.3-5.5,11.9-7.6c7-2.6,18.3-3,23.4-0.8c3.5,1.5,3.3,2.7-0.5,2.7c-5.5,0-8.2,4.1-4.7,7.1
		c1.3,1.1,3.1,1,10.7-0.3l9.2-1.6l3.9,2.6c2.1,1.5,5.7,4.3,7.9,6.3l4.1,3.6l-1.1,9.7c-1.8,15.5-5.7,19.9-18.5,20.9
		C112.2,118.5,90.5,118.9,86.8,118.1z M88.7,94.9c1.8-3.4,1.6-7.4-0.3-9c-1.4-1.1-1.9-1-3.5,1c-2.1,2.6-2.5,8.1-0.7,9.9
		C85.8,98.4,87.2,97.8,88.7,94.9z M121.3,93.2c-0.2-0.6,0.1-1.2,0.6-1.2c1.4,0,2.1-5.8,1.1-8.5c-2-5.3-7-1.4-7,5.5
		c0,4.4,1,6.1,3.4,5.8C120.5,94.6,121.4,93.9,121.3,93.2z"/>
</g>
<g id="layer110">
	<path class="st9" d="M8.4,358.6c-0.8-2,3.6-46,4.6-46.4c0.5-0.2,0.6-1.8,0.3-3.7c-0.7-4.1,0.4-8.8,1.7-8c0.6,0.3,1-0.4,1-1.7
		c0-1.8-0.2-2-1-0.8c-0.7,1.2-1,0.8-1-1.5c0-2.4,0.2-2.7,1.1-1.5c0.7,1.1,0.8,0.1,0.3-3.4c-0.5-3.8-0.4-4.7,0.6-4.1
		c0.9,0.6,1.1-0.5,0.6-4.6c-0.4-3.4-0.3-4.6,0.3-3.4c0.7,1.7,0.9,1.3,1.6-2.3l0.7-4.3l11.1,0.3l11.1,0.3l0.8,3.5
		c0.4,1.9,0.6,21.3,0.5,43l-0.2,39.5l-16.8,0.3C11.8,360,8.9,359.8,8.4,358.6z M14.7,305.8c-0.3-0.8-0.6-0.5-0.6,0.6
		c-0.1,1.1,0.2,1.7,0.5,1.3C14.9,307.4,15,306.5,14.7,305.8z M14.7,302.3c-0.4-0.3-0.7,0-0.7,0.7c0,0.7,0.3,1,0.7,0.7
		C15,303.3,15,302.7,14.7,302.3z M41.7,282.3c-0.4-0.3-0.7,0-0.7,0.7c0,0.7,0.3,1,0.7,0.7C42,283.3,42,282.7,41.7,282.3z"/>
	<path class="st9" d="M207.5,359c-0.3-0.5-0.4-1.4-0.1-1.8c0.3-0.5,0.8-9.8,1.1-20.8c0.3-10.9,1-21.7,1.5-23.9
		c1.3-5.6,1.2-15.9-0.2-17.3c-0.8-0.8-0.8-1.5,0.2-2.7c0.8-0.9,1.6-5.5,1.9-10.8l0.6-9.2l3.6-0.3c1.9-0.2,7.7,0.1,12.9,0.6
		c10.9,1.1,12.2,2.2,11.9,9.2c-0.6,9.8,0.3,29.5,1.1,27.5c0.6-1.3,0.9,1.2,1,7.5c0,5.2,0.7,16.7,1.5,25.4c0.8,8.8,1.2,16.3,0.9,16.8
		C244.6,360.4,208.3,360.2,207.5,359z M241.7,314.8c-0.3-0.8-0.6-0.5-0.6,0.6c-0.1,1.1,0.2,1.7,0.5,1.3
		C241.9,316.4,242,315.5,241.7,314.8z"/>
	<path class="st9" d="M108.5,203.6C96,200.8,83,194.8,83,191.7c0-2.1,3.5-13.8,4-13.3c0.3,0.2,0.6-2.8,0.7-6.7
		C88,162.9,88.8,158,90,158c0.5,0,2.1,0.5,3.7,1.1c1.5,0.7,5.9,1.2,9.8,1.1c3.8,0,7.5,0.4,8.1,0.9c0.8,0.6,2.8,0.6,5.5-0.1
		c5.1-1.2,10.6-2.2,13.2-2.3c0.9-0.1,1.7-0.5,1.7-0.9s0.5-0.8,1.2-0.8c1.9,0,11.7-8.1,11.3-9.3c-0.5-1.5,1.4-4.1,3.8-5
		c1.6-0.6,1.7,0.6,1.9,14.6c0.1,8.4,0.2,17.2,0.1,19.7c0,2.5,0.2,3.7,0.6,2.7c0.4-1.2,1,0,1.9,3.9c1.3,5.4,1.3,5.7-1,8.1
		c-2.7,2.8-11.5,8.1-17.6,10.5C128.1,204.5,115.8,205.2,108.5,203.6z M146.7,193.3c-0.4-0.3-1-0.3-1.4,0c-0.3,0.4,0,0.7,0.7,0.7
		S147,193.7,146.7,193.3z M89.7,166.3c-0.4-0.3-0.7,0-0.7,0.7s0.3,1,0.7,0.7C90,167.3,90,166.7,89.7,166.3z M100.7,161.3
		c-0.4-0.3-1-0.3-1.4,0c-0.3,0.4,0,0.7,0.7,0.7C100.7,162,101,161.7,100.7,161.3z M148.7,153.8c-0.2-1.3-0.4-0.3-0.4,2.2
		s0.2,3.5,0.4,2.3C148.9,157,148.9,155,148.7,153.8z M148.7,146.8c-0.3-0.7-0.5-0.2-0.5,1.2c0,1.4,0.2,1.9,0.5,1.3
		C148.9,148.6,148.9,147.4,148.7,146.8z"/>
	<path class="st9" d="M102,138.6c0-1.4,2.9-2.6,6.8-2.6c2.7,0,2.9,1.6,0.3,3C106.3,140.5,102,140.3,102,138.6z"/>
	<path class="st9" d="M86.8,117.9c-2.1-0.6-3.8-1.5-3.8-2s-0.7-0.9-1.5-0.9c-3.7,0-7.8-8.2-9-18c-0.3-1.9-0.7-5.3-1-7.5
		c-0.5-4-0.5-4,3.5-5.3c2.3-0.7,4.6-0.9,5.2-0.6c0.6,0.4,0.8,0.3,0.4-0.4c-0.7-1.2,1.1-1.9,7.4-2.7c2.4-0.3,4.9-1,5.4-1.5
		c1.3-1.3-0.9-6-2.9-6.1c-0.8-0.1-2.1-0.2-2.7-0.3c-0.7-0.1-3,0.4-5.2,1.1c-5.3,1.8-5.5,1.7-1.6-1.2c1.9-1.4,4-2.3,4.8-2
		c0.7,0.2,1.1,0.1,0.8-0.4c-0.8-1.2,4.2-3.1,11.7-4.5c4.5-0.9,7.7-0.9,11.7-0.2c6.1,1.2,6.7,2.7,1.8,3.9c-1.8,0.5-4,1.6-4.8,2.4
		c-0.8,0.9-0.9,1.3-0.2,0.9c0.8-0.5,1.2,0,1.2,1.3c0,1-0.3,2.1-0.7,2.4c-0.5,0.2-0.3,0.2,0.4,0.1c0.6-0.2,1.6,0.3,2.3,1
		c0.9,1.1,1.9,1.1,5.8,0.1c11.4-3,13.7-3.4,14.9-2.3c0.7,0.6,1.1,1.4,0.8,1.8c-0.3,0.5,0,1.2,0.6,1.6c0.8,0.4,0.9,0.3,0.5-0.4
		c-1.1-1.8,0.1-1.4,3.7,1c1.8,1.3,3.4,2.4,3.6,2.5c0.2,0.1-0.2,1.1-1,2c-1.3,1.6-1.2,1.7,0.4,0.4c1.5-1.2,2-1.1,3.8,0.5
		c2,1.8,2.1,5.3,0.4,16.4c-1.3,8.4-5.4,13.5-11.9,15C122.4,118,91.9,119.3,86.8,117.9z M129.7,114.3c-0.4-0.3-1-0.3-1.4,0
		c-0.3,0.4,0,0.7,0.7,0.7S130,114.7,129.7,114.3z M83.7,113.3c-0.4-0.3-1-0.3-1.4,0c-0.3,0.4,0,0.7,0.7,0.7
		C83.7,114,84,113.7,83.7,113.3z M86.6,99.5c-0.3-0.9,0-1.5,0.8-1.5c2.7,0,3.6-10.1,1.2-13.2c-1.2-1.6-1.4-1.6-3.5,0.6
		c-1.7,1.8-2.2,3.3-1.9,6.7c0.2,3-0.2,4.8-1.2,5.6c-1.3,1-1.1,1.1,0.7,0.6c1.5-0.3,2.5,0,2.9,1.1c0.3,0.9,0.8,1.6,1.1,1.6
		C87,101,87,100.3,86.6,99.5z M121.5,95c0.4-0.6,1-0.8,1.5-0.5c0.4,0.3,0.6-0.3,0.3-1.4c-0.3-1,0-2.1,0.5-2.5
		c0.5-0.3,0.8-1.9,0.6-3.6c-0.2-1.9,0-2.9,0.6-2.5c0.6,0.3,0.7-0.1,0.4-1c-0.4-0.9-1.8-2.2-3.3-2.9c-3.2-1.7-4.4-0.7-6.4,5.1
		c-1.1,3.2-1.1,4.4,0,7.1C117,96,120.2,97.2,121.5,95z M125.7,92.3c-0.4-0.3-1-0.3-1.4,0c-0.3,0.4,0,0.7,0.7,0.7
		C125.7,93,126,92.7,125.7,92.3z M120.7,77.3c-0.4-0.3-1-0.3-1.4,0c-0.3,0.4,0,0.7,0.7,0.7C120.7,78,121,77.7,120.7,77.3z"/>
	<path class="st9" d="M151.2,107.4c-1.1-1.2-1.1-2.1-0.1-5.2c1.7-4.9,2.9-6.2,2.9-3.1c0,1.7,0.3,2,0.9,1c0.6-0.9,1-1,1.6-0.2
		c0.4,0.7-0.2,2.4-1.2,3.9s-2,3.2-2.3,3.8C152.6,108.5,152.1,108.4,151.2,107.4z"/>
</g>
<g id="layer111">
	<path class="st10" d="M8.4,358.6c-0.8-2,3.6-46,4.6-46.4c0.5-0.2,0.6-1.8,0.3-3.7c-0.6-4,0.4-8.8,1.7-8c0.4,0.3,1.1-0.3,1.3-1.2
		c0.3-1,0.5-0.1,0.6,2c0.1,3.5,0.2,3.7,3.6,3.7c2.8,0,3.5-0.4,3.5-2c0-1.7,0.7-2,4-2c5.5,0,5.5,0,5.5,4.3c0,2.3,0.5,3.7,1.3,3.7
		c0.8,0,1.2-1.6,1.2-4.5c0-6,1.8-5.8,2.2,0.3c0.6,9.2,2.3,4,3.3-10c0.9-13.3,1-11.6,1.3,24.2c0.1,21.2,0,39.1-0.3,39.7
		C41.8,360.7,9.1,360.5,8.4,358.6z M14.7,305.8c-0.3-0.8-0.6-0.5-0.6,0.6c-0.1,1.1,0.2,1.7,0.5,1.3C14.9,307.4,15,306.5,14.7,305.8z
		 M14.7,302.3c-0.4-0.3-0.7,0-0.7,0.7c0,0.7,0.3,1,0.7,0.7C15,303.3,15,302.7,14.7,302.3z"/>
	<path class="st10" d="M207.5,359c-0.3-0.5-0.4-1.4-0.1-1.8c0.3-0.5,0.8-9.8,1.1-20.8c0.6-18.3,3-38.6,3.5-29.4
		c0.2,3.4,0.2,3.4,1.5-1.5c1-3.9,2.2-4.9,1.6-1.2c-0.1,0.4,0.6,2.1,1.4,3.7s1.4,3.7,1.2,4.7c-0.1,1,0.3,1.8,0.8,1.8
		c0.6,0,1-1.2,1-2.7c0.1-3.2,0.9-4.3,2.6-3.2c0.7,0.4,3.2,0.7,5.6,0.5c2.6-0.1,4.3,0.2,4.3,0.8c0,0.6,1.5,1.1,3.4,1.1
		c3.1,0,3.5-0.3,4.4-3.7l1-3.8l0.2,4c0.1,3.2,0.3,3.6,1,2c0.6-1.3,0.9,1.2,1,7.5c0,5.2,0.7,16.7,1.5,25.4c0.8,8.8,1.2,16.3,0.9,16.8
		C244.6,360.4,208.3,360.2,207.5,359z M241.7,314.8c-0.3-0.8-0.6-0.5-0.6,0.6c-0.1,1.1,0.2,1.7,0.5,1.3
		C241.9,316.4,242,315.5,241.7,314.8z"/>
	<path class="st10" d="M211,298.2c0-1-0.5-2.3-1.2-3c-0.8-0.8-0.8-1.5-0.1-2.4c0.6-0.7,1.3-2.2,1.5-3.3c0.2-1.1,0.4,0.8,0.4,4.3
		c0.1,3.4-0.1,6.2-0.3,6.2C211.2,300,211,299.2,211,298.2z"/>
	<path class="st10" d="M14,296.3c0-2.1,0.3-2.4,0.9-1.4c0.5,0.8,0.7,2,0.4,2.8C14.5,299.8,14,299.2,14,296.3z"/>
	<path class="st10" d="M15,289.4c0-1.4,0.4-2.3,0.9-2c0.5,0.3,0.7,1.5,0.4,2.6C15.6,292.8,15,292.5,15,289.4z"/>
	<path class="st10" d="M108.5,203.6C96,200.8,83,194.8,83,191.7c0-2.1,3.5-13.8,4-13.3c0.3,0.2,0.6-2.8,0.7-6.7
		C88,162.9,88.8,158,90,158c0.5,0,2.1,0.5,3.7,1.1c1.5,0.7,5.9,1.2,9.8,1.1c3.8,0,7.5,0.4,8.1,0.9c0.8,0.6,2.8,0.6,5.5-0.1
		c5.1-1.2,10.6-2.2,13.2-2.3c0.9-0.1,1.7-0.5,1.7-0.9s0.6-0.8,1.3-0.8s2.9-1.4,4.9-3c2.3-1.9,4.3-2.8,5.5-2.4
		c1.7,0.5,1.7,0.5,0.1-0.6c-1.7-1-1.6-1.3,0.5-4.5c1.2-1.9,2.9-3.6,3.8-3.8c1.5-0.4,1.7,1.4,2.2,16.7c0.3,11.8,1,19.1,2.2,23.4
		l1.7,6.3l-2.3,2.5c-2.8,2.9-11.6,8.2-17.7,10.6C128.1,204.5,115.8,205.2,108.5,203.6z M94.7,194.4c-0.3-0.3-1.2-0.4-1.9-0.1
		c-0.8,0.3-0.5,0.6,0.6,0.6C94.5,195,95.1,194.7,94.7,194.4z M147,193.6c0-0.2-0.7-0.7-1.6-1c-0.8-0.3-1.2-0.2-0.9,0.4
		C145.1,194,147,194.4,147,193.6z M87.7,188.3c-0.4-0.3-0.7,0-0.7,0.7s0.3,1,0.7,0.7C88,189.3,88,188.7,87.7,188.3z M150.7,187.3
		c-0.4-0.3-1-0.3-1.4,0c-0.3,0.4,0,0.7,0.7,0.7S151,187.7,150.7,187.3z M145.7,182.3c-0.4-0.3-0.7,0-0.7,0.7s0.3,1,0.7,0.7
		C146,183.3,146,182.7,145.7,182.3z M147.7,180.8c-0.3-0.7-0.5-0.2-0.5,1.2c0,1.4,0.2,1.9,0.5,1.3
		C147.9,182.6,147.9,181.4,147.7,180.8z M150.7,178.8c-0.3-0.8-0.6-0.5-0.6,0.6c-0.1,1.1,0.2,1.7,0.5,1.3
		C150.9,180.4,151,179.5,150.7,178.8z M146.7,176.3c-0.4-0.3-0.7,0-0.7,0.7s0.3,1,0.7,0.7C147,177.3,147,176.7,146.7,176.3z
		 M89.7,166.3c-0.4-0.3-0.7,0-0.7,0.7s0.3,1,0.7,0.7C90,167.3,90,166.7,89.7,166.3z M94.1,165.1c0.6,1,0.9,0.7,0.9-1.2
		c0-2-0.6-2.8-2.5-3.1c-2.1-0.4-2.3-0.2-1.5,1.3c0.6,1,1.1,2.8,1.1,4.1l0.2,2.3l0.4-2.4C93.1,164.2,93.4,164,94.1,165.1z
		 M111.9,165.4c0.2-0.2-1.6-0.4-4-0.5c-3.2,0-3.9-0.3-2.4-0.8c1.3-0.6,0.1-0.8-3.7-0.7c-4.2,0.1-5.4,0.4-4.6,1.3
		c0.5,0.6,1.9,1.3,3.1,1.5C102.7,166.6,111.2,166,111.9,165.4z M119.3,165.3c-0.7-0.2-1.9-0.2-2.5,0c-0.7,0.3-0.2,0.5,1.2,0.5
		S119.9,165.6,119.3,165.3z M146.7,161.8c-0.3-0.7-0.5-0.2-0.5,1.2c0,1.4,0.2,1.9,0.5,1.3C146.9,163.6,146.9,162.4,146.7,161.8z
		 M100.7,161.3c-0.4-0.3-1-0.3-1.4,0c-0.3,0.4,0,0.7,0.7,0.7C100.7,162,101,161.7,100.7,161.3z M140.5,158c1.1,0,4.5-3.1,4.5-4
		c0-0.5-0.7-1.1-1.6-1.4c-1.1-0.4-1.5-0.2-1.1,0.8c0.3,0.8-0.2,2-1.1,2.8c-1.5,1.2-1.6,1.1-0.3-0.4c2-2.7-0.2-2.1-2.8,0.6
		c-1.4,1.5-2,3-1.6,3.7c0.6,0.9,1.1,0.8,2-0.4C139.2,158.7,140.1,158,140.5,158z M134.7,158.3c-0.4-0.3-0.7,0-0.7,0.7s0.3,1,0.7,0.7
		C135,159.3,135,158.7,134.7,158.3z M148.1,150.4c1-1.2,0.9-6.4-0.1-6.4c-0.4,0-1.6,1.4-2.9,3c-1.3,1.8-1.6,2.9-0.9,2.8
		c0.9-0.2,1.4,1.4,1.8,5.2l0.4,5.5l0.4-4.5C147,153.6,147.6,151,148.1,150.4z M148.7,153.8c-0.2-1.3-0.4-0.3-0.4,2.2
		s0.2,3.5,0.4,2.3C148.9,157,148.9,155,148.7,153.8z"/>
	<path class="st10" d="M147,148c0-0.7,0.3-1,0.7-0.7c0.3,0.4,0.3,1,0,1.4C147.3,149,147,148.7,147,148z"/>
	<path class="st10" d="M86.8,117.9c-2.1-0.6-3.8-1.5-3.8-2s-0.7-0.9-1.5-0.9c-3.7,0-7.8-8.2-9-18c-0.3-1.9-0.7-5.3-1-7.5
		c-0.5-4-0.5-4,3.5-5.3c2.3-0.7,4.6-0.9,5.2-0.6c0.6,0.4,0.8,0.3,0.4-0.4c-0.7-1.2,1.1-1.9,7.4-2.7c2.4-0.3,4.9-1,5.4-1.5
		c1.3-1.3-0.9-6-2.9-6.1c-0.8-0.1-2.1-0.2-2.7-0.3c-0.7-0.1-3,0.4-5.2,1.1c-5.3,1.8-5.5,1.7-1.6-1.2c1.9-1.4,4-2.3,4.8-2
		c0.7,0.2,1.1,0.1,0.8-0.4c-0.8-1.2,4.2-3.1,11.7-4.5c4.5-0.9,7.7-0.9,11.7-0.2c6.1,1.2,6.7,2.7,1.8,3.9c-1.8,0.5-4,1.6-4.8,2.4
		c-0.8,0.9-0.9,1.3-0.2,0.9c0.8-0.5,1.2,0,1.2,1.3c0,1-0.3,2.1-0.7,2.4c-0.5,0.2-0.3,0.2,0.4,0.1c0.6-0.2,1.6,0.3,2.3,1
		c0.9,1.1,1.9,1.1,5.8,0.1c11.4-3,13.7-3.4,14.9-2.3c0.7,0.6,1.1,1.4,0.8,1.8c-0.3,0.5,0,1.2,0.6,1.6c0.8,0.4,0.9,0.3,0.5-0.4
		c-1.1-1.8,0.1-1.4,3.7,1c1.8,1.3,3.4,2.4,3.6,2.5c0.2,0.2-0.4,1.2-1.4,2.3s-1.5,2-1,2c0.4,0,1.4-0.8,2-1.7c1.2-1.7,1.4-1.7,3.5,0.2
		c2.1,1.9,2.2,5.2,0.5,16.5c-1.3,8.4-5.4,13.5-11.9,15C122.4,118,91.9,119.3,86.8,117.9z M89.7,114.3c-0.4-0.3-1-0.3-1.4,0
		c-0.3,0.4,0,0.7,0.7,0.7C89.7,115,90,114.7,89.7,114.3z M106.6,113.3c2.9-3.9,1.4-9.6-3.8-14.5l-2.9-2.7l-1,2.7
		c-0.6,1.5-1.3,5.3-1.6,8.4c-0.5,5.4-0.4,5.8,1.8,6.7C102.8,115.4,105.1,115.2,106.6,113.3z M129.7,114.3c-0.4-0.3-1-0.3-1.4,0
		c-0.3,0.4,0,0.7,0.7,0.7S130,114.7,129.7,114.3z M83.7,113.3c-0.4-0.3-1-0.3-1.4,0c-0.3,0.4,0,0.7,0.7,0.7
		C83.7,114,84,113.7,83.7,113.3z M79.7,104.3c-0.4-0.3-0.7,0-0.7,0.7c0,0.7,0.3,1,0.7,0.7C80,105.3,80,104.7,79.7,104.3z M138.5,104
		c0.3-0.5,0.4-1,0.1-1s-0.8,0.5-1.1,1c-0.3,0.6-0.4,1-0.1,1C137.7,105,138.2,104.6,138.5,104z M86.6,99.5c-0.3-0.9,0-1.5,0.8-1.5
		c2.7,0,3.6-10.1,1.2-13.2c-1.2-1.6-1.4-1.6-3.5,0.6c-1.7,1.8-2.2,3.3-1.9,6.7c0.2,3-0.2,4.8-1.2,5.6c-1.3,1-1.1,1.1,0.7,0.6
		c1.5-0.3,2.5,0,2.9,1.1c0.3,0.9,0.8,1.6,1.1,1.6C87,101,87,100.3,86.6,99.5z M121.5,95c0.4-0.6,1-0.8,1.5-0.5
		c0.4,0.3,0.6-0.3,0.3-1.4c-0.3-1,0-2.1,0.5-2.5c0.5-0.3,0.8-1.9,0.6-3.6c-0.2-1.9,0-2.9,0.6-2.5c0.6,0.3,0.7-0.1,0.4-1
		c-0.4-0.9-1.8-2.2-3.3-2.9c-3.2-1.7-4.4-0.7-6.4,5.1c-1.1,3.2-1.1,4.4,0,7.1C117,96,120.2,97.2,121.5,95z M126.5,93
		c-0.3-0.5-1.2-1-1.8-1c-0.7,0-0.6,0.4,0.3,1C126.9,94.2,127.3,94.2,126.5,93z M127.5,88.1c0.3-0.5,0.2-1.2-0.3-1.5
		c-0.5-0.3-0.9,0.1-0.9,0.9C126.3,89.2,126.6,89.4,127.5,88.1z M80.7,85.3c-0.4-0.3-1-0.3-1.4,0C79,85.7,79.3,86,80,86
		C80.7,86,81,85.7,80.7,85.3z M120.7,77.3c-0.4-0.3-1-0.3-1.4,0c-0.3,0.4,0,0.7,0.7,0.7C120.7,78,121,77.7,120.7,77.3z M95.7,70.3
		c-0.4-0.3-1-0.3-1.4,0C94,70.7,94.3,71,95,71C95.7,71,96,70.7,95.7,70.3z M103.3,67.3c-0.7-0.2-2.1-0.2-3,0c-1,0.3-0.4,0.5,1.2,0.5
		C103.2,67.8,103.9,67.6,103.3,67.3z M107.7,67.3c-0.4-0.3-1-0.3-1.4,0c-0.3,0.4,0,0.7,0.7,0.7C107.7,68,108,67.7,107.7,67.3z"/>
	<path class="st10" d="M151.1,107.3c-1.7-1.8,0-6.3,2.4-6.3c0.8,0,1.5-0.5,1.5-1.2c0-0.9,0.3-0.9,1.1-0.1c0.9,0.9,0.7,1.9-0.7,4
		c-1,1.5-2.1,3.3-2.4,3.9C152.7,108.4,152.1,108.3,151.1,107.3z"/>
	<path class="st10" d="M153,98c0-0.7,0.3-1,0.7-0.7c0.3,0.4,0.3,1,0,1.4C153.3,99,153,98.7,153,98z"/>
</g>
<g id="layer112">
	<path class="st11" d="M8.4,358.6c-0.3-0.8,0.4-10.9,1.5-22.5c1.2-11.5,2.1-21.6,2.1-22.4c0-0.8,0.7-1.7,1.4-2
		c0.9-0.4,1.3-0.1,1.1,0.6c-0.6,1.9-2.6,20-3.4,31.7c-0.8,10.8-0.2,13.8,2.8,13.9c4,0.3,16.8,0.2,18.6-0.2c1.1-0.1,2.6-0.7,3.3-1.1
		c0.8-0.5,2.1-0.1,3.1,0.8c1.7,1.6,1.9,1.5,2.3-1.6c0.3-1.8,0.4-9.4,0.2-16.8c-0.1-7.4,0.1-15.1,0.6-17c0.5-2.2,0.8,4.2,0.7,17
		l-0.2,20.5l-16.8,0.3C11.8,360,8.9,359.8,8.4,358.6z"/>
	<path class="st11" d="M207.6,359.1c-0.4-0.5-0.4-1.5-0.1-2.3c0.4-1.1,1.1-18.1,1.4-36.5c0.1-3.2,0.5-5.3,1.2-5.3
		c0.8,0,1,3.1,0.7,10.5c-0.3,6.5-0.1,10.6,0.5,10.8c0.7,0.2,0.7,3.1,0.1,8.5c-0.8,6.3-0.7,9,0.3,11.4c0.7,1.6,1.3,3.2,1.3,3.4
		C213,360.4,208.1,360,207.6,359.1z"/>
	<path class="st11" d="M242,359.2c0-0.4,0.5-1.3,1.1-1.9c0.7-0.7,0.9-2.2,0.4-4c-1.1-3.7-1.2-5.8-1.5-26.6c-0.1-9.8,0-18.1,0.4-18.4
		c0.3-0.4,0.6,3.6,0.6,8.8s0.7,16.6,1.5,25.3c0.8,8.8,1.2,16.3,0.9,16.8C244.7,360.2,242,360.3,242,359.2z"/>
	<path class="st11" d="M42.4,298c0-9.6,0.2-13.6,0.3-8.7c0.2,4.8,0.2,12.6,0,17.5C42.6,311.6,42.4,307.6,42.4,298z"/>
	<path class="st11" d="M13,306.4c0-2.1,0.5-4.6,1-5.4c0.6-1,0.7,0.2,0.4,3.5C13.7,310.7,13,311.7,13,306.4z"/>
	<path class="st11" d="M14.2,296.5c0-1.6,0.2-2.2,0.5-1.2c0.2,0.9,0.2,2.3,0,3C14.4,298.9,14.2,298.2,14.2,296.5z"/>
	<path class="st11" d="M209.4,294.9c-0.3-0.6-0.1-1.6,0.5-2.2c0.8-0.8,1.1-0.5,1.1,1.1C211,296.2,210.5,296.6,209.4,294.9z"/>
	<path class="st11" d="M15.2,289.5c0-1.6,0.2-2.2,0.5-1.2c0.2,0.9,0.2,2.3,0,3C15.4,291.9,15.2,291.2,15.2,289.5z"/>
	<path class="st11" d="M16.2,280.5c0-1.6,0.2-2.2,0.5-1.2c0.2,0.9,0.2,2.3,0,3C16.4,282.9,16.2,282.2,16.2,280.5z"/>
	<path class="st11" d="M17,273.1c0-0.6,0.4-1.3,1-1.6c0.6-0.3,0.7,0.1,0.4,0.9C17.7,274.2,17,274.5,17,273.1z"/>
	<path class="st11" d="M211,271c0-0.5,0.5-1,1.1-1c0.5,0,0.7,0.5,0.4,1c-0.3,0.6-0.8,1-1.1,1C211.2,272,211,271.6,211,271z"/>
	<path class="st11" d="M108.5,203.6C96,200.8,83,194.8,83,191.7c0-0.6,0.9-4.1,1.9-7.7c1.4-4.9,2.1-6,2.6-4.7
		c0.5,1.1,0.1,3.3-0.9,5.3c-0.9,1.9-1.6,4.2-1.6,5.2c0.1,1.9,7.8,7.2,10.6,7.2c1.1,0,3.8,0.9,6.2,2c2.4,1.1,6,2,8,2.1
		c2,0.1,4.5,0.6,5.5,1.1c5.1,2.6,29-5.7,35.2-12.2c2.6-2.7,2.7-3,1.1-4.6c-1.2-1.1-1.5-2.5-1.1-4.2c0.3-1.4,0.1-2.8-0.5-3.2
		c-1.2-0.7-1.5-10.9-1-27c0.3-8.1,0.4-7,1,7.5c0.4,11.2,1.2,19.3,2.4,23.8l1.8,6.9l-2.3,2.4c-2.8,2.9-11.6,8.2-17.7,10.6
		C128.1,204.5,115.8,205.2,108.5,203.6z"/>
	<path class="st11" d="M87.5,171c1.3-13.7,1.4-14,6-12c1.8,0.8,1.7,0.9-0.7,0.9c-2.3,0.1-2.8,0.6-2.9,2.9c-0.3,7.4-1.1,12.8-2,13.7
		C87.2,177.2,87.1,175.5,87.5,171z"/>
	<path class="st11" d="M96.9,160.7c0.5-0.5,1.9-0.7,3.2-0.5c2,0.3,1.9,0.5-0.9,0.9C97.2,161.4,96.3,161.3,96.9,160.7z"/>
	<path class="st11" d="M120.1,160.6c0.4-0.4,2.1-0.9,3.9-1.1c1.8-0.2,4.2-0.7,5.4-1c1.7-0.5,1.8-0.4,0.5,0.4
		C128,160.1,119.2,161.6,120.1,160.6z"/>
	<path class="st11" d="M142.5,149c0.3-0.5,0.8-1,1.1-1s0.2,0.5-0.1,1c-0.3,0.6-0.8,1-1.1,1C142.1,150,142.2,149.6,142.5,149z"/>
	<path class="st11" d="M147,138c0-0.6,0.5-1,1.1-1c0.5,0,0.8-0.4,0.4-0.9c-0.3-0.5-0.1-1.2,0.5-1.6c0.5-0.3,1.1-2.7,1.1-5.3
		c0.1-2.6,0.4-3.6,0.6-2.3c0.7,3.8-0.7,10.9-2.2,11.5C147.7,138.7,147,138.5,147,138z"/>
	<path class="st11" d="M151.3,118.5c0-2.2,0.2-3,0.4-1.7c0.2,1.2,0.2,3,0,4C151.4,121.7,151.2,120.7,151.3,118.5z"/>
	<path class="st11" d="M86.8,117.9c-2.1-0.6-3.8-1.5-3.8-2s-0.7-0.9-1.5-0.9c-3.7,0-7.8-8.2-9-18c-0.3-1.9-0.7-5.3-1-7.5
		c-0.5-4-0.5-4,3.5-5.3c2.3-0.7,4.6-0.9,5.2-0.6c0.7,0.4,0.8,0.2,0.4-0.4c-0.7-1.1,1.5-2,6.4-2.5c2-0.2,2.5,0.2,2.5,2.1
		c0,1.2,0.5,2.6,1.1,3c2.9,1.8,1.3,12.4-2.2,14.7c-1.4,0.9-2.5,1.1-2.9,0.5s-1.1-0.7-1.7-0.4c-0.7,0.5-0.8,0.2-0.3-0.6
		c0.6-0.9,0.4-1.2-0.6-0.8c-1.2,0.5-1.4-0.7-1.2-6.8c0.2-7.1,0.1-7.4-2.1-7.4c-4.8,0-5.9,2-5.4,10.1c0.7,9.8,4.2,17.5,7.8,17.1
		c1.7-0.1,2.1,0.1,1.2,0.7c-1,0.6-0.2,1.3,2.8,2.5c3.8,1.5,8.8,1.6,22.8,0.4c0.6-0.1,1.2-0.6,1.2-1.2c0-0.6,0.4-0.5,0.9,0.3
		c0.7,1.1,2.8,1.2,10.5,0.6c5.3-0.4,9.6-1.1,9.6-1.7c0-0.5,0.5-0.6,1-0.3c0.6,0.4,1.7,0.1,2.5-0.5c0.8-0.7,1.5-0.9,1.5-0.6
		c0,1.4,2.6-1.8,2.7-3.3c0.4-3.8,2.2-12.2,2.9-13.3c1.2-2,1.5-6.6,0.4-7.3c-0.6-0.4-0.7-1.1-0.4-1.7c0.5-0.7,0.1-0.9-0.9-0.5
		c-1.1,0.4-1.7,0.1-1.7-0.8c0-2.3,2-2.8,4.1-0.9c2,1.8,2.1,5.4,0.4,16.4c-1.3,8.4-5.4,13.5-11.9,15C122.4,118,91.9,119.3,86.8,117.9
		z M86.6,99.5c-0.3-0.9,0-1.5,0.8-1.5c2.4,0,3.8-11.2,1.6-12.5c-0.6-0.4-0.8-1.6-0.4-2.8c0.4-1.4-0.3-0.9-2.6,1.6
		c-2.8,3.2-3.2,4.3-2.8,8.2c0.2,2.6-0.1,4.5-0.7,4.6c-0.5,0,0,0.4,1.3,0.9c1.2,0.5,2.2,1.4,2.2,2c0,0.5,0.3,1,0.6,1
		C86.9,101,87,100.3,86.6,99.5z"/>
	<path class="st11" d="M151.2,107.3c-1.7-1.7-0.7-4.7,1.2-4c0.9,0.4,1.6-0.3,2.1-2c0.4-1.9,0.9-2.3,1.7-1.5c0.8,0.8,0.6,1.9-0.8,3.9
		c-1,1.5-2.1,3.3-2.4,3.9C152.6,108.4,152.1,108.4,151.2,107.3z"/>
	<path class="st11" d="M117.4,97.2c-1.3-0.9-4.4-5.4-4.4-6.4c0-1.9,2-0.6,2.6,1.7c0.9,3.6,3.7,4.9,5.6,2.7c2.1-2.4,3-5.1,3.3-9.4
		c0.1-2.3-0.2-3.5-0.8-3.1c-0.6,0.3-0.7,0.1-0.3-0.5c0.3-0.6-0.3-1.3-1.4-1.7c-1.1-0.3-2-1-2-1.5c0-1.3,5.9,2.2,6.5,3.8
		c0.3,0.7,0,2.3-0.6,3.4c-0.6,1.1-0.7,2.3-0.3,2.7c1.5,1.1,1.3,4-0.2,3.4c-1-0.3-1.2,0-0.8,1c0.3,1-0.5,2-2.7,3.1
		c-1.8,0.9-3.3,1.6-3.3,1.6C118.5,98,118,97.6,117.4,97.2z"/>
	<path class="st11" d="M114,87.1c0-1.1-0.3-2.7-0.7-3.7c-0.5-1.3-0.3-1.5,0.7-0.9s1.2,0.4,0.7-0.9c-0.4-0.9-0.3-1.5,0.2-1.2
		s1.1,0,1.4-0.8c0.5-1.2,0-1.2-2.6-0.5c-2.7,0.8-3.5,0.6-4.9-1.1c-0.9-1.1-2.1-2-2.7-2c-0.9,0-0.8-0.6,0-2.2c1.1-2.1,1.1-2.2-0.4-1
		c-1.4,1.2-1.5,1-0.4-1.7c0.7-1.9,1.8-3.1,3-3.1c1.1,0,1.5-0.5,1.1-1.1c-0.9-1.5-12.9-0.2-17.3,1.9c-1.8,0.8-3.9,1.5-4.7,1.5
		c-1.1,0-1.1,0.4-0.2,1.6c0.7,0.9,0.9,1.3,0.4,0.9c-0.4-0.3-2.6,0-4.8,0.8c-5.3,1.8-5.5,1.8-2.7-0.5c7.8-6.1,20.8-9.4,29.9-7.7
		c6.3,1.3,6.7,2.6,1.3,4.1c-3.2,0.9-3.7,1.4-3.5,3.5c0.2,1.4,1,3.2,1.8,4.1c1.3,1.4,2.1,1.5,6.2,0.4c13.8-3.6,13.1-3.6,17.9,0
		c2.5,1.9,5,3.6,5.6,3.8c0.9,0.3,0.9,0.8-0.1,1.9c-1.1,1.4-1.6,1.3-4.5-1.4c-3.8-3.5-8.7-6.3-8.7-4.9c0,0.6-0.7,0.7-1.7,0.4
		c-1.1-0.5-1.4-0.3-0.8,0.6c0.6,1,0.3,1.1-1.3,0.2c-2.8-1.5-3.2-1.4-3.2,0.9c0,1.1-0.4,2-1,2c-0.5,0-1.4,1.8-2,4
		C114.8,89.3,114,90.2,114,87.1z M133,78.6c0-0.3-0.5-0.8-1.2-1.2s-0.8-0.3-0.4,0.4C132.1,79,133,79.4,133,78.6z"/>
</g>
<g id="layer113">
	<path class="st12" d="M9.9,357.3c-0.2-6.1,0.1-18.1,0.7-23.3c0.3-3,0.7-7.2,0.8-9.2c0.1-2,0.5-4,1-4.5c0.5-0.4,0.6,2.3,0.2,6.2
		c-1.8,17.5-2.2,28.1-1.2,29.7c1.1,1.8,1.1,1.8,11.6,1.9c8.3,0,10.9-0.3,12.8-1.5c0.8-0.5,2.1-0.1,3.2,0.9c1.8,1.6,1.9,1.5,2.2-1.2
		c0.3-2.3,0.6-2.5,1.2-1c2,4.3,0.6,4.7-16.4,4.7H10L9.9,357.3z"/>
	<path class="st12" d="M209,348.6c0-7.1,0.4-11.7,1.1-12.1c1.9-1.3,2.2,0.4,1.3,8.5c-0.8,6.1-0.7,8.8,0.3,11.2
		c1.7,3.9,1.7,3.8-0.7,3.8C209.1,360,209,359.3,209,348.6z"/>
	<path class="st12" d="M217,359c0-1.8,3.7-3.1,4.8-1.7c0.8,0.9,3.8,1.3,9.2,1.2c4.5-0.1,8.4,0.3,8.6,0.7c0.3,0.4-4.7,0.8-11,0.8
		C221.8,360,217,359.6,217,359z"/>
	<path class="st12" d="M242,359.1c0-0.6,0.5-1.3,1-1.6c0.6-0.3,1,0.1,1,0.9c0,0.9-0.4,1.6-1,1.6C242.5,360,242,359.6,242,359.1z"/>
	<path class="st12" d="M243.4,352.4c-1.3-1.9-1.4-2.8-0.5-3.7c0.8-0.8,1.1-0.5,1.1,1.4c0,1.4,0.5,3,1.2,3.7c0.7,0.7,0.9,1.2,0.5,1.2
		C245.4,355,244.3,353.9,243.4,352.4z"/>
	<path class="st12" d="M41.2,348c0-1.9,0.2-2.7,0.5-1.7c0.2,0.9,0.2,2.5,0,3.5C41.4,350.7,41.2,349.9,41.2,348z"/>
	<path class="st12" d="M242,337c0-4.6,0.3-8,0.7-7.7c0.7,0.7,0.4,14.9-0.3,15.6C242.2,345.1,242,341.6,242,337z"/>
	<path class="st12" d="M41.3,330c0-3.6,0.2-5,0.4-3.2c0.2,1.7,0.2,4.7,0,6.5C41.5,335,41.3,333.6,41.3,330z"/>
	<path class="st12" d="M209.8,328.3c-0.4-10-0.3-13.3,0.4-13.3c0.5,0,0.8,3.8,0.8,8.5C211,331.9,210.1,335.5,209.8,328.3z"/>
	<path class="st12" d="M241.2,322.5c0-1.6,0.2-2.2,0.5-1.2c0.2,0.9,0.2,2.3,0,3C241.4,324.9,241.2,324.2,241.2,322.5z"/>
	<path class="st12" d="M13,315.6c0-1.9,0.3-3.7,0.8-4c0.4-0.2,0.6,1.3,0.4,3.5C13.7,319.9,13,320.2,13,315.6z"/>
	<path class="st12" d="M210.1,311.4c0-1.1,0.3-1.4,0.6-0.6c0.3,0.7,0.2,1.6-0.1,1.9C210.3,313.1,210,312.5,210.1,311.4z"/>
	<path class="st12" d="M242.2,310c0-1.4,0.2-1.9,0.5-1.2c0.2,0.6,0.2,1.8,0,2.5C242.4,311.9,242.2,311.4,242.2,310z"/>
	<path class="st12" d="M13.5,305c0.3-0.5,0.8-1,1.1-1s0.2,0.5-0.1,1c-0.3,0.6-0.8,1-1.1,1C13.1,306,13.2,305.6,13.5,305z"/>
	<path class="st12" d="M14,295c0-0.7,0.3-1,0.7-0.7c0.3,0.4,0.3,1,0,1.4C14.3,296,14,295.7,14,295z"/>
	<path class="st12" d="M15,290c0-0.7,0.3-1,0.7-0.7c0.3,0.4,0.3,1,0,1.4C15.3,291,15,290.7,15,290z"/>
	<path class="st12" d="M16,279c0-0.7,0.3-1,0.7-0.7c0.3,0.4,0.3,1,0,1.4C16.3,280,16,279.7,16,279z"/>
	<path class="st12" d="M112.4,202.9c-0.9-1.6,0.2-2.2,2.1-1.1c1.5,0.8,1.6,1,0.1,1.5C113.8,203.6,112.8,203.5,112.4,202.9z"/>
	<path class="st12" d="M121.7,203.2c-1.1-0.5,0.5-1.2,4.9-2c3.7-0.7,6.9-1,7.2-0.7s-0.4,0.5-1.4,0.5c-1.1,0-2.9,0.7-4,1.5
		C126.3,204.1,124.5,204.3,121.7,203.2z"/>
	<path class="st12" d="M106.4,201.9c-0.3-0.5,0.6-0.9,2-0.9c3.1,0,3.4,0.6,0.6,1.3C107.9,202.6,106.7,202.4,106.4,201.9z"/>
	<path class="st12" d="M99,199.2c-2.5-0.8-3.9-1.7-3.3-1.9c0.7-0.3,3.1,0.5,5.5,1.6C106.3,201.2,105.3,201.4,99,199.2z"/>
	<path class="st12" d="M136,199c3.5-2.4,5.4-3.1,3-1.1c-1.4,1.1-2.9,2.1-3.5,2.1C135,200,135.2,199.5,136,199z"/>
	<path class="st12" d="M90.3,196.8c0.1-0.7-0.6-1.2-1.5-1.2c-1,0.1-1.6-0.3-1.5-1c0.1-0.6-0.6-1-1.7-0.9c-1.3,0.1-1.5-0.2-0.7-1
		c1.1-1.1,8.3,3.1,7.5,4.5C91.6,198.5,90,198.1,90.3,196.8z"/>
	<path class="st12" d="M110,197c0-0.5,0.5-1,1-1c0.6,0,1,0.5,1,1c0,0.6-0.4,1-1,1C110.5,198,110,197.6,110,197z"/>
	<path class="st12" d="M143.5,196.1c-0.3-0.5-0.2-1.2,0.3-1.5s0.9,0.1,0.9,0.9C144.7,197.2,144.4,197.4,143.5,196.1z"/>
	<path class="st12" d="M147,194.2c0-1.4,3.6-4.3,4.3-3.5c0.4,0.3,0,1.5-1,2.5C148.6,195.1,147,195.6,147,194.2z"/>
	<path class="st12" d="M84.2,188.5c0.1-1.6,0.7-3.7,1.4-4.5c0.6-0.8,1.4-2.2,1.8-3c1.3-3-0.3,2.6-1.8,6.5
		C84.1,191.2,84,191.3,84.2,188.5z"/>
	<path class="st12" d="M144,188c0-0.5,0.5-1,1-1c0.6,0,1,0.5,1,1c0,0.6-0.4,1-1,1C144.5,189,144,188.6,144,188z"/>
	<path class="st12" d="M150.1,182.4c0-1.1,0.3-1.4,0.6-0.6c0.3,0.7,0.2,1.6-0.1,1.9C150.3,184.1,150,183.5,150.1,182.4z"/>
	<path class="st12" d="M148.4,176.8c-0.4-0.7-0.3-0.8,0.4-0.4c1.2,0.7,1.6,1.6,0.8,1.6C149.3,178,148.8,177.5,148.4,176.8z"/>
	<path class="st12" d="M89,169c0-0.7,0.3-1,0.7-0.7c0.3,0.4,0.3,1,0,1.4C89.3,170,89,169.7,89,169z"/>
	<path class="st12" d="M88.6,164.2c-0.4-1.3-0.5-2.6-0.2-2.9c1-1.1,1.8,0.4,1.4,2.9l-0.4,2.3L88.6,164.2z"/>
	<path class="st12" d="M148.6,158.8c0.9-8.2,1.4-8.6,1.4-1c0,3.3-0.5,6.4-1.1,6.7C148.2,165,148.1,163.2,148.6,158.8z"/>
	<path class="st12" d="M104.5,161c0.4-0.6,1.1-0.8,1.6-0.5c1.4,0.9,1.1,1.5-0.7,1.5C104.6,162,104.2,161.5,104.5,161z"/>
	<path class="st12" d="M98.8,160.3c0.7-0.3,1.6-0.2,1.9,0.1c0.4,0.3-0.2,0.6-1.3,0.5C98.3,160.9,98,160.6,98.8,160.3z"/>
	<path class="st12" d="M120,160.6c0-1,2.8-1.3,4.1-0.5c1,0.6,0.7,0.9-1.3,0.9C121.2,161,120,160.8,120,160.6z"/>
	<path class="st12" d="M93.3,159.3c0.4-0.3,1-0.3,1.4,0c0.3,0.4,0,0.7-0.7,0.7C93.3,160,93,159.7,93.3,159.3z"/>
	<path class="st12" d="M126.8,159.3c0.7-0.3,1.6-0.2,1.9,0.1c0.4,0.3-0.2,0.6-1.3,0.5C126.3,159.9,126,159.6,126.8,159.3z"/>
	<path class="st12" d="M134.5,156.4c1.7-0.8,3.9-2.3,5.1-3.2c1.1-0.9,0.5-0.2-1.5,1.6c-1.9,1.7-4.1,3.2-5,3.2
		C132.2,158,132.9,157.3,134.5,156.4z"/>
	<path class="st12" d="M149,143c0-0.7,0.3-1,0.7-0.7c0.3,0.4,0.3,1,0,1.4C149.3,144,149,143.7,149,143z"/>
	<path class="st12" d="M147.5,138c0.3-0.5,0.8-1,1.1-1s0.2,0.5-0.1,1c-0.3,0.6-0.8,1-1.1,1C147.1,139,147.2,138.6,147.5,138z"/>
	<path class="st12" d="M150.1,132.4c0-1.1,0.3-1.4,0.6-0.6c0.3,0.7,0.2,1.6-0.1,1.9C150.3,134.1,150,133.5,150.1,132.4z"/>
	<path class="st12" d="M151.2,120c0-1.4,0.2-1.9,0.5-1.2c0.2,0.6,0.2,1.8,0,2.5C151.4,121.9,151.2,121.4,151.2,120z"/>
	<path class="st12" d="M89.7,118.4c-0.5-0.5-1.3-1-1.8-1c-0.5-0.1-1.1-0.3-1.4-0.4c-0.3-0.1-0.9-0.3-1.3-0.4
		c-3.1-0.4-8.3-5.6-9.7-9.6c-0.9-2.5-1.9-5.2-2.2-6c-0.4-0.8-0.5-2.2-0.4-3.1s-0.2-3.4-0.7-5.7c-0.8-3.6-0.7-4.3,1.2-6.1
		c1.2-1.2,2.9-2.1,3.7-2.1c0.9,0,1.9-0.3,2.3-0.7c1.2-1.2,8.9-3.3,9.8-2.7c0.5,0.3,0.6,1.4,0.3,2.4c-0.3,1.1,0,2.2,0.9,2.7
		c3.1,1.8,1.7,12.4-2,14.8c-1.4,0.9-2.5,1.1-2.9,0.5s-1.1-0.7-1.7-0.4c-0.7,0.5-0.8,0.2-0.3-0.6c0.6-0.9,0.4-1.2-0.6-0.8
		c-1.1,0.4-1.4-0.4-1.4-3.3c0-4.4,1-5.2,1.7-1.4c0.3,1.4,0,2.5-0.6,2.6c-0.6,0-0.2,0.4,0.9,0.8c3.3,1.3,5.2,0.1,6.4-4
		c1-3.3,0.9-4.5-0.5-7.5c-1-2.1-2.2-3.3-3-3c-0.7,0.3-1.5,0-1.7-0.7c-0.2-0.7-0.7,0.9-1.1,3.6c-0.4,2.6-1.1,4.5-1.5,4.2
		c-0.5-0.2-0.6-1.6-0.3-3c0.4-2.1,0.1-2.5-2-2.5c-5,0-6.1,2-5.6,10.1c0.7,9.8,4.2,17.5,7.8,17.1c1.7-0.1,2.1,0.1,1.2,0.7
		c-1,0.6-0.2,1.3,2.8,2.5c3.8,1.5,8.8,1.6,22.8,0.4c0.6-0.1,1.2-0.6,1.2-1.2c0-0.6,0.4-0.5,0.9,0.3c0.7,1.1,2.8,1.2,10.5,0.6
		c5.3-0.4,9.6-1.1,9.6-1.7c0-0.5,0.5-0.6,1-0.3c0.6,0.4,1.7,0.1,2.5-0.5c0.8-0.7,1.5-0.9,1.5-0.6c0,1.4,2.6-1.8,2.7-3.3
		c0.4-3.8,2.2-12.2,2.9-13.3c1.2-2,1.5-6.6,0.4-7.3c-0.6-0.4-0.7-1.1-0.4-1.7c0.5-0.7,0.1-0.9-0.9-0.5c-1.2,0.4-1.7,0.1-1.7-1
		c0-0.9-0.3-1.4-0.6-1.1c-0.3,0.3-1.7-0.5-3.2-1.9s-4-3.4-5.7-4.4c-2-1.3-2.4-1.9-1.3-1.9c0.9,0,2,0.5,2.3,1c0.4,0.6,1,0.8,1.4,0.6
		c0.4-0.3,3.3,1.9,6.4,4.9c5.5,5.2,6.7,8,5.8,12.9c-0.1,0.6-0.4,2.4-0.5,4.1c-0.2,1.7-0.8,4-1.4,5.2c-0.7,1.2-1.2,2.8-1.2,3.7
		c0,1.6-6.9,7.8-8,7.1c-0.4-0.2-2.4,0-4.5,0.6c-2.1,0.6-6.7,1.2-10.4,1.4c-3.6,0.1-11.3,0.6-17.1,1
		C95.2,118.9,90.1,118.8,89.7,118.4z M86.7,99.3c-0.4-0.3-0.7,0-0.7,0.7c0,0.7,0.3,1,0.7,0.7C87,100.3,87,99.7,86.7,99.3z
		 M88.7,81.3C88.3,81,88,81.3,88,82c0,0.7,0.3,1,0.7,0.7C89,82.3,89,81.7,88.7,81.3z"/>
	<path class="st12" d="M151.6,106.8c-0.9-3.5-0.7-4.1,0.8-3.5c0.9,0.4,1.7-0.1,1.9-1.1c0.4-1.5,0.5-1.5,0.6-0.1
		c0,0.9-0.5,2.9-1.3,4.3l-1.3,2.7L151.6,106.8z"/>
	<path class="st12" d="M117.4,97.2c-1.3-0.9-4.4-5.4-4.4-6.4c0-0.5,0.5-0.8,1-0.8c0.6,0,1,0.7,1,1.5c0,0.8,0.9,2.4,2.1,3.6
		c1.6,1.6,2.3,1.8,3.5,0.8c2.4-2,3.6-4.9,3.9-9.6c0.2-3.8-0.1-4.6-2.1-5.5c-3.3-1.5-2.8-4.8,0.8-4.8c1.5,0,2.8,0.4,2.8,1
		c0,0.5-0.7,0.6-1.7,0.3c-1.1-0.4-1.4-0.3-0.9,0.5c0.5,0.8,0.1,1-1.1,0.6c-1.6-0.5-1.6-0.4,0.1,1c1.1,0.9,2.3,1.6,2.7,1.6
		c1.4,0,1.9,3.2,0.8,5.2c-0.6,1.1-0.7,2.3-0.3,2.7c1.5,1.1,1.3,4-0.2,3.4c-1-0.3-1.2,0-0.8,1c0.3,1-0.5,2-2.7,3.1
		c-1.8,0.9-3.3,1.6-3.3,1.6C118.5,98,118,97.6,117.4,97.2z"/>
	<path class="st12" d="M78,92c0-0.7,0.3-1,0.7-0.7c0.3,0.4,0.3,1,0,1.4C78.3,93,78,92.7,78,92z"/>
	<path class="st12" d="M114.2,87.3c-0.1-1.2-0.5-2.9-0.9-3.9c-0.5-1.3-0.3-1.5,0.7-0.9s1.2,0.4,0.7-0.9c-0.4-0.9-0.3-1.5,0.2-1.2
		s1.1,0,1.4-0.8c0.5-1.2,0-1.2-2.6-0.5c-2.7,0.8-3.5,0.6-4.9-1.1c-0.9-1.1-2.1-2-2.7-2c-0.6,0-0.7-0.7-0.4-1.7c0.4-1,0.2-1.4-0.4-1
		c-0.8,0.5-0.8-0.2,0-2.3c0.7-1.8,1.9-3,3-3c1,0,1.5-0.4,1.2-1c-0.3-0.5,0-1,0.8-1c0.8,0,1.7,0.7,2.1,1.5c0.3,1-0.1,1.5-1.3,1.5
		c-1,0-2.5,0.8-3.4,1.8c-1.5,1.6-1.4,2,0.9,4.9c2.2,2.8,2.8,3.1,5,2.3c5.4-2.1,7.3-0.1,3.5,3.4c-1.1,1-2.2,3.2-2.4,5
		C114.5,88.2,114.3,88.6,114.2,87.3z"/>
	<path class="st12" d="M92.5,79.6c1.1-0.8,2.3-1.2,2.8-0.9c1.3,0.8-0.3,2.3-2.6,2.3C90.7,81,90.7,81,92.5,79.6z"/>
	<path class="st12" d="M93,75c0-0.6-1-1.5-2.2-2c-2-0.8-1.9-0.9,1.1-0.7c2,0.1,3.6-0.4,3.9-1.1c0.2-0.6,1.1-1.2,2-1.2
		c1.3,0,1.2,0.3-0.4,1.9c-1,1-2.3,1.6-2.8,1.3c-0.5-0.3-0.7,0.2-0.3,1.1c0.3,1,0.2,1.7-0.3,1.7C93.4,76,93,75.5,93,75z"/>
	<path class="st12" d="M86.2,72.1c-1.1-0.7-1.1-0.9,0-1.4c0.9-0.3,1.5,0.1,1.5,0.9c0,0.8-0.1,1.4-0.1,1.4
		C87.5,73,86.9,72.6,86.2,72.1z"/>
	<path class="st12" d="M89,69.6c0-0.2,0.7-0.7,1.6-1c0.8-0.3,1.2-0.2,0.9,0.4C90.9,70,89,70.4,89,69.6z"/>
	<path class="st12" d="M93.3,67.3c0.4-0.3,1-0.3,1.4,0c0.3,0.4,0,0.7-0.7,0.7C93.3,68,93,67.7,93.3,67.3z"/>
	<path class="st12" d="M97.9,65.9c1.6-0.6,2.8-0.6,3.5,0.1c0.7,0.7-0.1,1-2.4,0.9C95.7,66.9,95.6,66.8,97.9,65.9z"/>
</g>
<path class="st13" d="M94.5,132.8c0-0.2,0.1-0.4,0.2-0.6c0.1-0.2,0.2-0.4,0.3-0.5c0.1-0.1,0.2-0.3,0.4-0.5c0.2-0.2,0.4-0.4,0.6-0.5
	c0.2-0.1,0.3-0.2,0.5-0.4c0.2-0.1,0.4-0.2,0.6-0.3c0.5-0.2,0.9-0.4,1.4-0.6c0.3-0.1,0.6-0.2,0.9-0.3c0.5-0.1,0.9-0.3,1.3-0.3
	c0.3-0.1,0.6-0.2,1-0.2c0.3-0.1,0.7-0.1,1-0.2c0.5-0.1,0.9-0.2,1.4-0.2c0.7-0.1,1.4-0.1,2-0.1c0.6,0,1.2-0.1,1.8-0.1
	c0.8,0,1.5,0,2.2,0c0.5,0,1,0.1,1.5,0.1c0.5,0.1,0.9,0.2,1.4,0.3c0.2,0,0.4,0.1,0.7,0.2c0.3,0.1,0.6,0.3,0.8,0.4
	c0,0.2,0.1,0.5,0.1,0.9c0,0.1,0,0.3,0,0.4c-0.1,0.5-0.4,1-0.4,1l0,0c-0.1,0.2-0.3,0.4-0.6,0.6c-0.4,0.3-0.8,0.5-1,0.6
	c-0.3,0.2-0.8,0.4-1.2,0.6c-0.3,0.1-0.7,0.2-1,0.3c-0.7,0.2-1.4,0.4-2.1,0.6c-0.7,0.2-1.3,0.3-2,0.5c0,0-1.5,0.3-1.5,0.3
	c0,0-2.2,0.5-2.2,0.5c-0.6,0.2-1.3,0.3-2.1,0.5c-0.9,0.1-1.8,0.2-2.5,0.1c-0.3,0-0.7,0.1-1.2,0c-0.4-0.1-0.6-0.2-1-0.3
	c-0.1,0-0.2-0.1-0.3-0.2c-0.1-0.1-0.2-0.1-0.3-0.2c0,0-0.1-0.1-0.1-0.1c-0.1-0.1-0.2-0.2-0.2-0.2c0,0-0.1-0.1-0.1-0.2
	c-0.1-0.1-0.1-0.2-0.1-0.3c0-0.1-0.1-0.1-0.1-0.2c0-0.1-0.1-0.3-0.1-0.4c0-0.1-0.1-0.3-0.1-0.5C94.4,133.2,94.4,133,94.5,132.8z"/>
</svg>
