<!DOCTYPE svg PUBLIC "-//W3C//DTD SVG 20010904//EN" "http://www.w3.org/TR/2001/REC-SVG-20010904/DTD/svg10.dtd">
<svg version="1.0" xmlns="http://www.w3.org/2000/svg" width="257px" height="360px" viewBox="0 0 2570 3600" preserveAspectRatio="xMidYMid meet">
<g id="layer101" fill="#3c2531" stroke="none">
<path d="M80 3576 c0 -72 83 -818 95 -853 2 -7 -9 -13 -28 -15 l-32 -3 -8 -80 c-11 -107 -2 -311 14 -357 38 -102 118 -168 299 -249 116 -52 310 -103 369 -97 l38 3 22 -85 c12 -47 26 -122 30 -166 5 -45 11 -86 14 -91 3 -5 -15 -27 -40 -48 -59 -50 -89 -116 -103 -230 -23 -192 -69 -432 -90 -467 -11 -19 -25 -71 -31 -115 -14 -98 4 -204 52 -303 46 -94 170 -215 269 -263 110 -54 176 -68 340 -74 141 -5 147 -5 215 22 144 58 203 112 176 163 -8 14 -8 29 -1 47 16 42 12 108 -12 181 -20 61 -23 90 -23 244 0 163 -2 179 -24 228 -14 32 -29 51 -36 48 -7 -2 -23 10 -35 27 -20 26 -25 52 -36 181 -24 276 -18 495 17 623 l11 41 33 -22 32 -22 279 57 c321 65 396 88 479 144 88 59 101 88 109 248 5 115 18 237 42 396 l7 44 -53 -7 -53 -7 7 273 c3 150 13 345 21 433 8 88 15 163 15 168 0 4 -535 7 -1190 7 l-1190 0 0 -24z m996 -2233 c94 -25 101 -63 11 -63 -94 0 -155 28 -141 64 8 21 48 21 130 -1z m-199 -400 c-4 -3 -7 0 -7 7 0 7 3 10 7 7 3 -4 3 -10 0 -14z"/>
</g>
<g id="layer102" fill="#552621" stroke="none">
<path d="M80 3576 c0 -72 83 -818 95 -853 2 -7 -9 -13 -28 -15 l-32 -3 -8 -80 c-11 -107 -2 -311 14 -357 38 -102 118 -168 299 -249 116 -52 310 -103 369 -97 l38 3 22 -85 c12 -47 26 -122 30 -168 5 -46 11 -86 15 -89 3 -3 0 -13 -7 -21 -10 -13 -8 -14 13 -8 l25 7 -23 -14 c-12 -7 -19 -17 -15 -22 4 -4 2 -5 -5 -1 -14 8 -31 -29 -29 -60 1 -13 -5 -19 -18 -19 -33 -1 -45 -14 -40 -43 5 -26 5 -26 -5 -3 -8 17 -7 28 2 40 12 14 11 14 -4 3 -12 -10 -16 -23 -12 -45 4 -22 3 -28 -4 -19 -7 11 -10 8 -14 -12 -3 -14 -1 -23 3 -20 5 3 9 -13 9 -34 0 -26 -5 -42 -15 -46 -8 -3 -15 -13 -15 -21 0 -10 5 -13 12 -9 8 5 9 -3 5 -29 -3 -21 -2 -37 4 -37 9 0 13 15 10 34 -1 5 5 4 13 -4 21 -17 21 -17 -15 -36 -17 -8 -28 -11 -25 -6 4 6 1 14 -5 18 -9 5 -10 -1 -5 -20 4 -16 2 -26 -5 -26 -7 0 -9 -10 -5 -27 4 -15 3 -29 -4 -33 -5 -3 -11 -32 -13 -63 -1 -31 -5 -57 -9 -57 -4 0 -5 -14 -1 -32 5 -24 3 -29 -7 -23 -10 6 -11 2 -6 -19 4 -18 3 -25 -3 -22 -17 11 -41 -50 -53 -132 -13 -97 5 -204 53 -302 46 -94 170 -215 269 -263 110 -54 176 -68 340 -74 141 -5 147 -5 215 22 144 58 203 112 176 163 -8 14 -8 29 -1 47 16 42 12 108 -12 181 -20 61 -23 90 -23 244 0 163 -2 179 -24 228 -14 32 -29 51 -36 48 -7 -2 -23 10 -35 27 -20 26 -25 52 -36 181 -24 276 -18 495 17 623 l11 41 33 -22 32 -22 279 57 c321 65 396 88 479 144 88 59 101 88 109 248 5 115 18 237 42 396 l7 44 -53 -7 -53 -7 7 273 c3 150 13 345 21 433 8 88 15 163 15 168 0 4 -535 7 -1190 7 l-1190 0 0 -24z m957 -2012 c-3 -3 -12 -4 -19 -1 -8 3 -5 6 6 6 11 1 17 -2 13 -5z m250 -21 c-4 -3 -10 -3 -14 0 -3 4 0 7 7 7 7 0 10 -3 7 -7z m-30 -20 c-4 -3 -10 -3 -14 0 -3 4 0 7 7 7 7 0 10 -3 7 -7z m60 0 c-4 -3 -10 -3 -14 0 -3 4 0 7 7 7 7 0 10 -3 7 -7z m-440 -35 c-3 -8 -6 -5 -6 6 -1 11 2 17 5 13 3 -3 4 -12 1 -19z m510 16 c-3 -4 -2 -15 3 -25 7 -12 7 -20 0 -24 -6 -4 -10 -3 -9 2 4 22 -2 34 -13 27 -9 -5 -9 -2 1 9 7 9 16 17 19 17 3 0 2 -3 -1 -6z m-203 -70 c3 -9 6 -21 5 -27 0 -7 -5 -1 -10 12 -6 15 -15 21 -24 17 -8 -3 -15 -1 -15 4 0 16 37 11 44 -6z m-283 -14 c31 -26 15 -26 -18 0 -14 11 -21 20 -15 20 5 0 20 -9 33 -20z m34 2 c-3 -3 -11 0 -18 7 -9 10 -8 11 6 5 10 -3 15 -9 12 -12z m102 4 c23 0 45 -5 50 -10 4 -4 -17 -5 -47 -2 -30 3 -63 6 -72 6 -10 1 -18 5 -18 10 0 5 10 6 23 3 12 -3 41 -6 64 -7z m-83 -32 c3 -8 2 -12 -4 -9 -6 3 -10 10 -10 16 0 14 7 11 14 -7z m-60 -24 c-6 -6 -10 -3 -10 10 0 13 4 16 10 10 7 -7 7 -13 0 -20z m303 3 c-4 -3 -7 0 -7 7 0 7 3 10 7 7 3 -4 3 -10 0 -14z m-405 -30 c-5 -24 -6 -25 -12 -8 -6 16 2 33 16 35 1 0 -1 -12 -4 -27z m280 0 c70 -17 80 -27 71 -62 -5 -21 -23 -30 -23 -11 0 6 -16 10 -35 10 -26 0 -33 -3 -29 -15 4 -8 1 -15 -5 -15 -6 0 -11 5 -11 10 0 6 -12 10 -26 10 -14 0 -23 4 -20 9 6 10 -14 20 -54 28 -31 5 -39 13 -14 13 16 0 16 2 4 10 -9 5 -19 5 -25 0 -8 -6 -12 -5 -12 4 0 9 8 13 23 10 18 -3 22 -1 18 10 -7 18 31 15 138 -11z m116 -27 c-10 -7 -18 -18 -18 -25 0 -6 -5 -11 -10 -11 -14 0 5 36 22 43 22 9 24 7 6 -7z m-250 -20 c12 0 22 -2 22 -6 0 -4 -15 -6 -33 -6 -20 1 -34 6 -34 13 0 7 5 9 11 5 6 -5 21 -7 34 -6z m519 -13 c-4 -3 -7 0 -7 7 0 7 3 10 7 7 3 -4 3 -10 0 -14z m-660 -10 c-4 -3 -7 0 -7 7 0 7 3 10 7 7 3 -4 3 -10 0 -14z m660 -80 c-4 -3 -7 0 -7 7 0 7 3 10 7 7 3 -4 3 -10 0 -14z m-16 -32 c6 10 8 7 7 -11 -2 -16 2 -24 10 -22 6 1 12 -2 12 -8 0 -5 -10 -8 -21 -7 -16 3 -23 12 -24 33 -2 16 -1 23 2 15 5 -11 7 -11 14 0z m26 -138 c-4 -3 -7 0 -7 7 0 7 3 10 7 7 3 -4 3 -10 0 -14z m20 -30 c-4 -3 -7 0 -7 7 0 7 3 10 7 7 3 -4 3 -10 0 -14z m-10 -30 c-4 -3 -7 0 -7 7 0 7 3 10 7 7 3 -4 3 -10 0 -14z m-600 -20 c-4 -3 -7 0 -7 7 0 7 3 10 7 7 3 -4 3 -10 0 -14z m633 -8 c0 -7 -39 -45 -45 -45 -3 0 2 11 11 25 14 22 34 34 34 20z m-643 -32 c-4 -3 -10 -3 -14 0 -3 4 0 7 7 7 7 0 10 -3 7 -7z m338 -31 c-3 -3 -11 0 -18 7 -9 10 -8 11 6 5 10 -3 15 -9 12 -12z m-481 -44 c-6 -9 57 -39 68 -32 12 7 2 -26 -12 -39 -7 -6 -10 -7 -7 -2 3 6 -7 19 -22 30 -36 23 -55 52 -35 52 7 0 11 -4 8 -9z m173 -65 c-4 -3 -7 0 -7 7 0 7 3 10 7 7 3 -4 3 -10 0 -14z m-37 -3 c0 -5 -4 -10 -10 -10 -5 0 -10 5 -10 10 0 6 5 10 10 10 6 0 10 -4 10 -10z m37 -16 c-3 -3 -12 -4 -19 -1 -8 3 -5 6 6 6 11 1 17 -2 13 -5z m332 -40 c-13 -16 -39 -19 -39 -4 0 6 10 10 22 10 21 0 21 0 2 16 -18 14 -18 15 4 4 19 -9 21 -14 11 -26z m-92 9 c-4 -3 -10 -3 -14 0 -3 4 0 7 7 7 7 0 10 -3 7 -7z"/>
<path d="M775 780 c3 -5 8 -10 11 -10 3 0 2 5 -1 10 -3 6 -8 10 -11 10 -3 0 -2 -4 1 -10z"/>
</g>
<g id="layer103" fill="#492836" stroke="none">
<path d="M80 3576 c0 -72 83 -818 95 -853 2 -7 -9 -13 -28 -15 l-32 -3 -8 -80 c-11 -107 -2 -311 14 -357 38 -102 118 -168 299 -249 116 -52 310 -103 369 -97 l38 3 22 -85 c12 -47 26 -123 30 -169 5 -46 14 -87 21 -91 6 -4 30 -1 53 7 31 11 76 14 173 11 126 -3 133 -5 200 -38 117 -59 141 -116 164 -395 21 -255 21 -242 4 -249 -12 -5 -15 -2 -10 9 3 10 2 13 -5 10 -5 -4 -7 -15 -4 -26 4 -13 2 -19 -8 -19 -11 0 -17 17 -22 63 -13 122 -37 172 -95 202 -34 18 -358 40 -447 30 -119 -13 -166 -72 -182 -234 -9 -86 -21 -133 -21 -83 0 11 -5 24 -11 28 -9 5 -10 -1 -5 -20 4 -18 3 -25 -3 -22 -17 11 -41 -50 -53 -132 -13 -97 5 -204 53 -302 46 -94 170 -215 269 -263 110 -54 176 -68 340 -74 141 -5 147 -5 215 22 144 58 203 112 176 163 -8 14 -8 29 -1 47 16 42 12 108 -12 181 -20 61 -23 90 -23 244 0 163 -2 179 -24 228 -14 32 -29 51 -36 48 -7 -2 -23 10 -35 27 -20 26 -25 52 -36 181 -24 276 -18 495 17 623 l11 41 33 -22 32 -22 279 57 c321 65 396 88 479 144 88 59 101 88 109 248 5 115 18 237 42 396 l7 44 -53 -7 -53 -7 7 273 c3 150 13 345 21 433 8 88 15 163 15 168 0 4 -535 7 -1190 7 l-1190 0 0 -24z m1490 -2590 c0 -2 -8 -10 -17 -17 -16 -13 -17 -12 -4 4 13 16 21 21 21 13z m-683 -37 c18 -34 16 -74 -3 -90 -14 -11 -19 -10 -35 10 -21 26 -25 81 -7 99 16 16 30 10 45 -19z m328 -9 c3 -5 0 -10 -8 -10 -8 0 -20 -6 -26 -14 -10 -11 -7 -18 11 -31 l23 -17 -22 7 c-26 7 -32 -15 -10 -34 20 -16 37 6 38 48 l1 36 9 -32 c19 -65 -33 -116 -59 -58 -13 28 -16 74 -6 99 7 18 39 22 49 6z m-367 -131 c61 -16 82 -26 82 -39 0 -25 -43 -44 -77 -35 -15 5 -34 7 -42 6 -7 -1 -10 2 -6 9 4 6 13 9 21 6 8 -3 14 -1 14 4 0 6 5 10 11 10 6 0 8 -7 5 -16 -5 -12 -2 -15 10 -10 8 3 22 6 30 6 8 0 14 8 14 18 0 14 -2 15 -10 2 -8 -12 -10 -12 -10 -1 0 8 -3 12 -6 8 -4 -3 -22 0 -41 8 -34 14 -58 12 -48 -5 3 -4 -3 -14 -12 -21 -9 -8 -14 -9 -11 -4 4 6 -6 19 -21 30 -16 10 -33 26 -39 36 -10 15 -7 17 21 14 18 -2 69 -13 115 -26z m359 -50 c34 -6 61 -14 58 -19 -2 -4 -17 -5 -32 -3 -24 4 -26 3 -10 -7 14 -9 16 -15 6 -26 -13 -16 -39 -19 -39 -4 0 6 9 10 20 10 l20 0 -20 20 c-27 27 -81 27 -98 -1 -12 -18 -11 -20 5 -15 10 3 29 -1 43 -9 l25 -14 -33 -1 c-61 0 -92 36 -60 68 15 15 34 15 115 1z"/>
<path d="M852 948 c-18 -18 -15 -38 6 -38 14 0 15 -2 2 -10 -13 -8 -12 -10 3 -10 15 0 17 6 13 31 -6 38 -9 42 -24 27z"/>
<path d="M734 816 c11 -9 26 -16 34 -16 7 0 11 -4 7 -9 -3 -5 -2 -12 3 -15 4 -2 8 4 9 14 1 10 -6 20 -15 23 -9 3 -26 8 -37 12 -20 7 -20 6 -1 -9z"/>
<path d="M985 1574 c-80 -24 -105 -36 -98 -47 3 -6 1 -7 -5 -3 -14 8 -31 -30 -29 -60 1 -13 -5 -19 -18 -19 -33 -1 -45 -14 -40 -43 5 -26 5 -26 -5 -3 -8 17 -7 28 2 40 12 14 11 14 -4 3 -12 -10 -16 -23 -12 -45 4 -22 3 -28 -4 -19 -7 11 -10 8 -14 -12 -3 -14 -1 -23 3 -20 5 3 9 -13 9 -34 0 -26 -5 -42 -15 -46 -8 -3 -15 -13 -15 -21 0 -10 5 -13 12 -9 8 5 9 -3 5 -29 -3 -21 -2 -37 4 -37 8 0 13 15 10 33 -2 11 5 8 18 -7 10 -12 7 -18 -19 -31 -18 -9 -29 -12 -26 -7 4 6 1 14 -5 18 -9 5 -10 -1 -5 -20 4 -15 2 -26 -4 -26 -14 0 -13 -27 1 -36 7 -4 10 -1 7 7 -7 20 60 78 102 89 87 23 410 13 499 -16 24 -7 49 -11 55 -7 6 3 8 3 4 -2 -4 -4 2 -16 14 -26 27 -24 31 -24 18 2 -7 11 -9 23 -6 27 3 3 6 -1 6 -9 0 -12 2 -11 10 1 8 12 10 11 8 -5 -2 -11 2 -22 7 -25 13 -7 19 130 7 142 -6 6 -7 27 -5 49 3 21 2 39 -3 39 -5 0 -10 16 -12 36 -3 44 -10 57 -28 50 -8 -3 -11 0 -8 9 7 16 -30 68 -40 58 -3 -3 -6 -1 -6 5 0 7 -7 12 -15 12 -8 0 -15 5 -15 11 0 8 -11 9 -32 5 -21 -4 -28 -3 -19 3 23 15 -88 41 -171 40 -40 0 -95 -7 -123 -15z m52 -10 c-3 -3 -12 -4 -19 -1 -8 3 -5 6 6 6 11 1 17 -2 13 -5z m220 -41 c-4 -3 -10 -3 -14 0 -3 4 0 7 7 7 7 0 10 -3 7 -7z m60 0 c-4 -3 -10 -3 -14 0 -3 4 0 7 7 7 7 0 10 -3 7 -7z m-440 -35 c-3 -8 -6 -5 -6 6 -1 11 2 17 5 13 3 -3 4 -12 1 -19z m513 -7 c7 -14 7 -22 0 -26 -6 -4 -10 -3 -9 2 4 21 -2 34 -13 27 -7 -4 -8 -3 -4 4 10 16 14 15 26 -7z m-206 -47 c3 -9 6 -21 5 -27 0 -7 -5 -1 -10 12 -6 15 -15 21 -24 17 -8 -3 -15 -1 -15 4 0 16 37 11 44 -6z m-283 -14 c31 -26 15 -26 -18 0 -14 11 -21 20 -15 20 5 0 20 -9 33 -20z m34 2 c-3 -3 -11 0 -18 7 -9 10 -8 11 6 5 10 -3 15 -9 12 -12z m69 2 c13 -5 17 -4 13 3 -5 8 4 8 29 3 52 -12 54 -20 4 -20 -26 0 -51 -7 -61 -16 -20 -18 -49 -13 -48 8 0 10 2 10 6 1 3 -10 8 -10 19 1 18 19 18 27 -1 20 -8 -4 -15 -1 -15 4 0 11 20 10 54 -4z m154 -75 l-3 -34 -18 39 c-9 21 -14 42 -11 47 3 5 -2 6 -11 3 -11 -5 -14 -2 -9 11 6 15 10 14 31 -8 19 -18 24 -32 21 -58z m-264 21 c-6 -6 -10 -3 -10 10 0 13 4 16 10 10 7 -7 7 -13 0 -20z m303 3 c-4 -3 -7 0 -7 7 0 7 3 10 7 7 3 -4 3 -10 0 -14z m-405 -30 c-5 -24 -6 -25 -12 -8 -6 16 2 33 16 35 1 0 -1 -12 -4 -27z m280 0 c70 -17 80 -27 71 -62 -5 -21 -23 -30 -23 -11 0 6 -16 10 -35 10 -26 0 -33 -3 -29 -15 4 -8 1 -15 -5 -15 -6 0 -11 5 -11 10 0 6 -12 10 -26 10 -14 0 -23 4 -20 9 6 10 -14 20 -54 28 -31 5 -39 13 -14 13 16 0 16 2 4 10 -9 5 -19 5 -25 0 -8 -6 -12 -5 -12 4 0 9 8 13 23 10 18 -3 22 -1 18 10 -7 18 31 15 138 -11z m116 -27 c-10 -7 -18 -18 -18 -25 0 -6 -5 -11 -10 -11 -14 0 5 36 22 43 22 9 24 7 6 -7z m-250 -20 c12 0 22 -2 22 -6 0 -4 -15 -6 -33 -6 -20 1 -34 6 -34 13 0 7 5 9 11 5 6 -5 21 -7 34 -6z m-141 -23 c-4 -3 -7 0 -7 7 0 7 3 10 7 7 3 -4 3 -10 0 -14z m660 -80 c-4 -3 -7 0 -7 7 0 7 3 10 7 7 3 -4 3 -10 0 -14z"/>
<path d="M885 1560 c-3 -5 -2 -10 4 -10 5 0 13 5 16 10 3 6 2 10 -4 10 -5 0 -13 -4 -16 -10z"/>
<path d="M841 1526 c-19 -21 -20 -24 -6 -30 11 -4 15 -2 12 6 -2 7 3 18 12 25 9 6 13 14 10 17 -3 3 -16 -5 -28 -18z"/>
<path d="M796 1473 c-3 -8 -2 -11 3 -8 5 3 12 1 16 -5 8 -14 35 -13 35 1 0 6 -7 9 -14 6 -10 -4 -13 -1 -10 7 3 7 -2 13 -10 13 -8 0 -18 -7 -20 -14z"/>
<path d="M751 1294 c0 -11 3 -14 6 -6 3 7 2 16 -1 19 -3 4 -6 -2 -5 -13z"/>
<path d="M1437 1114 c-3 -3 1 -29 9 -57 8 -29 14 -63 14 -77 0 -18 3 -21 9 -11 7 11 9 11 14 0 6 -15 -1 81 -9 117 -4 21 -27 38 -37 28z m30 -91 c-4 -3 -7 0 -7 7 0 7 3 10 7 7 3 -4 3 -10 0 -14z"/>
<path d="M710 1040 c0 -7 3 -10 7 -7 3 4 3 10 0 14 -4 3 -7 0 -7 -7z"/>
<path d="M700 970 c0 -7 3 -10 7 -7 3 4 3 10 0 14 -4 3 -7 0 -7 -7z"/>
</g>
<g id="layer104" fill="#313c4e" stroke="none">
<path d="M84 3586 c-9 -24 74 -814 91 -863 2 -7 -9 -13 -28 -15 l-32 -3 -8 -80 c-11 -107 -2 -311 14 -357 38 -102 118 -168 299 -249 116 -52 310 -103 369 -97 l38 3 22 -85 c12 -47 26 -123 30 -169 5 -46 14 -87 21 -91 6 -4 30 -1 53 7 31 11 76 14 173 11 126 -3 133 -5 200 -38 118 -60 142 -117 164 -400 6 -80 15 -162 20 -182 6 -30 4 -42 -11 -59 -11 -12 -19 -26 -19 -31 0 -4 -6 -8 -13 -8 -10 0 -17 27 -25 91 -19 156 -57 193 -210 205 -53 4 -160 8 -237 8 -124 1 -144 -1 -175 -20 -67 -39 -95 -109 -102 -253 l-3 -63 60 -20 c33 -10 81 -24 108 -29 36 -8 47 -15 47 -30 0 -31 -39 -43 -98 -30 -42 9 -60 20 -105 67 l-55 57 -16 -31 c-9 -18 -21 -67 -28 -110 -13 -97 5 -204 53 -302 46 -94 170 -215 269 -263 110 -54 176 -68 340 -74 141 -5 147 -5 215 22 144 58 203 112 176 163 -8 14 -8 29 -1 47 16 42 12 108 -12 181 -20 61 -23 90 -23 244 0 163 -2 179 -24 228 -14 32 -29 51 -36 48 -7 -2 -23 10 -35 27 -20 26 -25 52 -36 181 -24 276 -18 495 17 623 l11 41 33 -22 32 -22 279 57 c321 65 396 88 479 144 88 59 101 88 109 248 5 115 18 237 42 396 l7 44 -53 -7 -53 -7 7 273 c3 150 13 345 21 432 8 88 12 163 9 168 -3 4 -536 8 -1185 8 -1003 0 -1181 -2 -1185 -14z m1486 -2600 c0 -2 -8 -10 -17 -17 -16 -13 -17 -12 -4 4 13 16 21 21 21 13z m-683 -37 c18 -34 16 -74 -3 -90 -14 -11 -19 -10 -35 10 -21 26 -25 81 -7 99 16 16 30 10 45 -19z m326 -17 c-2 -6 1 -12 6 -12 14 0 21 -58 11 -85 -20 -53 -70 -14 -70 55 0 44 10 61 34 58 11 -2 20 -9 19 -16z m227 -86 c0 -2 -8 -10 -17 -17 -16 -13 -17 -12 -4 4 13 16 21 21 21 13z m-40 -40 c0 -3 -4 -8 -10 -11 -5 -3 -10 -1 -10 4 0 6 5 11 10 11 6 0 10 -2 10 -4z m-40 -36 c-8 -5 -17 -7 -19 -4 -3 3 1 9 9 14 8 5 17 7 19 4 3 -3 -1 -9 -9 -14z m-137 -14 c74 -14 90 -22 61 -32 -10 -3 -37 -14 -59 -24 -58 -27 -145 -10 -145 29 0 43 32 49 143 27z"/>
</g>
<g id="layer105" fill="#33495e" stroke="none">
<path d="M84 3586 c-9 -24 74 -814 91 -863 2 -7 -9 -13 -28 -15 -32 -3 -32 -4 -38 -68 -10 -104 -10 -263 1 -319 24 -126 86 -193 255 -276 64 -32 126 -58 139 -59 13 0 22 -5 18 -10 -3 -5 5 -7 16 -4 14 4 20 2 16 -4 -5 -7 4 -9 24 -6 17 2 29 1 26 -4 -7 -11 3 -10 26 2 16 9 18 8 13 -6 -5 -14 -2 -16 21 -10 17 4 25 3 22 -3 -8 -12 72 -25 112 -19 28 4 29 3 51 -81 12 -48 26 -124 30 -170 5 -46 14 -87 21 -91 6 -4 30 -1 53 7 31 11 76 14 172 11 120 -3 135 -6 196 -35 111 -51 140 -109 159 -306 19 -203 31 -301 35 -306 3 -2 19 8 35 24 l30 28 -27 35 c-24 32 -27 48 -39 186 -24 276 -18 495 17 623 l11 41 33 -22 c30 -21 38 -22 84 -13 27 6 48 15 45 19 -3 5 -15 6 -27 3 -12 -2 -16 -2 -9 1 6 3 10 9 7 14 -3 5 14 1 37 -8 31 -12 43 -13 46 -4 2 7 8 10 13 6 9 -5 109 11 139 23 8 3 18 6 22 5 16 -4 209 40 287 65 102 32 198 94 227 146 17 31 22 63 28 170 5 115 18 237 42 396 l7 44 -53 -7 -53 -7 7 273 c3 150 13 345 21 433 8 88 11 163 6 168 -4 4 -90 6 -192 5 l-184 -3 3 -28 c3 -30 -14 -61 -29 -51 -5 3 -6 23 -3 44 l7 40 -982 0 c-833 0 -983 -2 -987 -14z m363 -83 c-4 -3 -7 0 -7 7 0 7 3 10 7 7 3 -4 3 -10 0 -14z m1636 -160 c3 -69 1 -125 -4 -129 -5 -3 -9 15 -9 39 0 24 -3 86 -6 138 -4 63 -3 91 3 84 6 -5 13 -65 16 -132z m-1633 -54 c0 -111 -3 -168 -10 -164 -6 4 -10 70 -10 164 0 139 3 171 17 171 2 0 3 -77 3 -171z m0 -410 c0 -31 -4 -48 -10 -44 -17 11 -12 95 7 95 2 0 3 -23 3 -51z m1650 -70 c0 -66 -4 -118 -9 -115 -12 8 -14 236 -1 236 6 0 10 -44 10 -121z m-1650 -25 c0 -21 -4 -33 -10 -29 -17 10 -11 65 7 65 2 0 3 -16 3 -36z m-3 -81 c-4 -3 -7 0 -7 7 0 7 3 10 7 7 3 -4 3 -10 0 -14z m33 -47 c0 -3 -4 -8 -10 -11 -5 -3 -10 -1 -10 4 0 6 5 11 10 11 6 0 10 -2 10 -4z m1567 -693 c-4 -3 -10 -3 -14 0 -3 4 0 7 7 7 7 0 10 -3 7 -7z m70 0 c-4 -3 -10 -3 -14 0 -3 4 0 7 7 7 7 0 10 -3 7 -7z m-30 -10 c-4 -3 -10 -3 -14 0 -3 4 0 7 7 7 7 0 10 -3 7 -7z m-90 -10 c-4 -3 -10 -3 -14 0 -3 4 0 7 7 7 7 0 10 -3 7 -7z m-190 -49 c-3 -3 -12 -4 -19 -1 -8 3 -5 6 6 6 11 1 17 -2 13 -5z"/>
<path d="M868 1181 c-100 -21 -142 -96 -150 -270 l-3 -63 60 -20 c33 -10 81 -24 108 -29 36 -8 47 -15 47 -30 0 -30 -39 -43 -96 -31 -49 11 -69 8 -59 -9 8 -12 -6 -11 -25 1 -13 8 -12 11 4 23 13 10 15 16 8 21 -7 4 -12 2 -12 -4 0 -15 -25 -7 -26 8 -1 7 -2 16 -3 22 0 5 -4 9 -8 8 -17 -4 -53 14 -47 24 4 6 10 5 15 -3 5 -8 9 -9 9 -4 0 6 -4 16 -9 24 -7 11 -13 6 -26 -19 -9 -18 -15 -41 -12 -51 3 -12 1 -17 -5 -13 -7 5 -8 -12 -4 -52 5 -42 4 -55 -3 -44 -8 11 -11 6 -11 -23 0 -24 4 -36 11 -32 7 5 8 -4 4 -28 -4 -20 -3 -37 4 -41 5 -4 7 -14 4 -23 -5 -12 -3 -14 7 -8 10 6 12 4 7 -8 -8 -22 12 -79 26 -70 6 4 8 0 4 -9 -3 -9 1 -24 8 -35 13 -17 14 -16 10 6 -2 13 0 31 5 40 7 12 8 7 5 -16 -2 -19 1 -33 7 -33 7 0 7 -4 -1 -13 -8 -10 -3 -22 20 -48 17 -19 28 -29 25 -23 -3 6 1 11 7 11 7 0 14 -9 14 -20 3 -29 63 -89 78 -77 13 11 25 3 25 -14 0 -6 -5 -4 -10 4 -5 8 -10 10 -10 4 0 -20 45 -44 61 -32 11 8 10 9 -4 4 -10 -3 -16 -2 -12 3 3 5 -1 11 -7 14 -7 2 -1 4 14 3 14 0 24 -3 22 -5 -2 -2 2 -11 9 -19 8 -11 8 -14 0 -9 -6 4 -14 3 -17 -1 -9 -15 40 -32 53 -19 9 9 11 8 6 -4 -4 -12 1 -18 18 -23 14 -3 33 -9 44 -12 15 -5 15 -4 3 5 -11 8 -11 11 -2 11 7 0 15 -6 18 -14 4 -10 16 -13 42 -9 29 4 34 2 22 -7 -12 -9 -7 -10 23 -5 25 4 37 2 37 -6 0 -12 124 -8 165 6 16 6 17 5 5 -4 -20 -15 37 -14 99 2 40 9 42 12 25 24 -21 15 -11 17 17 3 13 -7 19 -7 19 0 0 5 -5 10 -12 10 -6 0 -8 3 -5 6 4 4 13 1 22 -6 16 -13 21 0 6 15 -6 6 -1 11 15 11 13 1 24 -2 24 -8 0 -5 -4 -6 -10 -3 -5 3 -10 1 -10 -5 0 -7 3 -10 8 -8 50 25 62 33 59 42 -3 6 -10 10 -16 9 -16 -4 -14 2 6 18 14 12 16 12 9 0 -6 -9 -5 -12 5 -9 8 3 13 14 11 24 -2 15 -1 16 7 4 7 -9 6 -19 -1 -27 -7 -8 -7 -13 0 -13 5 0 15 7 22 15 15 18 23 68 10 60 -5 -3 -7 -12 -3 -20 3 -8 0 -15 -5 -15 -6 0 -9 10 -6 22 20 89 24 176 12 226 -6 23 -14 42 -19 42 -5 0 -6 7 -3 15 4 9 0 15 -10 15 -9 0 -16 5 -16 11 0 5 5 7 10 4 6 -3 10 3 10 14 0 12 -3 21 -7 21 -5 0 -8 40 -8 89 0 49 3 84 7 78 12 -19 9 110 -3 159 -9 33 -14 42 -21 32 -7 -9 -8 -7 -5 10 3 12 1 22 -4 22 -5 0 -8 3 -8 8 3 19 -2 32 -13 32 -6 0 -8 -3 -5 -7 4 -3 -1 -16 -10 -27 -17 -20 -17 -20 1 -6 18 13 19 13 11 0 -13 -24 -48 -60 -57 -60 -5 0 -6 5 -3 10 3 6 2 10 -3 10 -13 0 -22 -40 -16 -70 l5 -25 -11 25 c-9 20 -13 22 -20 10 -16 -26 -27 1 -39 94 -18 145 -58 189 -183 199 -136 12 -353 16 -390 8z m19 -232 c18 -34 16 -74 -3 -90 -14 -11 -19 -10 -35 10 -21 26 -25 81 -7 99 16 16 30 10 45 -19z m326 -17 c-2 -6 1 -12 6 -12 14 0 21 -58 11 -85 -20 -53 -70 -14 -70 55 0 44 10 61 34 58 11 -2 20 -9 19 -16z m414 -19 c-4 -3 -7 0 -7 7 0 7 3 10 7 7 3 -4 3 -10 0 -14z m-46 -26 c-10 -9 -11 -8 -5 6 3 10 9 15 12 12 3 -3 0 -11 -7 -18z m-133 -51 c-10 -7 -14 -17 -10 -21 4 -5 1 -5 -5 -1 -8 4 -13 2 -13 -5 0 -7 -3 -10 -6 -7 -7 8 -51 -35 -47 -44 2 -4 -4 -5 -13 -1 -13 5 -15 3 -9 -7 5 -8 4 -11 -3 -6 -6 4 -9 12 -6 19 8 18 97 86 114 86 12 0 12 -2 -2 -13z m189 -33 c-4 -3 -7 0 -7 7 0 7 3 10 7 7 3 -4 3 -10 0 -14z m-431 -44 c32 -6 70 -12 84 -13 35 -2 37 -20 3 -27 -16 -3 -48 -20 -72 -37 -45 -33 -71 -40 -71 -21 0 6 7 8 16 5 10 -4 14 -1 12 6 -3 7 -20 15 -39 19 -45 7 -59 16 -59 38 0 41 29 48 126 30z m-386 -49 c0 -5 -4 -10 -10 -10 -5 0 -10 5 -10 10 0 6 5 10 10 10 6 0 10 -4 10 -10z m15 -20 c-4 -7 3 -9 19 -6 14 3 26 1 26 -3 0 -3 9 -7 20 -8 11 -1 27 -9 36 -17 14 -15 14 -16 -3 -13 -10 2 -32 11 -49 20 -17 9 -34 14 -37 11 -9 -9 -28 6 -22 17 4 5 8 9 11 9 3 0 2 -5 -1 -10z m-18 -35 c0 -8 -4 -12 -9 -9 -5 3 -6 10 -3 15 9 13 12 11 12 -6z m287 -17 c-3 -4 -22 -8 -42 -8 -28 0 -33 3 -22 10 18 11 71 10 64 -2z m-427 -165 c-4 -3 -7 0 -7 7 0 7 3 10 7 7 3 -4 3 -10 0 -14z m40 0 c-4 -3 -7 0 -7 7 0 7 3 10 7 7 3 -4 3 -10 0 -14z m934 -176 c-10 -9 -11 -8 -5 6 3 10 9 15 12 12 3 -3 0 -11 -7 -18z m-794 6 c-4 -3 -10 -3 -14 0 -3 4 0 7 7 7 7 0 10 -3 7 -7z m-18 -39 c5 4 9 -3 8 -14 -1 -11 -2 -20 -2 -20 -1 0 -12 12 -26 27 -13 15 -16 22 -7 14 9 -7 22 -10 27 -7z m818 -1 c-4 -3 -7 0 -7 7 0 7 3 10 7 7 3 -4 3 -10 0 -14z m-777 -7 c0 -3 -5 -8 -12 -12 -7 -4 -8 -3 -4 4 7 12 16 16 16 8z m167 -113 c-4 -3 -10 -3 -14 0 -3 4 0 7 7 7 7 0 10 -3 7 -7z m230 -10 c-4 -3 -10 -3 -14 0 -3 4 0 7 7 7 7 0 10 -3 7 -7z m-160 -9 c-3 -3 -12 -4 -19 -1 -8 3 -5 6 6 6 11 1 17 -2 13 -5z m126 -31 c-7 -2 -19 -2 -25 0 -7 3 -2 5 12 5 14 0 19 -2 13 -5z"/>
</g>
<g id="layer106" fill="#205073" stroke="none">
<path d="M84 3586 c-9 -24 74 -813 91 -863 2 -7 -9 -13 -28 -15 -32 -3 -32 -4 -38 -68 -10 -104 -10 -263 1 -319 25 -135 100 -209 304 -300 l68 -31 -6 27 c-18 78 -37 632 -22 652 7 9 5 17 -7 26 -15 11 -17 51 -19 456 l-3 444 -168 3 c-138 2 -168 0 -173 -12z"/>
<path d="M2078 3593 c-4 -9 7 -392 20 -713 7 -157 6 -197 -5 -203 -9 -5 -10 -14 -4 -25 7 -14 23 -410 25 -617 1 -27 6 -58 11 -68 10 -16 16 -16 95 10 102 33 197 94 226 146 17 31 22 63 28 170 5 115 18 237 42 396 l7 44 -53 -7 -53 -7 7 273 c3 150 13 345 21 432 8 88 12 163 9 168 -6 10 -371 11 -376 1z m159 -899 c-3 -3 -12 -4 -19 -1 -8 3 -5 6 6 6 11 1 17 -2 13 -5z"/>
<path d="M1010 2124 c-25 -9 -49 -20 -54 -25 -6 -5 -20 -9 -32 -9 -12 0 -33 -9 -47 -20 -14 -11 -32 -20 -41 -20 -9 0 -19 -6 -22 -13 -2 -7 -23 -24 -45 -37 -32 -20 -39 -29 -34 -47 3 -12 0 -24 -8 -27 -6 -3 13 -5 44 -3 l56 2 22 -85 c12 -47 26 -123 30 -169 5 -46 14 -87 21 -91 6 -4 30 -1 53 7 31 11 76 14 173 11 126 -3 133 -5 200 -38 117 -59 141 -117 164 -395 18 -230 21 -239 64 -182 l20 27 -24 32 c-20 28 -25 51 -36 182 -24 276 -18 495 17 623 l11 41 34 -23 c45 -31 81 -24 79 15 -2 30 -58 103 -83 106 -8 2 -21 12 -29 23 -8 12 -22 21 -31 21 -9 0 -28 12 -41 25 -13 14 -31 25 -40 25 -9 0 -27 8 -41 17 -33 23 -96 34 -225 39 -83 3 -121 0 -155 -12z"/>
</g>
<g id="layer107" fill="#326e97" stroke="none">
<path d="M84 3586 c-9 -24 74 -813 91 -863 2 -7 -9 -13 -28 -15 -32 -3 -32 -4 -38 -68 -10 -104 -10 -263 1 -319 23 -125 86 -193 252 -275 62 -30 114 -53 116 -51 2 2 0 10 -4 17 -26 41 -32 179 -39 888 -4 371 -8 681 -11 688 -5 19 -333 17 -340 -2z"/>
<path d="M2078 3593 c-4 -9 4 -300 21 -743 6 -151 16 -414 22 -585 6 -170 12 -311 13 -312 10 -10 181 58 230 91 89 60 102 88 110 249 5 115 18 237 42 396 l7 44 -53 -7 -53 -7 7 273 c3 150 13 345 21 432 8 88 12 163 9 168 -6 10 -371 11 -376 1z m159 -899 c-3 -3 -12 -4 -19 -1 -8 3 -5 6 6 6 11 1 17 -2 13 -5z"/>
<path d="M995 2106 c-38 -13 -88 -34 -110 -47 -122 -74 -135 -84 -135 -106 0 -12 -8 -24 -17 -27 -10 -2 7 -4 38 -3 l56 2 22 -85 c12 -47 26 -123 30 -169 5 -46 14 -87 21 -91 6 -4 30 -1 53 7 31 11 76 14 173 11 126 -3 133 -5 200 -38 117 -59 141 -117 164 -395 18 -230 21 -239 64 -182 l20 27 -24 32 c-20 28 -25 51 -36 182 -24 277 -18 495 17 624 11 41 13 42 30 26 11 -10 19 -14 19 -10 0 4 6 1 14 -7 9 -9 26 -12 41 -9 15 2 23 7 18 11 -4 3 -10 15 -11 26 -13 69 -194 190 -347 231 -80 22 -218 17 -300 -10z m520 -166 c3 -5 4 -10 1 -10 -3 0 -8 5 -11 10 -3 6 -4 10 -1 10 3 0 8 -4 11 -10z"/>
<path d="M2093 1943 c4 -3 10 -3 14 0 3 4 0 7 -7 7 -7 0 -10 -3 -7 -7z"/>
<path d="M2038 1933 c7 -3 16 -2 19 1 4 3 -2 6 -13 5 -11 0 -14 -3 -6 -6z"/>
<path d="M1993 1923 c4 -3 10 -3 14 0 3 4 0 7 -7 7 -7 0 -10 -3 -7 -7z"/>
<path d="M1943 1913 c4 -3 10 -3 14 0 3 4 0 7 -7 7 -7 0 -10 -3 -7 -7z"/>
<path d="M1893 1903 c4 -3 10 -3 14 0 3 4 0 7 -7 7 -7 0 -10 -3 -7 -7z"/>
<path d="M1843 1893 c4 -3 10 -3 14 0 3 4 0 7 -7 7 -7 0 -10 -3 -7 -7z"/>
<path d="M1793 1883 c4 -3 10 -3 14 0 3 4 0 7 -7 7 -7 0 -10 -3 -7 -7z"/>
<path d="M1743 1873 c4 -3 10 -3 14 0 3 4 0 7 -7 7 -7 0 -10 -3 -7 -7z"/>
<path d="M1693 1863 c4 -3 10 -3 14 0 3 4 0 7 -7 7 -7 0 -10 -3 -7 -7z"/>
<path d="M1583 1013 c4 -3 10 -3 14 0 3 4 0 7 -7 7 -7 0 -10 -3 -7 -7z"/>
<path d="M1642 870 c0 -14 2 -19 5 -12 2 6 2 18 0 25 -3 6 -5 1 -5 -13z"/>
<path d="M1641 764 c0 -11 3 -14 6 -6 3 7 2 16 -1 19 -3 4 -6 -2 -5 -13z"/>
<path d="M630 760 c0 -7 3 -10 7 -7 3 4 3 10 0 14 -4 3 -7 0 -7 -7z"/>
<path d="M1632 665 c0 -16 2 -22 5 -12 2 9 2 23 0 30 -3 6 -5 -1 -5 -18z"/>
<path d="M622 650 c0 -19 2 -27 5 -17 2 9 2 25 0 35 -3 9 -5 1 -5 -18z"/>
<path d="M1640 580 c0 -7 3 -10 7 -7 3 4 3 10 0 14 -4 3 -7 0 -7 -7z"/>
<path d="M1670 470 c0 -7 3 -10 7 -7 3 4 3 10 0 14 -4 3 -7 0 -7 -7z"/>
<path d="M1680 430 c0 -7 3 -10 7 -7 3 4 3 10 0 14 -4 3 -7 0 -7 -7z"/>
<path d="M695 390 c3 -5 8 -10 11 -10 3 0 2 5 -1 10 -3 6 -8 10 -11 10 -3 0 -2 -4 1 -10z"/>
<path d="M735 330 c3 -5 8 -10 11 -10 3 0 2 5 -1 10 -3 6 -8 10 -11 10 -3 0 -2 -4 1 -10z"/>
<path d="M1665 280 c3 -5 8 -10 11 -10 3 0 2 5 -1 10 -3 6 -8 10 -11 10 -3 0 -2 -4 1 -10z"/>
<path d="M845 220 c3 -5 8 -10 11 -10 3 0 2 5 -1 10 -3 6 -8 10 -11 10 -3 0 -2 -4 1 -10z"/>
<path d="M1659 193 c-13 -16 -12 -17 4 -4 16 13 21 21 13 21 -2 0 -10 -8 -17 -17z"/>
<path d="M1133 93 c4 -3 10 -3 14 0 3 4 0 7 -7 7 -7 0 -10 -3 -7 -7z"/>
<path d="M1208 83 c7 -3 16 -2 19 1 4 3 -2 6 -13 5 -11 0 -14 -3 -6 -6z"/>
<path d="M1433 83 c4 -3 10 -3 14 0 3 4 0 7 -7 7 -7 0 -10 -3 -7 -7z"/>
</g>
<g id="layer108" fill="#2078b4" stroke="none">
<path d="M2458 2719 c-2 -5 -39 -14 -83 -20 -194 -23 -240 -30 -248 -38 -6 -6 -5 -119 3 -293 6 -156 11 -306 10 -334 0 -36 3 -51 12 -51 7 0 27 -3 43 -7 19 -4 25 -3 16 2 -18 13 -2 21 47 24 22 2 38 6 35 11 -2 4 11 14 31 22 19 8 38 20 41 26 4 5 13 8 21 5 8 -3 13 -2 12 2 -1 4 10 28 26 54 26 45 28 57 33 185 2 76 9 151 14 167 5 16 9 40 9 53 0 13 3 22 8 20 4 -3 7 33 7 80 0 68 -3 86 -17 94 -11 6 -18 5 -20 -2z"/>
<path d="M137 2683 c-17 -4 -18 -18 -15 -196 4 -175 6 -196 27 -241 13 -26 31 -51 41 -53 10 -3 20 -13 23 -23 3 -10 28 -33 56 -52 28 -18 51 -38 51 -44 0 -7 7 -15 16 -18 8 -3 12 -2 9 4 -3 6 0 10 8 10 18 0 39 -24 30 -33 -3 -4 -2 -8 3 -8 63 -8 63 -8 59 14 -9 59 -15 193 -17 410 l-2 237 -135 -1 c-75 -1 -144 -3 -154 -6z"/>
<path d="M2480 2460 c0 -7 3 -10 7 -7 3 4 3 10 0 14 -4 3 -7 0 -7 -7z"/>
<path d="M101 2364 c0 -11 3 -14 6 -6 3 7 2 16 -1 19 -3 4 -6 -2 -5 -13z"/>
<path d="M2471 2354 c0 -11 3 -14 6 -6 3 7 2 16 -1 19 -3 4 -6 -2 -5 -13z"/>
<path d="M2460 2170 c0 -7 3 -10 7 -7 3 4 3 10 0 14 -4 3 -7 0 -7 -7z"/>
<path d="M205 2140 c3 -5 8 -10 11 -10 3 0 2 5 -1 10 -3 6 -8 10 -11 10 -3 0 -2 -4 1 -10z"/>
<path d="M1065 2113 c-103 -24 -210 -71 -228 -100 -4 -7 -15 -13 -22 -13 -8 0 -15 -4 -15 -10 0 -5 -7 -10 -15 -10 -9 0 -15 -9 -15 -25 0 -23 23 -36 32 -17 2 4 17 14 33 23 70 36 120 64 125 71 12 16 211 39 278 32 66 -6 160 -32 183 -51 8 -7 21 -13 27 -13 7 0 12 -5 12 -10 0 -6 15 -17 33 -25 17 -8 28 -14 23 -15 -5 0 7 -16 28 -36 20 -19 34 -39 31 -44 -5 -8 45 -3 53 5 9 8 -10 45 -23 45 -8 0 -17 9 -20 20 -3 11 -13 20 -20 20 -8 0 -19 9 -25 21 -6 11 -32 29 -58 40 -26 11 -51 26 -57 32 -5 7 -47 25 -92 40 -65 21 -100 27 -165 26 -46 -1 -92 -3 -103 -6z"/>
<path d="M2424 2098 c-4 -7 -3 -8 4 -4 12 7 16 16 8 16 -3 0 -8 -5 -12 -12z"/>
</g>
<g id="layer109" fill="#d69e77" stroke="none">
<path d="M84 3586 c-9 -24 74 -814 91 -864 4 -9 35 -12 127 -10 l123 3 0 440 0 440 -168 3 c-138 2 -168 0 -173 -12z"/>
<path d="M2078 3593 c-2 -5 -1 -102 3 -218 4 -115 11 -312 14 -438 6 -196 9 -229 24 -236 9 -4 72 -2 141 5 69 7 132 13 141 13 14 1 17 34 23 274 3 149 13 344 21 431 8 88 12 163 9 168 -6 10 -371 11 -376 1z"/>
<path d="M1085 2036 c-123 -27 -255 -88 -255 -118 0 -6 9 -44 20 -83 11 -39 24 -111 29 -159 5 -49 14 -92 21 -96 6 -4 30 -1 53 7 31 11 76 14 173 11 126 -3 133 -5 200 -38 117 -59 141 -117 164 -395 18 -230 21 -239 64 -182 l20 27 -24 32 c-20 28 -25 52 -37 197 -18 214 -13 500 12 589 l17 63 -23 25 c-28 29 -116 82 -177 106 -61 23 -184 30 -257 14z"/>
<path d="M987 1392 c-23 -25 -21 -32 5 -32 12 0 48 -7 80 -16 32 -9 61 -14 64 -11 8 8 -5 44 -22 62 -23 22 -106 20 -127 -3z"/>
<path d="M868 1181 c-100 -21 -142 -96 -150 -270 l-3 -63 60 -20 c33 -10 81 -24 108 -29 36 -8 47 -15 47 -29 0 -38 -51 -47 -135 -23 -42 11 63 -55 119 -76 70 -26 183 -30 234 -8 35 15 33 27 -5 27 -55 0 -82 41 -47 71 13 11 31 10 107 -3 l92 -16 39 26 c21 15 57 43 79 63 l41 36 -11 97 c-18 155 -57 199 -185 209 -136 12 -353 16 -390 8z m19 -232 c18 -34 16 -74 -3 -90 -14 -11 -19 -10 -35 10 -21 26 -25 81 -7 99 16 16 30 10 45 -19z m326 -17 c-2 -6 1 -12 6 -12 14 0 21 -58 11 -85 -20 -53 -70 -14 -70 55 0 44 10 61 34 58 11 -2 20 -9 19 -16z"/>
</g>
<g id="layer110" fill="#ec9c63" stroke="none">
<path d="M84 3586 c-8 -20 36 -460 46 -464 5 -2 6 -18 3 -37 -7 -41 4 -88 17 -80 6 3 10 -4 10 -17 0 -18 -2 -20 -10 -8 -7 12 -10 8 -10 -15 0 -24 2 -27 11 -15 7 11 8 1 3 -34 -5 -38 -4 -47 6 -41 9 6 11 -5 6 -46 -4 -34 -3 -46 3 -34 7 17 9 13 16 -23 l7 -43 111 3 111 3 8 35 c4 19 6 213 5 430 l-2 395 -168 3 c-139 2 -168 0 -173 -12z m63 -528 c-3 -8 -6 -5 -6 6 -1 11 2 17 5 13 3 -3 4 -12 1 -19z m0 -35 c-4 -3 -7 0 -7 7 0 7 3 10 7 7 3 -4 3 -10 0 -14z m270 -200 c-4 -3 -7 0 -7 7 0 7 3 10 7 7 3 -4 3 -10 0 -14z"/>
<path d="M2075 3590 c-3 -5 -4 -14 -1 -18 3 -5 8 -98 11 -208 3 -109 10 -217 15 -239 13 -56 12 -159 -2 -173 -8 -8 -8 -15 2 -27 8 -9 16 -55 19 -108 l6 -92 36 -3 c19 -2 77 1 129 6 109 11 122 22 119 92 -6 98 3 295 11 275 6 -13 9 12 10 75 0 52 7 167 15 254 8 88 12 163 9 168 -8 12 -371 10 -379 -2z m342 -442 c-3 -8 -6 -5 -6 6 -1 11 2 17 5 13 3 -3 4 -12 1 -19z"/>
<path d="M1085 2036 c-125 -28 -255 -88 -255 -119 0 -21 35 -138 40 -133 3 2 6 -28 7 -67 3 -88 11 -137 23 -137 5 0 21 5 37 11 15 7 59 12 98 11 38 0 75 4 81 9 8 6 28 6 55 -1 51 -12 106 -22 132 -23 9 -1 17 -5 17 -9 0 -4 5 -8 12 -8 19 0 117 -81 113 -93 -5 -15 14 -41 38 -50 16 -6 17 6 19 146 1 84 2 172 1 197 0 25 2 37 6 27 4 -12 10 0 19 39 13 54 13 57 -10 81 -27 28 -115 81 -176 105 -61 23 -184 30 -257 14z m382 -103 c-4 -3 -10 -3 -14 0 -3 4 0 7 7 7 7 0 10 -3 7 -7z m-570 -270 c-4 -3 -7 0 -7 7 0 7 3 10 7 7 3 -4 3 -10 0 -14z m110 -50 c-4 -3 -10 -3 -14 0 -3 4 0 7 7 7 7 0 10 -3 7 -7z m480 -75 c-2 -13 -4 -3 -4 22 0 25 2 35 4 23 2 -13 2 -33 0 -45z m0 -70 c-3 -7 -5 -2 -5 12 0 14 2 19 5 13 2 -7 2 -19 0 -25z"/>
<path d="M1020 1386 c0 -14 29 -26 68 -26 27 0 29 16 3 30 -28 15 -71 13 -71 -4z"/>
<path d="M868 1179 c-21 -6 -38 -15 -38 -20 0 -5 -7 -9 -15 -9 -37 0 -78 -82 -90 -180 -3 -19 -7 -53 -10 -75 -5 -40 -5 -40 35 -53 23 -7 46 -9 52 -6 6 4 8 3 4 -4 -7 -12 11 -19 74 -27 24 -3 49 -10 54 -15 13 -13 -9 -60 -29 -61 -8 -1 -21 -2 -27 -3 -7 -1 -30 4 -52 11 -53 18 -55 17 -16 -12 19 -14 40 -23 48 -20 7 2 11 1 8 -4 -8 -12 42 -31 117 -45 45 -9 77 -9 117 -2 61 12 67 27 18 39 -18 5 -40 16 -48 24 -8 9 -9 13 -2 9 8 -5 12 0 12 13 0 10 -3 21 -7 24 -5 2 -3 2 4 1 6 -2 16 3 23 10 9 11 19 11 58 1 114 -30 137 -34 149 -23 7 6 11 14 8 18 -3 5 0 12 6 16 8 4 9 3 5 -4 -11 -18 1 -14 37 10 18 13 34 24 36 25 2 1 -2 11 -10 20 -13 16 -12 17 4 4 15 -12 20 -11 38 5 20 18 21 53 4 164 -13 84 -54 135 -119 150 -92 20 -397 33 -448 19z m429 -36 c-4 -3 -10 -3 -14 0 -3 4 0 7 7 7 7 0 10 -3 7 -7z m-460 -10 c-4 -3 -10 -3 -14 0 -3 4 0 7 7 7 7 0 10 -3 7 -7z m29 -138 c-3 -9 0 -15 8 -15 27 0 36 -101 12 -132 -12 -16 -14 -16 -35 6 -17 18 -22 33 -19 67 2 30 -2 48 -12 56 -13 10 -11 11 7 6 15 -3 25 0 29 11 3 9 8 16 11 16 3 0 3 -7 -1 -15z m349 -45 c4 -6 10 -8 15 -5 4 3 6 -3 3 -14 -3 -10 0 -21 5 -25 5 -3 8 -19 6 -36 -2 -19 0 -29 6 -25 6 3 7 -1 4 -10 -4 -9 -18 -22 -33 -29 -32 -17 -44 -7 -64 51 -11 32 -11 44 0 71 13 32 45 44 58 22z m42 -27 c-4 -3 -10 -3 -14 0 -3 4 0 7 7 7 7 0 10 -3 7 -7z m-50 -150 c-4 -3 -10 -3 -14 0 -3 4 0 7 7 7 7 0 10 -3 7 -7z"/>
<path d="M1512 1074 c-11 -12 -11 -21 -1 -52 17 -49 29 -62 29 -31 0 17 3 20 9 10 6 -9 10 -10 16 -2 4 7 -2 24 -12 39 -10 15 -20 32 -23 38 -4 9 -9 8 -18 -2z"/>
</g>
<g id="layer111" fill="#f0a976" stroke="none">
<path d="M84 3586 c-8 -20 36 -460 46 -464 5 -2 6 -18 3 -37 -6 -40 4 -88 17 -80 4 3 11 -3 13 -12 3 -10 5 -1 6 20 1 35 2 37 36 37 28 0 35 -4 35 -20 0 -17 7 -20 40 -20 55 0 55 0 55 43 0 23 5 37 13 37 8 0 12 -16 12 -45 0 -60 18 -58 22 3 6 92 23 40 33 -100 9 -133 10 -116 13 242 1 212 0 391 -3 397 -7 20 -334 18 -341 -1z m63 -528 c-3 -8 -6 -5 -6 6 -1 11 2 17 5 13 3 -3 4 -12 1 -19z m0 -35 c-4 -3 -7 0 -7 7 0 7 3 10 7 7 3 -4 3 -10 0 -14z"/>
<path d="M2075 3590 c-3 -5 -4 -14 -1 -18 3 -5 8 -98 11 -208 6 -183 30 -386 35 -294 2 34 2 34 15 -15 10 -39 22 -49 16 -12 -1 4 6 21 14 37 8 16 14 37 12 47 -1 10 3 18 8 18 6 0 10 -12 10 -27 1 -32 9 -43 26 -32 7 4 32 7 56 5 26 -1 43 2 43 8 0 6 15 11 34 11 31 0 35 -3 44 -37 l10 -38 2 40 c1 32 3 36 10 20 6 -13 9 12 10 75 0 52 7 167 15 254 8 88 12 163 9 168 -8 12 -371 10 -379 -2z m342 -442 c-3 -8 -6 -5 -6 6 -1 11 2 17 5 13 3 -3 4 -12 1 -19z"/>
<path d="M2110 2982 c0 -10 -5 -23 -12 -30 -8 -8 -8 -15 -1 -24 6 -7 13 -22 15 -33 2 -11 4 8 4 43 1 34 -1 62 -3 62 -1 0 -3 -8 -3 -18z"/>
<path d="M140 2963 c0 -21 3 -24 9 -14 5 8 7 20 4 28 -8 21 -13 15 -13 -14z"/>
<path d="M150 2894 c0 -14 4 -23 9 -20 5 3 7 15 4 26 -7 28 -13 25 -13 -6z"/>
<path d="M1085 2036 c-125 -28 -255 -88 -255 -119 0 -21 35 -138 40 -133 3 2 6 -28 7 -67 3 -88 11 -137 23 -137 5 0 21 5 37 11 15 7 59 12 98 11 38 0 75 4 81 9 8 6 28 6 55 -1 51 -12 106 -22 132 -23 9 -1 17 -5 17 -9 0 -4 6 -8 13 -8 7 0 29 -14 49 -30 23 -19 43 -28 55 -24 17 5 17 5 1 -6 -17 -10 -16 -13 5 -45 12 -19 29 -36 38 -38 15 -4 17 14 22 167 3 118 10 191 22 234 l17 63 -23 25 c-28 29 -116 82 -177 106 -61 23 -184 30 -257 14z m-138 -92 c-3 -3 -12 -4 -19 -1 -8 3 -5 6 6 6 11 1 17 -2 13 -5z m523 -8 c0 -2 -7 -7 -16 -10 -8 -3 -12 -2 -9 4 6 10 25 14 25 6z m-593 -53 c-4 -3 -7 0 -7 7 0 7 3 10 7 7 3 -4 3 -10 0 -14z m630 -10 c-4 -3 -10 -3 -14 0 -3 4 0 7 7 7 7 0 10 -3 7 -7z m-50 -50 c-4 -3 -7 0 -7 7 0 7 3 10 7 7 3 -4 3 -10 0 -14z m20 -15 c-3 -7 -5 -2 -5 12 0 14 2 19 5 13 2 -7 2 -19 0 -25z m30 -20 c-3 -8 -6 -5 -6 6 -1 11 2 17 5 13 3 -3 4 -12 1 -19z m-40 -25 c-4 -3 -7 0 -7 7 0 7 3 10 7 7 3 -4 3 -10 0 -14z m-570 -100 c-4 -3 -7 0 -7 7 0 7 3 10 7 7 3 -4 3 -10 0 -14z m44 -12 c6 10 9 7 9 -12 0 -20 -6 -28 -25 -31 -21 -4 -23 -2 -15 13 6 10 11 28 11 41 l2 23 4 -24 c4 -19 7 -21 14 -10z m178 3 c2 -2 -16 -4 -40 -5 -32 0 -39 -3 -24 -8 13 -6 1 -8 -37 -7 -42 1 -54 4 -46 13 5 6 19 13 31 15 24 4 109 -2 116 -8z m74 -1 c-7 -2 -19 -2 -25 0 -7 3 -2 5 12 5 14 0 19 -2 13 -5z m274 -35 c-3 -7 -5 -2 -5 12 0 14 2 19 5 13 2 -7 2 -19 0 -25z m-460 -5 c-4 -3 -10 -3 -14 0 -3 4 0 7 7 7 7 0 10 -3 7 -7z m398 -33 c11 0 45 -31 45 -40 0 -5 -7 -11 -16 -14 -11 -4 -15 -2 -11 8 3 8 -2 20 -11 28 -15 12 -16 11 -3 -4 20 -27 -2 -21 -28 6 -14 15 -20 30 -16 37 6 9 11 8 20 -4 7 -10 16 -17 20 -17z m-58 3 c-4 -3 -7 0 -7 7 0 7 3 10 7 7 3 -4 3 -10 0 -14z m134 -79 c10 -12 9 -64 -1 -64 -4 0 -16 14 -29 30 -13 18 -16 29 -9 28 9 -2 14 14 18 52 l4 55 4 -45 c2 -24 8 -50 13 -56z m6 34 c-2 -13 -4 -3 -4 22 0 25 2 35 4 23 2 -13 2 -33 0 -45z"/>
<path d="M1470 1480 c0 -7 3 -10 7 -7 3 4 3 10 0 14 -4 3 -7 0 -7 -7z"/>
<path d="M868 1179 c-21 -6 -38 -15 -38 -20 0 -5 -7 -9 -15 -9 -37 0 -78 -82 -90 -180 -3 -19 -7 -53 -10 -75 -5 -40 -5 -40 35 -53 23 -7 46 -9 52 -6 6 4 8 3 4 -4 -7 -12 11 -19 74 -27 24 -3 49 -10 54 -15 13 -13 -9 -60 -29 -61 -8 -1 -21 -2 -27 -3 -7 -1 -30 4 -52 11 -53 18 -55 17 -16 -12 19 -14 40 -23 48 -20 7 2 11 1 8 -4 -8 -12 42 -31 117 -45 45 -9 77 -9 117 -2 61 12 67 27 18 39 -18 5 -40 16 -48 24 -8 9 -9 13 -2 9 8 -5 12 0 12 13 0 10 -3 21 -7 24 -5 2 -3 2 4 1 6 -2 16 3 23 10 9 11 19 11 58 1 114 -30 137 -34 149 -23 7 6 11 14 8 18 -3 5 0 12 6 16 8 4 9 3 5 -4 -11 -18 1 -14 37 10 18 13 34 24 36 25 2 2 -4 12 -14 23 -10 11 -15 20 -10 20 4 0 14 -8 20 -17 12 -17 14 -17 35 2 21 19 22 52 5 165 -13 84 -54 135 -119 150 -92 20 -397 33 -448 19z m29 -36 c-4 -3 -10 -3 -14 0 -3 4 0 7 7 7 7 0 10 -3 7 -7z m169 -10 c29 -39 14 -96 -38 -145 l-29 -27 -10 27 c-6 15 -13 53 -16 84 -5 54 -4 58 18 67 37 15 60 13 75 -6z m231 10 c-4 -3 -10 -3 -14 0 -3 4 0 7 7 7 7 0 10 -3 7 -7z m-460 -10 c-4 -3 -10 -3 -14 0 -3 4 0 7 7 7 7 0 10 -3 7 -7z m-40 -90 c-4 -3 -7 0 -7 7 0 7 3 10 7 7 3 -4 3 -10 0 -14z m588 -3 c3 -5 4 -10 1 -10 -3 0 -8 5 -11 10 -3 6 -4 10 -1 10 3 0 8 -4 11 -10z m-519 -45 c-3 -9 0 -15 8 -15 27 0 36 -101 12 -132 -12 -16 -14 -16 -35 6 -17 18 -22 33 -19 67 2 30 -2 48 -12 56 -13 10 -11 11 7 6 15 -3 25 0 29 11 3 9 8 16 11 16 3 0 3 -7 -1 -15z m349 -45 c4 -6 10 -8 15 -5 4 3 6 -3 3 -14 -3 -10 0 -21 5 -25 5 -3 8 -19 6 -36 -2 -19 0 -29 6 -25 6 3 7 -1 4 -10 -4 -9 -18 -22 -33 -29 -32 -17 -44 -7 -64 51 -11 32 -11 44 0 71 13 32 45 44 58 22z m50 -20 c-3 -5 -12 -10 -18 -10 -7 0 -6 4 3 10 19 12 23 12 15 0z m10 -49 c3 -5 2 -12 -3 -15 -5 -3 -9 1 -9 9 0 17 3 19 12 6z m-468 -28 c-4 -3 -10 -3 -14 0 -3 4 0 7 7 7 7 0 10 -3 7 -7z m400 -80 c-4 -3 -10 -3 -14 0 -3 4 0 7 7 7 7 0 10 -3 7 -7z m-250 -70 c-4 -3 -10 -3 -14 0 -3 4 0 7 7 7 7 0 10 -3 7 -7z m76 -30 c-7 -2 -21 -2 -30 0 -10 3 -4 5 12 5 17 0 24 -2 18 -5z m44 0 c-4 -3 -10 -3 -14 0 -3 4 0 7 7 7 7 0 10 -3 7 -7z"/>
<path d="M1511 1073 c-17 -18 0 -63 24 -63 8 0 15 -5 15 -12 0 -9 3 -9 11 -1 9 9 7 19 -7 40 -10 15 -21 33 -24 39 -3 8 -9 7 -19 -3z"/>
<path d="M1530 980 c0 -7 3 -10 7 -7 3 4 3 10 0 14 -4 3 -7 0 -7 -7z"/>
</g>
<g id="layer112" fill="#d9ac8f" stroke="none">
<path d="M84 3586 c-3 -8 4 -109 15 -225 12 -115 21 -216 21 -224 0 -8 7 -17 14 -20 9 -4 13 -1 11 6 -6 19 -26 200 -34 317 -8 108 -2 138 28 139 40 3 168 2 186 -2 11 -1 26 -7 33 -11 8 -5 21 -1 31 8 17 16 19 15 23 -16 3 -18 4 -94 2 -168 -1 -74 1 -151 6 -170 5 -22 8 42 7 170 l-2 205 -168 3 c-139 2 -168 0 -173 -12z"/>
<path d="M2076 3591 c-4 -5 -4 -15 -1 -23 4 -11 11 -181 14 -365 1 -32 5 -53 12 -53 8 0 10 31 7 105 -3 65 -1 106 5 108 7 2 7 31 1 85 -8 63 -7 90 3 114 7 16 13 32 13 34 0 8 -49 4 -54 -5z"/>
<path d="M2420 3592 c0 -4 5 -13 11 -19 7 -7 9 -22 4 -40 -11 -37 -12 -58 -15 -266 -1 -98 0 -181 4 -184 3 -4 6 36 6 88 0 52 7 166 15 253 8 88 12 163 9 168 -7 10 -34 11 -34 0z"/>
<path d="M424 2980 c0 -96 2 -136 3 -87 2 48 2 126 0 175 -1 48 -3 8 -3 -88z"/>
<path d="M130 3064 c0 -21 5 -46 10 -54 6 -10 7 2 4 35 -7 62 -14 72 -14 19z"/>
<path d="M142 2965 c0 -16 2 -22 5 -12 2 9 2 23 0 30 -3 6 -5 -1 -5 -18z"/>
<path d="M2094 2949 c-3 -6 -1 -16 5 -22 8 -8 11 -5 11 11 0 24 -5 28 -16 11z"/>
<path d="M152 2895 c0 -16 2 -22 5 -12 2 9 2 23 0 30 -3 6 -5 -1 -5 -18z"/>
<path d="M162 2805 c0 -16 2 -22 5 -12 2 9 2 23 0 30 -3 6 -5 -1 -5 -18z"/>
<path d="M170 2731 c0 -6 4 -13 10 -16 6 -3 7 1 4 9 -7 18 -14 21 -14 7z"/>
<path d="M2110 2710 c0 -5 5 -10 11 -10 5 0 7 5 4 10 -3 6 -8 10 -11 10 -2 0 -4 -4 -4 -10z"/>
<path d="M1085 2036 c-125 -28 -255 -88 -255 -119 0 -6 9 -41 19 -77 14 -49 21 -60 26 -47 5 11 1 33 -9 53 -9 19 -16 42 -16 52 1 19 78 72 106 72 11 0 38 9 62 20 24 11 60 20 80 21 20 1 45 6 55 11 51 26 290 -57 352 -122 26 -27 27 -30 11 -46 -12 -11 -15 -25 -11 -42 3 -14 1 -28 -5 -32 -12 -7 -15 -109 -10 -270 3 -81 4 -70 10 75 4 112 12 193 24 238 l18 69 -23 24 c-28 29 -116 82 -177 106 -61 23 -184 30 -257 14z"/>
<path d="M875 1710 c13 -137 14 -140 60 -120 18 8 17 9 -7 9 -23 1 -28 6 -29 29 -3 74 -11 128 -20 137 -7 7 -8 -10 -4 -55z"/>
<path d="M969 1607 c5 -5 19 -7 32 -5 20 3 19 5 -9 9 -20 3 -29 2 -23 -4z"/>
<path d="M1201 1606 c4 -4 21 -9 39 -11 18 -2 42 -7 54 -10 17 -5 18 -4 5 4 -19 12 -107 27 -98 17z"/>
<path d="M1425 1490 c3 -5 8 -10 11 -10 3 0 2 5 -1 10 -3 6 -8 10 -11 10 -3 0 -2 -4 1 -10z"/>
<path d="M1470 1380 c0 -6 5 -10 11 -10 5 0 8 -4 4 -9 -3 -5 -1 -12 5 -16 5 -3 11 -27 11 -53 1 -26 4 -36 6 -23 7 38 -7 109 -22 115 -8 3 -15 1 -15 -4z"/>
<path d="M1513 1185 c0 -22 2 -30 4 -17 2 12 2 30 0 40 -3 9 -5 -1 -4 -23z"/>
<path d="M868 1179 c-21 -6 -38 -15 -38 -20 0 -5 -7 -9 -15 -9 -37 0 -78 -82 -90 -180 -3 -19 -7 -53 -10 -75 -5 -40 -5 -40 35 -53 23 -7 46 -9 52 -6 7 4 8 2 4 -4 -7 -11 15 -20 64 -25 20 -2 25 2 25 21 0 12 5 26 11 30 29 18 13 124 -22 147 -14 9 -25 11 -29 5 -4 -6 -11 -7 -17 -4 -7 5 -8 2 -3 -6 6 -9 4 -12 -6 -8 -12 5 -14 -7 -12 -68 2 -71 1 -74 -21 -74 -48 0 -59 20 -54 101 7 98 42 175 78 171 17 -1 21 1 12 7 -10 6 -2 13 28 25 38 15 88 16 228 4 6 -1 12 -6 12 -12 0 -6 4 -5 9 3 7 11 28 12 105 6 53 -4 96 -11 96 -17 0 -5 5 -6 10 -3 6 4 17 1 25 -5 8 -7 15 -9 15 -6 0 14 26 -18 27 -33 4 -38 22 -122 29 -133 12 -20 15 -66 4 -73 -6 -4 -7 -11 -4 -17 5 -7 1 -9 -9 -5 -11 4 -17 1 -17 -8 0 -23 20 -28 41 -9 20 18 21 54 4 164 -13 84 -54 135 -119 150 -92 20 -397 33 -448 19z m-2 -184 c-3 -9 0 -15 8 -15 24 0 38 -112 16 -125 -6 -4 -8 -16 -4 -28 4 -14 -3 -9 -26 16 -28 32 -32 43 -28 82 2 26 -1 45 -7 46 -5 0 0 4 13 9 12 5 22 14 22 20 0 5 3 10 6 10 3 0 4 -7 0 -15z"/>
<path d="M1512 1073 c-17 -17 -7 -47 12 -40 9 4 16 -3 21 -20 4 -19 9 -23 17 -15 8 8 6 19 -8 39 -10 15 -21 33 -24 39 -4 8 -9 8 -18 -3z"/>
<path d="M1174 972 c-13 -9 -44 -54 -44 -64 0 -19 20 -6 26 17 9 36 37 49 56 27 21 -24 30 -51 33 -94 1 -23 -2 -35 -8 -31 -6 3 -7 1 -3 -5 3 -6 -3 -13 -14 -17 -11 -3 -20 -10 -20 -15 0 -13 59 22 65 38 3 7 0 23 -6 34 -6 11 -7 23 -3 27 15 11 13 40 -2 34 -10 -3 -12 0 -8 10 3 10 -5 20 -27 31 -18 9 -33 16 -33 16 -1 0 -6 -4 -12 -8z"/>
<path d="M1140 871 c0 -11 -3 -27 -7 -37 -5 -13 -3 -15 7 -9 10 6 12 4 7 -9 -4 -9 -3 -15 2 -12 5 3 11 0 14 -8 5 -12 0 -12 -26 -5 -27 8 -35 6 -49 -11 -9 -11 -21 -20 -27 -20 -9 0 -8 -6 0 -22 11 -21 11 -22 -4 -10 -14 12 -15 10 -4 -17 7 -19 18 -31 30 -31 11 0 15 -5 11 -11 -9 -15 -129 -2 -173 19 -18 8 -39 15 -47 15 -11 0 -11 4 -2 16 7 9 9 13 4 9 -4 -3 -26 0 -48 8 -53 18 -55 18 -27 -5 78 -61 208 -94 299 -77 63 13 67 26 13 41 -32 9 -37 14 -35 35 2 14 10 32 18 41 13 14 21 15 62 4 138 -36 131 -36 179 0 25 19 50 36 56 38 9 3 9 8 -1 19 -11 14 -16 13 -45 -14 -38 -35 -87 -63 -87 -49 0 6 -7 7 -17 4 -11 -5 -14 -3 -8 6 6 10 3 11 -13 2 -28 -15 -32 -14 -32 9 0 11 -4 20 -10 20 -5 0 -14 18 -20 40 -12 43 -20 52 -20 21z m190 -85 c0 -3 -5 -8 -12 -12 -7 -4 -8 -3 -4 4 7 12 16 16 16 8z"/>
</g>
<g id="layer113" fill="#eaae89" stroke="none">
<path d="M99 3573 c-2 -61 1 -181 7 -233 3 -30 7 -72 8 -92 1 -20 5 -40 10 -45 5 -4 6 23 2 62 -18 175 -22 281 -12 297 11 18 11 18 116 19 83 0 109 -3 128 -15 8 -5 21 -1 32 9 18 16 19 15 22 -12 3 -23 6 -25 12 -10 20 43 6 47 -164 47 l-160 0 -1 -27z"/>
<path d="M2090 3486 c0 -71 4 -117 11 -121 19 -13 22 4 13 85 -8 61 -7 88 3 112 17 39 17 38 -7 38 -19 0 -20 -7 -20 -114z"/>
<path d="M2170 3590 c0 -18 37 -31 48 -17 8 9 38 13 92 12 45 -1 84 3 86 7 3 4 -47 8 -110 8 -68 0 -116 -4 -116 -10z"/>
<path d="M2420 3591 c0 -6 5 -13 10 -16 6 -3 10 1 10 9 0 9 -4 16 -10 16 -5 0 -10 -4 -10 -9z"/>
<path d="M2434 3524 c-13 -19 -14 -28 -5 -37 8 -8 11 -5 11 14 0 14 5 30 12 37 7 7 9 12 5 12 -3 0 -14 -11 -23 -26z"/>
<path d="M412 3480 c0 -19 2 -27 5 -17 2 9 2 25 0 35 -3 9 -5 1 -5 -18z"/>
<path d="M2420 3370 c0 -46 3 -80 7 -77 7 7 4 149 -3 156 -2 2 -4 -33 -4 -79z"/>
<path d="M413 3300 c0 -36 2 -50 4 -32 2 17 2 47 0 65 -2 17 -4 3 -4 -33z"/>
<path d="M2098 3283 c-4 -100 -3 -133 4 -133 5 0 8 38 8 85 0 84 -9 120 -12 48z"/>
<path d="M2412 3225 c0 -16 2 -22 5 -12 2 9 2 23 0 30 -3 6 -5 -1 -5 -18z"/>
<path d="M130 3156 c0 -19 3 -37 8 -40 4 -2 6 13 4 35 -5 48 -12 51 -12 5z"/>
<path d="M2101 3114 c0 -11 3 -14 6 -6 3 7 2 16 -1 19 -3 4 -6 -2 -5 -13z"/>
<path d="M2422 3100 c0 -14 2 -19 5 -12 2 6 2 18 0 25 -3 6 -5 1 -5 -13z"/>
<path d="M135 3050 c3 -5 8 -10 11 -10 3 0 2 5 -1 10 -3 6 -8 10 -11 10 -3 0 -2 -4 1 -10z"/>
<path d="M140 2950 c0 -7 3 -10 7 -7 3 4 3 10 0 14 -4 3 -7 0 -7 -7z"/>
<path d="M150 2900 c0 -7 3 -10 7 -7 3 4 3 10 0 14 -4 3 -7 0 -7 -7z"/>
<path d="M160 2790 c0 -7 3 -10 7 -7 3 4 3 10 0 14 -4 3 -7 0 -7 -7z"/>
<path d="M1124 2029 c-9 -16 2 -22 21 -11 15 8 16 10 1 15 -8 3 -18 2 -22 -4z"/>
<path d="M1217 2032 c-11 -5 5 -12 49 -20 37 -7 69 -10 72 -7 3 3 -4 5 -14 5 -11 0 -29 7 -40 15 -21 16 -39 18 -67 7z"/>
<path d="M1064 2019 c-3 -5 6 -9 20 -9 31 0 34 6 6 13 -11 3 -23 1 -26 -4z"/>
<path d="M990 1992 c-25 -8 -39 -17 -33 -19 7 -3 31 5 55 16 51 23 41 25 -22 3z"/>
<path d="M1360 1990 c35 -24 54 -31 30 -11 -14 11 -29 21 -35 21 -5 0 -3 -5 5 -10z"/>
<path d="M903 1968 c1 -7 -6 -12 -15 -12 -10 1 -16 -3 -15 -10 1 -6 -6 -10 -17 -9 -13 1 -15 -2 -7 -10 11 -11 83 31 75 45 -8 13 -24 9 -21 -4z"/>
<path d="M1100 1970 c0 -5 5 -10 10 -10 6 0 10 5 10 10 0 6 -4 10 -10 10 -5 0 -10 -4 -10 -10z"/>
<path d="M1435 1961 c-3 -5 -2 -12 3 -15 5 -3 9 1 9 9 0 17 -3 19 -12 6z"/>
<path d="M1470 1942 c0 -14 36 -43 43 -35 4 3 0 15 -10 25 -17 19 -33 24 -33 10z"/>
<path d="M842 1885 c1 -16 7 -37 14 -45 6 -8 14 -22 18 -30 13 -30 -3 26 -18 65 -15 37 -16 38 -14 10z"/>
<path d="M1440 1880 c0 -5 5 -10 10 -10 6 0 10 5 10 10 0 6 -4 10 -10 10 -5 0 -10 -4 -10 -10z"/>
<path d="M1501 1824 c0 -11 3 -14 6 -6 3 7 2 16 -1 19 -3 4 -6 -2 -5 -13z"/>
<path d="M1484 1768 c-4 -7 -3 -8 4 -4 12 7 16 16 8 16 -3 0 -8 -5 -12 -12z"/>
<path d="M890 1690 c0 -7 3 -10 7 -7 3 4 3 10 0 14 -4 3 -7 0 -7 -7z"/>
<path d="M886 1642 c-4 -13 -5 -26 -2 -29 10 -11 18 4 14 29 l-4 23 -8 -23z"/>
<path d="M1486 1588 c9 -82 14 -86 14 -10 0 33 -5 64 -11 67 -7 5 -8 -13 -3 -57z"/>
<path d="M1045 1610 c4 -6 11 -8 16 -5 14 9 11 15 -7 15 -8 0 -12 -5 -9 -10z"/>
<path d="M988 1603 c7 -3 16 -2 19 1 4 3 -2 6 -13 5 -11 0 -14 -3 -6 -6z"/>
<path d="M1200 1606 c0 -10 28 -13 41 -5 10 6 7 9 -13 9 -16 0 -28 -2 -28 -4z"/>
<path d="M933 1593 c4 -3 10 -3 14 0 3 4 0 7 -7 7 -7 0 -10 -3 -7 -7z"/>
<path d="M1268 1593 c7 -3 16 -2 19 1 4 3 -2 6 -13 5 -11 0 -14 -3 -6 -6z"/>
<path d="M1345 1564 c17 -8 39 -23 51 -32 11 -9 5 -2 -15 16 -19 17 -41 32 -50 32 -9 0 -2 -7 14 -16z"/>
<path d="M1490 1430 c0 -7 3 -10 7 -7 3 4 3 10 0 14 -4 3 -7 0 -7 -7z"/>
<path d="M1475 1380 c3 -5 8 -10 11 -10 3 0 2 5 -1 10 -3 6 -8 10 -11 10 -3 0 -2 -4 1 -10z"/>
<path d="M1501 1324 c0 -11 3 -14 6 -6 3 7 2 16 -1 19 -3 4 -6 -2 -5 -13z"/>
<path d="M1512 1200 c0 -14 2 -19 5 -12 2 6 2 18 0 25 -3 6 -5 1 -5 -13z"/>
<path d="M897 1184 c-5 -5 -13 -10 -18 -10 -5 -1 -11 -3 -14 -4 -3 -1 -9 -3 -13 -4 -31 -4 -83 -56 -97 -96 -9 -25 -19 -52 -22 -60 -4 -8 -5 -22 -4 -31 1 -9 -2 -34 -7 -57 -8 -36 -7 -43 12 -61 12 -12 29 -21 37 -21 9 0 19 -3 23 -7 12 -12 89 -33 98 -27 5 3 6 14 3 24 -3 11 0 22 9 27 31 18 17 124 -20 148 -14 9 -25 11 -29 5 -4 -6 -11 -7 -17 -4 -7 5 -8 2 -3 -6 6 -9 4 -12 -6 -8 -11 4 -14 -4 -14 -33 0 -44 10 -52 17 -14 3 14 0 25 -6 26 -6 0 -2 4 9 8 33 13 52 1 64 -40 10 -33 9 -45 -5 -75 -10 -21 -22 -33 -30 -30 -7 3 -15 0 -17 -7 -2 -7 -7 9 -11 36 -4 26 -11 45 -15 42 -5 -2 -6 -16 -3 -30 4 -21 1 -25 -20 -25 -50 0 -61 20 -56 101 7 98 42 175 78 171 17 -1 21 1 12 7 -10 6 -2 13 28 25 38 15 88 16 228 4 6 -1 12 -6 12 -12 0 -6 4 -5 9 3 7 11 28 12 105 6 53 -4 96 -11 96 -17 0 -5 5 -6 10 -3 6 4 17 1 25 -5 8 -7 15 -9 15 -6 0 14 26 -18 27 -33 4 -38 22 -122 29 -133 12 -20 15 -66 4 -73 -6 -4 -7 -11 -4 -17 5 -7 1 -9 -9 -5 -12 4 -17 1 -17 -10 0 -9 -3 -14 -6 -11 -3 3 -17 -5 -32 -19 -15 -14 -40 -34 -57 -44 -20 -13 -24 -19 -13 -19 9 0 20 5 23 10 4 6 10 8 14 6 4 -3 33 19 64 49 55 52 67 80 58 129 -1 6 -4 24 -5 41 -2 17 -8 40 -14 52 -7 12 -12 28 -12 37 0 16 -69 78 -80 71 -4 -2 -24 0 -45 6 -21 6 -67 12 -104 14 -36 1 -113 6 -171 10 -58 4 -109 3 -113 -1z m-30 -191 c-4 -3 -7 0 -7 7 0 7 3 10 7 7 3 -4 3 -10 0 -14z m20 -180 c-4 -3 -7 0 -7 7 0 7 3 10 7 7 3 -4 3 -10 0 -14z"/>
<path d="M1516 1068 c-9 -35 -7 -41 8 -35 9 4 17 -1 19 -11 4 -15 5 -15 6 -1 0 9 -5 29 -13 43 l-13 27 -7 -23z"/>
<path d="M1174 972 c-13 -9 -44 -54 -44 -64 0 -5 5 -8 10 -8 6 0 10 7 10 15 0 8 9 24 21 36 16 16 23 18 35 8 24 -20 36 -49 39 -96 2 -38 -1 -46 -21 -55 -33 -15 -28 -48 8 -48 15 0 28 4 28 10 0 5 -7 6 -17 3 -11 -4 -14 -3 -9 5 5 8 1 10 -11 6 -16 -5 -16 -4 1 10 11 9 23 16 27 16 14 0 19 32 8 52 -6 11 -7 23 -3 27 15 11 13 40 -2 34 -10 -3 -12 0 -8 10 3 10 -5 20 -27 31 -18 9 -33 16 -33 16 -1 0 -6 -4 -12 -8z"/>
<path d="M780 920 c0 -7 3 -10 7 -7 3 4 3 10 0 14 -4 3 -7 0 -7 -7z"/>
<path d="M1142 873 c-1 -12 -5 -29 -9 -39 -5 -13 -3 -15 7 -9 10 6 12 4 7 -9 -4 -9 -3 -15 2 -12 5 3 11 0 14 -8 5 -12 0 -12 -26 -5 -27 8 -35 6 -49 -11 -9 -11 -21 -20 -27 -20 -6 0 -7 -7 -4 -17 4 -10 2 -14 -4 -10 -8 5 -8 -2 0 -23 7 -18 19 -30 30 -30 10 0 15 -4 12 -10 -3 -5 0 -10 8 -10 8 0 17 7 21 15 3 10 -1 15 -13 15 -10 0 -25 8 -34 18 -15 16 -14 20 9 49 22 28 28 31 50 23 54 -21 73 -1 35 34 -11 10 -22 32 -24 50 -2 18 -4 22 -5 9z"/>
<path d="M925 796 c11 -8 23 -12 28 -9 13 8 -3 23 -26 23 -20 0 -20 0 -2 -14z"/>
<path d="M930 750 c0 -6 -10 -15 -22 -20 -20 -8 -19 -9 11 -7 20 1 36 -4 39 -11 2 -6 11 -12 20 -12 13 0 12 3 -4 19 -10 10 -23 16 -28 13 -5 -3 -7 2 -3 11 3 10 2 17 -3 17 -6 0 -10 -5 -10 -10z"/>
<path d="M862 721 c-11 -7 -11 -9 0 -14 9 -3 15 1 15 9 0 8 -1 14 -1 14 -1 0 -7 -4 -14 -9z"/>
<path d="M890 696 c0 -2 7 -7 16 -10 8 -3 12 -2 9 4 -6 10 -25 14 -25 6z"/>
<path d="M933 673 c4 -3 10 -3 14 0 3 4 0 7 -7 7 -7 0 -10 -3 -7 -7z"/>
<path d="M979 659 c16 -6 28 -6 35 1 7 7 -1 10 -24 9 -33 0 -34 -1 -11 -10z"/>
</g>


</svg>